<svg width="7" height="11" viewBox="0 0 7 11" fill="none" xmlns="http://www.w3.org/2000/svg">
<path fill-rule="evenodd" clip-rule="evenodd" d="M0.481461 0.322937C0.855389 -0.0835061 1.488 -0.109866 1.89445 0.264062C1.92518 0.292333 2.02508 0.38589 2.17778 0.528903C2.99518 1.2944 5.32559 3.47687 6.65986 4.6486C6.87303 4.83581 6.99665 5.10475 6.99993 5.38843C7.00321 5.67212 6.88584 5.94384 6.67706 6.13593L1.67705 10.7359C1.27061 11.1099 0.637996 11.0835 0.264068 10.6771C-0.10986 10.2706 -0.0835012 9.63799 0.322942 9.26406L4.51113 5.41093C3.14159 4.17249 1.39024 2.53177 0.767159 1.94806C0.64169 1.83051 0.561972 1.75583 0.540335 1.73592C0.133892 1.362 0.107533 0.729381 0.481461 0.322937Z" fill="#3E4751"/>
</svg>
