<svg width="7" height="11" viewBox="0 0 7 11" fill="none" xmlns="http://www.w3.org/2000/svg">
<path fill-rule="evenodd" clip-rule="evenodd" d="M6.51854 10.6771C6.14461 11.0835 5.512 11.1099 5.10555 10.7359C5.07482 10.7077 4.97492 10.6141 4.82222 10.4711C4.00483 9.7056 1.67441 7.52313 0.340143 6.3514C0.12697 6.16419 0.00334757 5.89525 6.69564e-05 5.61157C-0.00321318 5.32788 0.114157 5.05616 0.322944 4.86407L5.32295 0.264074C5.72939 -0.109854 6.362 -0.0834943 6.73593 0.322949C7.10986 0.729393 7.0835 1.36201 6.67706 1.73594L2.48887 5.58907C3.85842 6.82751 5.60976 8.46822 6.23284 9.05194C6.35831 9.16949 6.43803 9.24417 6.45967 9.26408C6.86611 9.638 6.89247 10.2706 6.51854 10.6771Z" fill="#3E4751"/>
</svg>
