<svg width="66" height="61" viewBox="0 0 66 61" fill="none" xmlns="http://www.w3.org/2000/svg">
<path fill-rule="evenodd" clip-rule="evenodd" d="M30.4707 1.40634C32.0806 -0.364186 34.8037 -0.478357 36.5527 1.15134L64.6107 27.2942C65.4962 28.1192 66 29.2818 66 30.5C66 31.7182 65.4962 32.8808 64.6107 33.7058L36.5527 59.8487C34.8037 61.4784 32.0806 61.3642 30.4707 59.5937C28.8608 57.8231 28.9735 55.0667 30.7226 53.437L50.6636 34.8571H4.30435C1.92712 34.8571 0 32.9064 0 30.5C0 28.0936 1.92712 26.1429 4.30435 26.1429H50.6636L30.7226 7.56299C28.9735 5.9333 28.8608 3.17687 30.4707 1.40634Z" fill="white"/>
</svg>
