<svg width="26" height="12" viewBox="0 0 26 12" fill="none" xmlns="http://www.w3.org/2000/svg">
<path fill-rule="evenodd" clip-rule="evenodd" d="M0 1C0 0.447715 0.447715 0 1 0H25C25.5523 0 26 0.447715 26 1C26 1.55228 25.5523 2 25 2H1C0.447715 2 0 1.55228 0 1Z" fill="#3E4751"/>
<path fill-rule="evenodd" clip-rule="evenodd" d="M0 6C0 5.44772 0.447715 5 1 5H25C25.5523 5 26 5.44772 26 6C26 6.55228 25.5523 7 25 7H1C0.447715 7 0 6.55228 0 6Z" fill="#3E4751"/>
<path fill-rule="evenodd" clip-rule="evenodd" d="M0 11C0 10.4477 0.447715 10 1 10H25C25.5523 10 26 10.4477 26 11C26 11.5523 25.5523 12 25 12H1C0.447715 12 0 11.5523 0 11Z" fill="#3E4751"/>
</svg>
