<svg width="17" height="17" viewBox="0 0 17 17" fill="none" xmlns="http://www.w3.org/2000/svg">
<path opacity="0.6" d="M16.1444 2.5682C16.6172 2.09541 16.6172 1.32886 16.1444 0.856061C15.6716 0.383266 14.9051 0.383266 14.4323 0.856062L8.50048 6.78785L2.56869 0.856061C2.0959 0.383266 1.32935 0.383266 0.85655 0.856062C0.383755 1.32886 0.383755 2.09541 0.85655 2.5682L6.78834 8.49999L0.856549 14.4318C0.383754 14.9046 0.383755 15.6711 0.85655 16.1439C1.32934 16.6167 2.0959 16.6167 2.56869 16.1439L8.50048 10.2121L14.4323 16.1439C14.9051 16.6167 15.6716 16.6167 16.1444 16.1439C16.6172 15.6711 16.6172 14.9046 16.1444 14.4318L10.2126 8.49999L16.1444 2.5682Z" fill="#FDFDFD"/>
</svg>
