<svg width="224" height="254" viewBox="0 0 224 254" fill="none" xmlns="http://www.w3.org/2000/svg">
<path d="M28.5489 253.036C25.4568 253.036 22.9473 250.527 22.9473 247.435V155.33C22.9473 152.238 25.4568 149.729 28.5489 149.729C31.641 149.729 34.1505 152.238 34.1505 155.33V247.435C34.1505 250.527 31.6438 253.036 28.5489 253.036Z" fill="black"/>
<path d="M195.449 167.211C192.356 167.211 189.847 164.702 189.847 161.61V6.56571C189.847 3.47363 192.356 0.964111 195.449 0.964111C198.541 0.964111 201.05 3.47363 201.05 6.56571V161.61C201.05 164.704 198.541 167.211 195.449 167.211Z" fill="black"/>
<path d="M111.999 253.036C108.907 253.036 106.397 250.527 106.397 247.435V79.1681C106.397 76.076 108.907 73.5665 111.999 73.5665C115.091 73.5665 117.6 76.076 117.6 79.1681V247.435C117.6 250.527 115.091 253.036 111.999 253.036Z" fill="black"/>
<path d="M111.999 84.7697C96.6952 84.7697 84.2428 72.3201 84.2428 57.0137C84.2428 41.7074 96.6924 29.2578 111.999 29.2578C127.305 29.2578 139.755 41.7074 139.755 57.0137C139.755 72.3201 127.305 84.7697 111.999 84.7697ZM111.999 40.4638C102.871 40.4638 95.446 47.8887 95.446 57.0165C95.446 66.1443 102.871 73.5693 111.999 73.5693C121.127 73.5693 128.551 66.1443 128.551 57.0165C128.551 47.8887 121.127 40.4638 111.999 40.4638Z" fill="black"/>
<path d="M28.5489 160.932C13.2453 160.932 0.792969 148.482 0.792969 133.176C0.792969 117.872 13.2425 105.42 28.5489 105.42C43.8553 105.42 56.3048 117.87 56.3048 133.176C56.3048 148.482 43.8525 160.932 28.5489 160.932ZM28.5489 116.623C19.4211 116.623 11.9962 124.048 11.9962 133.176C11.9962 142.304 19.4211 149.729 28.5489 149.729C37.6767 149.729 45.1016 142.304 45.1016 133.176C45.1016 124.048 37.6767 116.623 28.5489 116.623Z" fill="black"/>
<path d="M195.449 211.52C180.145 211.52 167.695 199.07 167.695 183.764C167.695 168.46 180.145 156.011 195.449 156.011C210.755 156.011 223.205 168.46 223.205 183.764C223.205 199.067 210.755 211.52 195.449 211.52ZM195.449 167.211C186.321 167.211 178.899 174.633 178.899 183.761C178.899 192.889 186.321 200.314 195.449 200.314C204.576 200.314 212.001 192.889 212.001 183.761C212.001 174.633 204.576 167.211 195.449 167.211Z" fill="black"/>
<path d="M28.5489 116.623C25.4568 116.623 22.9473 114.114 22.9473 111.022V6.56571C22.9473 3.47363 25.4568 0.964111 28.5489 0.964111C31.641 0.964111 34.1505 3.47363 34.1505 6.56571V111.022C34.1505 114.116 31.6438 116.623 28.5489 116.623Z" fill="black"/>
<path d="M111.999 40.4638C108.907 40.4638 106.397 37.9543 106.397 34.8622V6.56571C106.397 3.47363 108.907 0.964111 111.999 0.964111C115.091 0.964111 117.6 3.47363 117.6 6.56571V34.8622C117.6 37.9543 115.091 40.4638 111.999 40.4638Z" fill="black"/>
<path d="M195.449 253.036C192.356 253.036 189.847 250.527 189.847 247.435V205.918C189.847 202.826 192.356 200.317 195.449 200.317C198.541 200.317 201.05 202.826 201.05 205.918V247.435C201.05 250.527 198.541 253.036 195.449 253.036Z" fill="black"/>
</svg>
