<svg width="30" height="30" viewBox="0 0 30 30" fill="none" xmlns="http://www.w3.org/2000/svg">
<path fill-rule="evenodd" clip-rule="evenodd" d="M8.9535 0.421008C10.5175 0.349008 11.0162 0.333008 15.0002 0.333008C18.9842 0.333008 19.4828 0.350341 21.0455 0.421008C22.6082 0.491674 23.6748 0.741008 24.6082 1.10234C25.5855 1.47167 26.4722 2.04901 27.2055 2.79567C27.9522 3.52767 28.5282 4.41301 28.8962 5.39167C29.2588 6.32501 29.5068 7.39167 29.5788 8.95167C29.6508 10.5183 29.6668 11.017 29.6668 14.9997C29.6668 18.9837 29.6495 19.4823 29.5788 21.0463C29.5082 22.6063 29.2588 23.673 28.8962 24.6063C28.5282 25.5851 27.9512 26.4719 27.2055 27.205C26.4722 27.9517 25.5855 28.5277 24.6082 28.8957C23.6748 29.2583 22.6082 29.5063 21.0482 29.5783C19.4828 29.6503 18.9842 29.6663 15.0002 29.6663C11.0162 29.6663 10.5175 29.649 8.9535 29.5783C7.3935 29.5077 6.32683 29.2583 5.3935 28.8957C4.41472 28.5276 3.52792 27.9507 2.79483 27.205C2.04867 26.4726 1.47125 25.5862 1.10283 24.6077C0.741496 23.6743 0.493496 22.6077 0.421496 21.0477C0.349496 19.481 0.333496 18.9823 0.333496 14.9997C0.333496 11.0157 0.350829 10.517 0.421496 8.95434C0.492163 7.39167 0.741496 6.32501 1.10283 5.39167C1.47179 4.41312 2.04965 3.52676 2.79616 2.79434C3.52822 2.04834 4.41413 1.47093 5.39216 1.10234C6.3255 0.741008 7.39216 0.493008 8.95216 0.421008H8.9535ZM20.9268 3.06101C19.3802 2.99034 18.9162 2.97567 15.0002 2.97567C11.0842 2.97567 10.6202 2.99034 9.07349 3.06101C7.64283 3.12634 6.86683 3.36501 6.3495 3.56634C5.6655 3.83301 5.17616 4.14901 4.66283 4.66234C4.17622 5.13574 3.80174 5.71205 3.56683 6.34901C3.3655 6.86634 3.12683 7.64234 3.0615 9.07301C2.99083 10.6197 2.97616 11.0837 2.97616 14.9997C2.97616 18.9157 2.99083 19.3797 3.0615 20.9263C3.12683 22.357 3.3655 23.133 3.56683 23.6503C3.8015 24.2863 4.17616 24.8637 4.66283 25.337C5.13616 25.8237 5.7135 26.1983 6.3495 26.433C6.86683 26.6343 7.64283 26.873 9.07349 26.9383C10.6202 27.009 11.0828 27.0237 15.0002 27.0237C18.9175 27.0237 19.3802 27.009 20.9268 26.9383C22.3575 26.873 23.1335 26.6343 23.6508 26.433C24.3348 26.1663 24.8242 25.8503 25.3375 25.337C25.8242 24.8637 26.1988 24.2863 26.4335 23.6503C26.6348 23.133 26.8735 22.357 26.9388 20.9263C27.0095 19.3797 27.0242 18.9157 27.0242 14.9997C27.0242 11.0837 27.0095 10.6197 26.9388 9.07301C26.8735 7.64234 26.6348 6.86634 26.4335 6.34901C26.1668 5.66501 25.8508 5.17567 25.3375 4.66234C24.8641 4.17577 24.2878 3.80129 23.6508 3.56634C23.1335 3.36501 22.3575 3.12634 20.9268 3.06101ZM13.1268 19.521C14.173 19.9565 15.338 20.0153 16.4227 19.6873C17.5075 19.3593 18.4447 18.6649 19.0743 17.7227C19.7039 16.7804 19.9869 15.6488 19.8749 14.5211C19.7629 13.3935 19.2628 12.3396 18.4602 11.5397C17.9485 11.0283 17.3298 10.6368 16.6486 10.3932C15.9674 10.1496 15.2407 10.0602 14.5208 10.1312C13.8009 10.2022 13.1057 10.4319 12.4852 10.8038C11.8648 11.1758 11.3345 11.6807 10.9326 12.2821C10.5306 12.8836 10.2671 13.5667 10.1608 14.2823C10.0546 14.9979 10.1084 15.7281 10.3182 16.4204C10.5281 17.1127 10.8888 17.7498 11.3745 18.286C11.8601 18.8221 12.4586 19.2439 13.1268 19.521ZM9.6695 9.66901C10.3695 8.96897 11.2006 8.41368 12.1152 8.03482C13.0299 7.65597 14.0102 7.46097 15.0002 7.46097C15.9902 7.46097 16.9705 7.65597 17.8851 8.03482C18.7997 8.41368 19.6308 8.96897 20.3308 9.66901C21.0309 10.369 21.5862 11.2001 21.965 12.1147C22.3439 13.0294 22.5389 14.0097 22.5389 14.9997C22.5389 15.9897 22.3439 16.97 21.965 17.8846C21.5862 18.7992 21.0309 19.6303 20.3308 20.3303C18.917 21.7441 16.9995 22.5384 15.0002 22.5384C13.0008 22.5384 11.0833 21.7441 9.6695 20.3303C8.25571 18.9166 7.46146 16.9991 7.46146 14.9997C7.46146 13.0003 8.25571 11.0828 9.6695 9.66901ZM24.2108 8.58367C24.3843 8.42003 24.5232 8.22325 24.6192 8.00497C24.7153 7.7867 24.7666 7.55137 24.7701 7.31291C24.7735 7.07446 24.7291 6.83774 24.6395 6.61675C24.5498 6.39577 24.4167 6.19502 24.2481 6.02639C24.0795 5.85776 23.8787 5.72468 23.6577 5.63503C23.4368 5.54538 23.2 5.50098 22.9616 5.50445C22.7231 5.50793 22.4878 5.55921 22.2695 5.65527C22.0513 5.75133 21.8545 5.8902 21.6908 6.06367C21.3726 6.40105 21.1983 6.84917 21.2051 7.31291C21.2119 7.77666 21.3991 8.21951 21.727 8.54746C22.055 8.87542 22.4978 9.06264 22.9616 9.06941C23.4253 9.07617 23.8735 8.90193 24.2108 8.58367Z" fill="#7CACF3"/>
</svg>
