<svg width="14" height="14" viewBox="0 0 14 14" fill="none" xmlns="http://www.w3.org/2000/svg">
<path d="M13.2222 9.72222C12.25 9.72222 11.3167 9.56667 10.4456 9.27889C10.1733 9.19333 9.87 9.25556 9.66 9.46556L7.94889 11.1767C5.74778 10.0567 3.94333 8.26 2.82333 6.05111L4.53444 4.33222C4.74444 4.13 4.80667 3.82667 4.72111 3.55444C4.43333 2.68333 4.27778 1.75 4.27778 0.777778C4.27778 0.35 3.92778 0 3.5 0H0.777778C0.35 0 0 0.35 0 0.777778C0 8.08111 5.91889 14 13.2222 14C13.65 14 14 13.65 14 13.2222V10.5C14 10.0722 13.65 9.72222 13.2222 9.72222Z" fill="#3E4751"/>
</svg>
