<svg width="15" height="17" viewBox="0 0 15 17" fill="none" xmlns="http://www.w3.org/2000/svg">
<path d="M9.3437 14.7349H5.72458V17H2.31032V14.7349H0V11.8977H2.31032V11.0103H0V8.17308H2.31032V0H8.7519C9.99621 0 11.0888 0.229625 12.0296 0.688874C12.9704 1.14812 13.6988 1.80586 14.2147 2.66209C14.7382 3.51053 15 4.47962 15 5.56937C15 7.25069 14.4423 8.57784 13.327 9.55082C12.2193 10.5238 10.6753 11.0103 8.69499 11.0103H5.72458V11.8977H9.3437V14.7349ZM5.72458 8.17308H8.67223C10.5842 8.17308 11.5402 7.31296 11.5402 5.59272C11.5402 4.77541 11.2974 4.11767 10.8118 3.61951C10.3263 3.11355 9.65478 2.85668 8.79742 2.8489H5.72458V8.17308Z" fill="#7CACF3"/>
</svg>
