<svg width="50" height="50" viewBox="0 0 50 50" fill="none" xmlns="http://www.w3.org/2000/svg">
<path d="M25 29C26.0609 29 27.0783 28.5786 27.8284 27.8284C28.5786 27.0783 29 26.0609 29 25C29 23.9391 28.5786 22.9217 27.8284 22.1716C27.0783 21.4214 26.0609 21 25 21C23.9391 21 22.9217 21.4214 22.1716 22.1716C21.4214 22.9217 21 23.9391 21 25C21 26.0609 21.4214 27.0783 22.1716 27.8284C22.9217 28.5786 23.9391 29 25 29Z" fill="#7CACF3"/>
<path d="M10 25C10 21.0218 11.5804 17.2064 14.3934 14.3934C17.2064 11.5804 21.0218 10 25 10C28.9782 10 32.7936 11.5804 35.6066 14.3934C38.4196 17.2064 40 21.0218 40 25C40 28.9782 38.4196 32.7936 35.6066 35.6066C32.7936 38.4196 28.9782 40 25 40C21.0218 40 17.2064 38.4196 14.3934 35.6066C11.5804 32.7936 10 28.9782 10 25ZM25 14.2857C22.1584 14.2857 19.4332 15.4145 17.4239 17.4239C15.4145 19.4332 14.2857 22.1584 14.2857 25C14.2857 27.8416 15.4145 30.5668 17.4239 32.5761C19.4332 34.5855 22.1584 35.7143 25 35.7143C27.8416 35.7143 30.5668 34.5855 32.5761 32.5761C34.5855 30.5668 35.7143 27.8416 35.7143 25C35.7143 22.1584 34.5855 19.4332 32.5761 17.4239C30.5668 15.4145 27.8416 14.2857 25 14.2857Z" fill="#7CACF3"/>
<path d="M0 25C0 18.3696 2.63392 12.0107 7.32233 7.32233C12.0107 2.63392 18.3696 0 25 0C31.6304 0 37.9893 2.63392 42.6777 7.32233C47.3661 12.0107 50 18.3696 50 25C50 31.6304 47.3661 37.9893 42.6777 42.6777C37.9893 47.3661 31.6304 50 25 50C18.3696 50 12.0107 47.3661 7.32233 42.6777C2.63392 37.9893 0 31.6304 0 25ZM24.9979 4.1684C19.4725 4.1684 14.1734 6.36337 10.2663 10.2704C6.35921 14.1775 4.16424 19.4766 4.16424 25.0021C4.16424 30.5275 6.35921 35.8266 10.2663 39.7337C14.1734 43.6408 19.4725 45.8358 24.9979 45.8358C30.5234 45.8358 35.8225 43.6408 39.7296 39.7337C43.6366 35.8266 45.8316 30.5275 45.8316 25.0021C45.8316 19.4766 43.6366 14.1775 39.7296 10.2704C35.8225 6.36337 30.5234 4.1684 24.9979 4.1684Z" fill="#7CACF3"/>
</svg>
