<svg width="30" height="25" viewBox="0 0 30 25" fill="none" xmlns="http://www.w3.org/2000/svg">
<path d="M29.5385 3.37696C28.46 3.85487 27.3014 4.17779 26.0833 4.32375C27.3401 3.57173 28.2804 2.38814 28.7287 0.993831C27.5479 1.69519 26.2556 2.18887 24.9079 2.45341C24.0017 1.48578 22.8013 0.844419 21.4932 0.628902C20.1851 0.413384 18.8424 0.63577 17.6736 1.26153C16.5048 1.8873 15.5753 2.88142 15.0295 4.08957C14.4836 5.29772 14.3518 6.6523 14.6547 7.943C12.2621 7.82287 9.92152 7.201 7.78484 6.11775C5.64816 5.0345 3.76313 3.51408 2.25209 1.65516C1.73542 2.54641 1.43834 3.57975 1.43834 4.68025C1.43776 5.67095 1.68173 6.64648 2.1486 7.52028C2.61546 8.39408 3.29079 9.13913 4.11467 9.68933C3.15919 9.65893 2.2248 9.40075 1.38925 8.93629V9.01379C1.38916 10.4033 1.86979 11.75 2.74961 12.8255C3.62943 13.901 4.85424 14.6389 6.21621 14.9141C5.32985 15.154 4.40056 15.1893 3.49854 15.0175C3.88281 16.213 4.63133 17.2585 5.63931 18.0076C6.64729 18.7566 7.86427 19.1717 9.11988 19.1947C6.98841 20.8679 4.35607 21.7756 1.64629 21.7716C1.16629 21.7717 0.686684 21.7437 0.209961 21.6876C2.96053 23.4561 6.1624 24.3947 9.43246 24.3911C20.502 24.3911 26.5535 15.2228 26.5535 7.27133C26.5535 7.013 26.547 6.75208 26.5354 6.49375C27.7125 5.64251 28.7286 4.5884 29.536 3.38083L29.5385 3.37696Z" fill="#7CACF3"/>
</svg>
