<svg width="186" height="32" fill="none" xmlns="http://www.w3.org/2000/svg"><path d="M22.343 31.536h-3.957v-7.513H0v-4.87L16.745 0h5.598v20.499h4.922v3.524h-4.922v7.513zM3.33 20.5h15.056V3.57L3.33 20.499zM55.282 3.71H38.055l-1.062 9.832c1.062-.68 2.284-1.19 3.667-1.53a15.786 15.786 0 014.102-.557c3.829 0 6.82.897 8.976 2.69 2.156 1.762 3.233 4.22 3.233 7.374 0 3.092-1.126 5.611-3.378 7.56-2.22 1.947-5.26 2.921-9.12 2.921-3.54 0-6.386-.711-8.542-2.133-2.155-1.454-3.539-3.525-4.15-6.215l3.909-.742c.418 1.855 1.416 3.247 2.992 4.174 1.576.928 3.507 1.391 5.79 1.391 2.735 0 4.81-.603 6.226-1.808 1.416-1.237 2.123-2.938 2.123-5.102 0-2.102-.74-3.725-2.22-4.87-1.48-1.174-3.474-1.762-5.983-1.762a13.68 13.68 0 00-4.102.603 11.308 11.308 0 00-3.475 1.716l-3.957-1.113L34.87 0h20.412v3.71zm13.876 7.214V.412h4.617c1.2 0 2.144.284 2.83.85.687.557 1.03 1.397 1.03 2.52 0 .804-.188 1.469-.563 1.994-.365.516-.885.887-1.56 1.114l2.59 4.034h-2.236l-2.333-3.772H71.12v3.772h-1.962zm1.962-5.41h2.51c.718 0 1.233-.145 1.544-.433.322-.299.483-.727.483-1.283 0-.608-.161-1.046-.483-1.314-.311-.279-.826-.418-1.544-.418h-2.51v3.448zm8.846 5.41V.412h7.801v1.67h-5.839v2.736h5.614v1.623h-5.614v2.814h5.79v1.67h-7.752zM95.729.412l4.134 10.512h-2.091l-1.014-2.659h-4.632l-.982 2.66h-2.059L93.187.411h2.542zm-2.96 6.153h3.346l-1.69-4.468-1.656 4.468zm16.359 2.597v1.762h-7.657V.412h1.962v8.75h5.695zm5.067 1.762V.412h7.801v1.67h-5.839v2.736h5.614v1.623h-5.614v2.814h5.791v1.67h-7.753zm9.586-2.844l1.947-.31c.139.557.445.975.917 1.253.471.278 1.072.417 1.801.417.74 0 1.319-.118 1.737-.355.429-.248.644-.583.644-1.005 0-.381-.124-.68-.37-.897-.247-.216-.66-.376-1.239-.479l-1.914-.34c-.997-.175-1.78-.49-2.349-.943-.557-.454-.836-1.15-.836-2.087 0-.958.386-1.71 1.158-2.257.783-.546 1.818-.82 3.105-.82 1.33 0 2.348.269 3.056.805.708.525 1.147 1.236 1.319 2.133l-1.946.294c-.097-.433-.338-.804-.724-1.113-.375-.32-.955-.48-1.737-.48-.73 0-1.293.134-1.689.402-.386.258-.58.593-.58 1.005 0 .381.14.68.419.897.289.206.761.366 1.415.479l2.043.386c.922.165 1.625.48 2.107.943.494.464.74 1.124.74 1.98 0 .999-.396 1.767-1.19 2.302-.794.526-1.871.789-3.233.789-1.276 0-2.311-.242-3.105-.727-.793-.484-1.292-1.242-1.496-2.272zm9.98-5.905V.412h9.7v1.763H139.6v8.75h-1.962v-8.75h-3.877zM149.516.412l4.134 10.512h-2.092l-1.013-2.659h-4.633l-.981 2.66h-2.059L146.974.411h2.542zm-2.96 6.153h3.346l-1.689-4.468-1.657 4.468zm6.511-4.39V.412h9.7v1.763h-3.861v8.75h-1.962v-8.75h-3.877zm11.302 8.749V.412h7.801v1.67h-5.839v2.736h5.614v1.623h-5.614v2.814h5.791v1.67h-7.753zM74.225 29.29l-3.233-7.25v8.208h-1.834V19.736h2.815l3.201 7.281 3.153-7.281h2.767v10.512h-1.915v-8.224l-3.217 7.265h-1.737zm15.126-9.554l4.134 10.512h-2.091l-1.013-2.659h-4.633l-.981 2.659h-2.06l4.103-10.512h2.541zm-2.96 6.153h3.346l-1.689-4.468-1.657 4.468zm18.305 4.359h-2.268l-5.42-7.699v7.699h-1.915V19.736h2.188l5.517 7.838v-7.838h1.898v10.512zm8.25-10.512l4.134 10.512h-2.092l-1.013-2.659h-4.633l-.981 2.659h-2.059l4.102-10.512h2.542zm-2.96 6.153h3.346l-1.689-4.468-1.657 4.468zm18.071-.851v5.21H126.4v-1.036c-.386.36-.858.65-1.415.866a5.076 5.076 0 01-1.85.325c-.794 0-1.518-.119-2.172-.356a4.617 4.617 0 01-1.641-1.051 4.778 4.778 0 01-1.045-1.7c-.247-.68-.37-1.449-.37-2.304 0-.897.134-1.68.402-2.35.268-.68.638-1.247 1.11-1.7a4.534 4.534 0 011.705-1.02 6.742 6.742 0 012.188-.34c1.308 0 2.37.283 3.185.85.815.556 1.335 1.386 1.56 2.488l-1.946.294a2.626 2.626 0 00-.917-1.391c-.451-.371-1.078-.557-1.882-.557-1.062 0-1.898.33-2.51.99-.6.66-.9 1.571-.9 2.736 0 1.154.3 2.061.9 2.72.601.66 1.443.99 2.526.99.868 0 1.576-.2 2.123-.603.558-.402.837-.876.837-1.422v-.124h-2.671v-1.515h4.44zm2.349 5.21V19.736h7.802v1.67h-5.839v2.736h5.614v1.623h-5.614v2.813h5.791v1.67h-7.754zm15.152-.958l-3.233-7.25v8.208h-1.834V19.736h2.815l3.201 7.281 3.153-7.281h2.767v10.512h-1.914v-8.224l-3.217 7.265h-1.738zm9.448.958V19.736h7.802v1.67h-5.839v2.736h5.614v1.623h-5.614v2.813h5.791v1.67h-7.754zm19.688 0h-2.268l-5.421-7.699v7.699h-1.914V19.736h2.188l5.517 7.838v-7.838h1.898v10.512zm1.606-8.75v-1.762h9.7v1.762h-3.861v8.75h-1.962v-8.75H176.3z" fill="#2E373B"/></svg>