<svg width="50" height="50" viewBox="0 0 50 50" fill="none" xmlns="http://www.w3.org/2000/svg">
<path d="M48.8911 26.0905L38.1111 21.1283V6.91052C38.1062 6.61223 38.0156 6.32166 37.8501 6.07343C37.6846 5.82521 37.4512 5.62981 37.1778 5.51052L25.5111 0.143851C25.3063 0.0490852 25.0834 0 24.8578 0C24.6322 0 24.4092 0.0490852 24.2045 0.143851L12.5378 5.51052C12.2678 5.63548 12.0393 5.83525 11.8793 6.08615C11.7194 6.33705 11.6348 6.62855 11.6356 6.92607V21.1439L0.902227 26.0905C0.632214 26.2155 0.403701 26.4153 0.243787 26.6662C0.0838738 26.917 -0.00073146 27.2085 4.76426e-06 27.5061V42.7194C-0.00073146 43.0169 0.0838738 43.3084 0.243787 43.5593C0.403701 43.8102 0.632214 44.01 0.902227 44.135L12.5689 49.5016C12.7737 49.5964 12.9966 49.6455 13.2222 49.6455C13.4479 49.6455 13.6708 49.5964 13.8756 49.5016L24.8889 44.4305L35.9022 49.5016C36.107 49.5964 36.3299 49.6455 36.5556 49.6455C36.7812 49.6455 37.0041 49.5964 37.2089 49.5016L48.8756 44.135C49.1456 44.01 49.3741 43.8102 49.534 43.5593C49.6939 43.3084 49.7785 43.0169 49.7778 42.7194V27.5061C49.7799 27.2102 49.6976 26.9199 49.5406 26.6692C49.3835 26.4185 49.1582 26.2177 48.8911 26.0905ZM44.52 27.5061L36.5711 31.1305L28.6222 27.5061L36.5711 23.8505L44.52 27.5061ZM24.8889 3.25496L32.8378 6.91052L24.8889 10.5661L16.9556 6.91052L24.8889 3.25496ZM13.2222 23.835L21.1711 27.4905L13.2222 31.1305L5.27334 27.5061L13.2222 23.835ZM23.3333 41.7083L13.2222 46.375L3.11112 41.7083V29.9327L12.5689 34.2416C12.7694 34.3318 12.9868 34.3784 13.2067 34.3784C13.4265 34.3784 13.6439 34.3318 13.8444 34.2416L23.3022 29.8861L23.3333 41.7083ZM14.7778 21.1283V9.35274L24.2356 13.7083C24.4403 13.8031 24.6633 13.8521 24.8889 13.8521C25.1145 13.8521 25.3375 13.8031 25.5422 13.7083L35 9.35274V21.1439L24.8889 25.8105L14.7778 21.1283ZM46.6822 41.7238L36.5711 46.3905L26.4445 41.7238V29.9172L35.9178 34.2416C36.1162 34.3295 36.3308 34.3749 36.5478 34.3749C36.7648 34.3749 36.9794 34.3295 37.1778 34.2416L46.6356 29.8861L46.6822 41.7238Z" fill="white"/>
</svg>
