<svg width="54" height="54" viewBox="0 0 54 54" fill="none" xmlns="http://www.w3.org/2000/svg">
<path d="M47.125 49.75V0.75H6.875V49.75H0.75V53.25H53.25V49.75H47.125ZM43.625 49.75H28.75V42.75H25.25V49.75H10.375V4.25H43.625V49.75Z" fill="#7CACF3"/>
<path d="M16.5 32.25H20V35.75H16.5V32.25Z" fill="#7CACF3"/>
<path d="M25.25 32.25H28.75V35.75H25.25V32.25Z" fill="#7CACF3"/>
<path d="M34 32.25H37.5V35.75H34V32.25Z" fill="#7CACF3"/>
<path d="M16.5 21.75H20V25.25H16.5V21.75Z" fill="#7CACF3"/>
<path d="M25.25 21.75H28.75V25.25H25.25V21.75Z" fill="#7CACF3"/>
<path d="M34 21.75H37.5V25.25H34V21.75Z" fill="#7CACF3"/>
<path d="M16.5 11.25H20V14.75H16.5V11.25Z" fill="#7CACF3"/>
<path d="M25.25 11.25H28.75V14.75H25.25V11.25Z" fill="#7CACF3"/>
<path d="M34 11.25H37.5V14.75H34V11.25Z" fill="#7CACF3"/>
</svg>
