<svg width="52" height="43" viewBox="0 0 52 43" fill="none" xmlns="http://www.w3.org/2000/svg">
<path fill-rule="evenodd" clip-rule="evenodd" d="M0.5 2C0.5 1.17157 1.17157 0.5 2 0.5H37.3032C38.1317 0.5 38.8032 1.17157 38.8032 2V10.7143H50C50.8284 10.7143 51.5 11.3859 51.5 12.2143V41C51.5 41.6066 51.1346 42.1535 50.5742 42.3857C50.0138 42.618 49.3687 42.4898 48.9396 42.0609L43.8047 36.9286H18.4129C17.5845 36.9286 16.9129 36.257 16.9129 35.4286V29.8095H10.6727L3.0604 37.4181C2.63134 37.8469 1.98622 37.9751 1.4258 37.7429C0.865383 37.5107 0.5 36.9638 0.5 36.3571V2ZM19.9129 29.8095V33.9286H44.4258C44.8235 33.9286 45.2049 34.0865 45.4862 34.3676L48.5 37.3799V13.7143H38.8032V28.3095C38.8032 29.138 38.1317 29.8095 37.3032 29.8095H19.9129ZM3.5 3.5V32.7371L8.99122 27.2486C9.2725 26.9675 9.65392 26.8095 10.0516 26.8095H35.8032V3.5H3.5ZM9.17097 9.11905C9.17097 8.29062 9.84254 7.61905 10.671 7.61905H28.3226C29.151 7.61905 29.8226 8.29062 29.8226 9.11905C29.8226 9.94748 29.151 10.619 28.3226 10.619H10.671C9.84254 10.619 9.17097 9.94748 9.17097 9.11905ZM6.38387 15.3095C6.38387 14.4811 7.05544 13.8095 7.88387 13.8095H31.1097C31.9381 13.8095 32.6097 14.4811 32.6097 15.3095C32.6097 16.138 31.9381 16.8095 31.1097 16.8095H7.88387C7.05544 16.8095 6.38387 16.138 6.38387 15.3095ZM9.17097 21.1905C9.17097 20.3621 9.84254 19.6905 10.671 19.6905H28.3226C29.151 19.6905 29.8226 20.3621 29.8226 21.1905C29.8226 22.0189 29.151 22.6905 28.3226 22.6905H10.671C9.84254 22.6905 9.17097 22.0189 9.17097 21.1905Z" fill="#7CACF3"/>
</svg>
