<svg width="53" height="55" viewBox="0 0 53 55" fill="none" xmlns="http://www.w3.org/2000/svg">
<path fill-rule="evenodd" clip-rule="evenodd" d="M7.20817 5.10086C5.76239 6.3028 4.66817 8.18882 4.66817 11.0122C4.66817 13.823 5.7774 15.6505 7.22613 16.803C8.71839 17.9902 10.6451 18.5148 12.2743 18.5148C12.7562 18.5148 13.2688 18.4665 13.7919 18.3627C15.2168 18.0799 16.6668 17.397 17.7873 16.2264C18.8935 15.0707 19.7412 13.3759 19.8826 10.9398C20.045 8.14233 18.9707 6.28775 17.4946 5.09701C15.9681 3.86556 13.9501 3.30249 12.2743 3.30249C10.6123 3.30249 8.69126 3.8679 7.20817 5.10086ZM5.60997 3.17843C7.59684 1.52666 10.1039 0.80249 12.2743 0.80249C14.431 0.80249 17.0276 1.50829 19.0643 3.1512C21.1514 4.83484 22.5889 7.46014 22.3784 11.0847C22.205 14.071 21.1391 16.3402 19.5933 17.955C18.3389 19.2655 16.8102 20.1025 15.2852 20.5635V27.9925H15.8997C16.59 27.9925 17.1497 28.5521 17.1497 29.2425V51.8161H31.0155V46.5993H25.5327C24.8423 46.5993 24.2827 46.0397 24.2827 45.3493V39.9631C24.2827 39.2727 24.8423 38.7131 25.5327 38.7131H26.1989V36.7521C26.1989 36.0617 26.7586 35.5021 27.4489 35.5021H28.4259V28.1549C28.4259 26.1698 29.0207 24.5326 30.1468 23.3876C30.2508 23.2819 30.3581 23.1816 30.4686 23.0864H27.4489C26.3559 23.0864 25.3878 22.6357 24.7341 21.7501C24.1177 20.9149 23.8684 19.8145 23.8684 18.6254C23.8684 17.1297 24.4493 16.085 25.3131 15.4622C26.103 14.8926 26.9766 14.7859 27.4489 14.7859H30.5564C31.2467 14.7859 31.8064 15.3456 31.8064 16.0359V17.3754H33.9428L35.2754 8.24223C35.2794 8.2145 35.2844 8.18691 35.2903 8.15951C35.5849 6.7915 37.0065 3.81831 40.474 3.6016C43.1922 3.43171 48.6423 3.53091 50.9983 3.5997C51.6742 3.61943 52.2118 4.17301 52.2118 4.84916V45.3493C52.2118 46.0397 51.6522 46.5993 50.9618 46.5993H41.0769V51.8161H51.5833V54.3161H0V51.8161H7.29543V29.2425C7.29543 28.5521 7.85507 27.9925 8.54543 27.9925H9.15988V20.554C7.94588 20.1932 6.73715 19.6087 5.6697 18.7595C3.62257 17.1308 2.16817 14.582 2.16817 11.0122C2.16817 7.45508 3.58579 4.86122 5.60997 3.17843ZM11.6599 20.9963V27.9925H12.7852V21.0016C12.6132 21.0104 12.4428 21.0148 12.2743 21.0148C12.0729 21.0148 11.8679 21.0087 11.6599 20.9963ZM14.6497 30.4925H9.79543V32.7572H14.6497V30.4925ZM14.6497 35.2572H9.79543V51.8161H14.6497V35.2572ZM38.5769 51.8161V46.5993H37.2962V49.5961H34.7962V46.5993H33.5155V51.8161H38.5769ZM33.578 19.8754H31.8064V21.8364C31.8064 21.9932 31.7775 22.1432 31.7248 22.2814C32.2202 22.0532 32.7486 21.8979 33.2956 21.8107L33.578 19.8754ZM35.8345 21.7258H49.7118V6.06751C47.0495 6.00725 42.837 5.95878 40.6299 6.09673C38.8194 6.20989 37.9472 7.76575 37.7425 8.64915L35.8345 21.7258ZM49.7118 24.2258H34.3889C33.3327 24.2258 32.4988 24.5615 31.9292 25.1406C31.3617 25.7176 30.9259 26.67 30.9259 28.1549V36.7521C30.9259 37.4424 30.3663 38.0021 29.6759 38.0021H28.6989V38.7131H49.7118V24.2258ZM49.7118 41.2131H26.7827V44.0993H49.7118V41.2131ZM9.15988 6.50647C9.15988 5.81611 9.71953 5.25647 10.4099 5.25647H13.103C14.061 5.25647 14.9296 5.70166 15.5149 6.52792C16.0712 7.31325 16.321 8.36225 16.321 9.56211C16.321 11.0104 15.7512 12.0234 15.0323 12.6601C14.689 12.9642 14.3303 13.1665 14.0204 13.295C13.7462 13.4087 13.4115 13.5052 13.103 13.5052H11.6599V15.5698H9.15988V6.50647ZM11.6599 11.0052H13.0108C13.0246 11.0006 13.0422 10.9942 13.0628 10.9856C13.151 10.9491 13.2649 10.8859 13.3747 10.7886C13.5622 10.6226 13.821 10.289 13.821 9.56211C13.821 8.67178 13.6306 8.19297 13.4748 7.97303C13.348 7.79401 13.2326 7.75647 13.103 7.75647H11.6599V11.0052ZM26.7752 17.4901C26.6334 17.5923 26.3684 17.8424 26.3684 18.6254C26.3684 19.508 26.5593 20.0131 26.7456 20.2655C26.8947 20.4675 27.0919 20.5864 27.4489 20.5864H29.3064V17.2859H27.4489C27.2825 17.2859 26.9908 17.3346 26.7752 17.4901ZM45.6029 35.067C44.8533 36.473 43.4944 37.5455 41.5743 37.9263C39.8988 38.2587 38.4201 37.8851 37.2737 37.041C36.153 36.2156 35.4199 34.9952 35.0725 33.7174C34.3946 31.2249 35.1094 27.9791 38.0915 26.6959C38.1257 26.6812 38.1605 26.6681 38.1958 26.6565C40.19 26.002 41.9813 26.2031 43.394 27.0371C44.7806 27.8557 45.6782 29.2107 46.0609 30.6497C46.4428 32.0861 46.3355 33.693 45.6029 35.067ZM39.0309 29.0139C37.5956 29.6634 37.0217 31.3583 37.4848 33.0614C37.7105 33.891 38.1638 34.5917 38.7561 35.0279C39.3227 35.4451 40.0837 35.6733 41.0879 35.4741C42.3009 35.2335 43.0135 34.6099 43.3969 33.8908C43.7973 33.1398 43.8843 32.1928 43.6448 31.2921C43.406 30.3941 42.8665 29.6289 42.123 29.19C41.4152 28.7721 40.4014 28.5779 39.0309 29.0139Z" fill="#7CACF3"/>
</svg>
