<svg width="52" height="53" viewBox="0 0 52 53" fill="none" xmlns="http://www.w3.org/2000/svg">
<path fill-rule="evenodd" clip-rule="evenodd" d="M37.7292 3.63325L30.7078 10.4741C30.5629 10.6153 30.4812 10.809 30.4812 11.0113V17.9555C30.4812 18.8948 30.0749 19.788 29.367 20.4053C27.148 22.3402 24.2996 24.8288 21.3232 27.4364C14.5101 33.4054 7.06066 39.9691 4.92651 41.9714C3.60701 43.2093 3.21481 44.5794 3.2524 45.7723C3.29181 47.0228 3.8028 48.0566 4.24448 48.529C4.42186 48.7187 5.03582 49.2529 5.96554 49.4852C6.84026 49.7038 8.11533 49.6885 9.75933 48.6313C10.15 48.3801 10.8641 47.7485 11.8698 46.7359C12.8473 45.7517 14.026 44.4846 15.3241 43.0402C17.919 40.1528 20.9583 36.5935 23.7596 33.2524C25.1486 31.5958 26.5829 30.059 27.8586 28.7017C27.9469 28.6077 28.0343 28.5148 28.1208 28.4228C29.2988 27.17 30.3036 26.1014 31.0316 25.2096C31.6323 24.4736 32.1275 23.8547 32.4726 23.4196C33.0366 22.7086 33.8733 22.256 34.7883 22.186L41.8718 21.6434C42.0364 21.6308 42.1773 21.5677 42.2795 21.4752C43.9566 19.9567 46.8353 17.0586 48.2856 14.6261C49.1297 13.2105 48.7094 11.8045 47.8926 10.6614C47.864 10.6213 47.8407 10.607 47.8253 10.5997C47.8066 10.5908 47.7735 10.5805 47.721 10.5817C47.608 10.5843 47.4421 10.6419 47.3022 10.7901L43.6891 14.6178C42.8708 15.5085 41.7377 15.6667 40.7841 15.5097C39.8325 15.353 38.8992 14.872 38.1589 14.2382C37.421 13.6064 36.7689 12.7305 36.5296 11.6973C36.2765 10.604 36.516 9.44088 37.3952 8.44195L37.4119 8.42329L41.2579 4.22627C41.312 4.16732 41.3546 4.1012 41.3836 4.03636C41.4122 3.9723 41.4224 3.92098 41.4247 3.88915C40.891 3.47694 40.1543 3.2608 39.3912 3.25038C38.6385 3.24011 38.0383 3.43071 37.7292 3.63325ZM39.4253 0.750616C40.6123 0.766821 41.9409 1.10393 43.0107 1.95598C43.7101 2.51297 43.9661 3.31014 43.9199 4.04421C43.8755 4.74896 43.5607 5.41378 43.1011 5.91527L39.2646 10.102C38.9296 10.4867 38.8928 10.8206 38.9652 11.1333C39.052 11.5084 39.3296 11.9493 39.7848 12.3391C40.2378 12.727 40.7613 12.9723 41.1902 13.0429C41.6139 13.1127 41.7803 13.0007 41.8495 12.9249L41.8645 12.9086L45.4842 9.07402C46.5692 7.92459 48.731 7.53443 49.9268 9.20803C51.0352 10.7595 51.9967 13.2837 50.4329 15.9065C48.7805 18.6778 45.6638 21.7835 43.9575 23.3284C43.4243 23.8112 42.7528 24.0833 42.0628 24.1361L34.9792 24.6787C34.7686 24.6948 34.5688 24.7998 34.4313 24.9732C34.2516 25.1997 34.0324 25.4747 33.7795 25.7892L37.2309 28.4352L47.5321 35.8911C48.1229 36.2527 48.7679 36.9213 49.3236 37.701C49.9196 38.5371 50.4941 39.6139 50.8415 40.8387C51.5524 43.3458 51.2897 46.4549 48.4455 49.1632C45.7326 51.7465 42.9791 52.3962 40.778 52.2241C39.6979 52.1397 38.7731 51.8594 38.0715 51.5408C37.7211 51.3817 37.4141 51.2074 37.1632 51.0326C36.9651 50.8945 36.7122 50.6951 36.5255 50.4418L24.7052 36.0131C22.1746 39.0171 19.5075 42.1255 17.1836 44.7113C15.8726 46.17 14.6628 47.4715 13.6436 48.4976C12.6526 49.4953 11.7621 50.3156 11.1115 50.734C8.9078 52.1512 6.92681 52.3024 5.35942 51.9107C3.84704 51.5327 2.83286 50.6797 2.41834 50.2364C1.52801 49.2841 0.810519 47.6561 0.75364 45.8511C0.694947 43.9885 1.33867 41.9095 3.21598 40.1482C5.29448 38.1981 12.2356 32.0778 18.7783 26.3424C18.7321 26.2875 18.684 26.2305 18.634 26.1715C18.1477 25.5972 17.5022 24.8511 16.7877 24.033C15.3595 22.3979 13.668 20.4896 12.45 19.1233C12.3634 19.0261 12.2529 18.9536 12.1253 18.9121L7.18556 17.3032C6.38958 17.044 5.72433 16.4876 5.32843 15.75L1.80588 9.18722C1.14107 7.94862 1.34794 6.42299 2.31858 5.40615L4.65765 2.95573C5.64718 1.91909 7.19893 1.65296 8.47733 2.30063L14.6786 5.44239C15.4693 5.84297 16.0621 6.5491 16.3196 7.39722L17.9845 12.8798C18.0235 13.0083 18.0964 13.124 18.1954 13.2148L25.8093 20.1917C26.4864 19.6005 27.1279 19.0408 27.724 18.521C27.8875 18.3785 27.9812 18.1723 27.9812 17.9555V11.0113C27.9812 10.1347 28.3353 9.2952 28.9632 8.68345L36.0549 1.77412C36.0941 1.73598 36.1357 1.70045 36.1795 1.66775C37.0389 1.02624 38.261 0.73472 39.4253 0.750616ZM23.9149 21.8466L16.5065 15.058C16.0772 14.6647 15.7615 14.1633 15.5924 13.6062L13.9275 8.12363C13.8681 7.92791 13.7313 7.76496 13.5488 7.67252L7.34749 4.53076C7.05247 4.38129 6.69437 4.44271 6.46602 4.68193L4.12695 7.13235C3.90296 7.36701 3.85522 7.71908 4.00864 8.00491L7.53119 14.5677C7.62255 14.7379 7.77607 14.8663 7.95975 14.9261L12.8995 16.535C13.444 16.7123 13.9325 17.0293 14.3162 17.4597C15.5371 18.8294 17.2348 20.7446 18.6706 22.3884C19.388 23.2098 20.0433 23.9671 20.5419 24.5559C20.5819 24.6032 20.621 24.6495 20.6591 24.6947C21.7802 23.7131 22.8747 22.7557 23.9149 21.8466ZM26.3464 34.0714L28.4628 36.6549L34.6617 29.6157L32.18 27.713C31.5269 28.4504 30.767 29.2583 29.9652 30.1109C29.8708 30.2112 29.7758 30.3122 29.6803 30.4138C28.6168 31.5454 27.4732 32.77 26.3464 34.0714ZM36.6714 31.1164L30.0683 38.6146L38.4865 48.8905C38.494 48.8997 38.5014 48.909 38.5087 48.9184C38.5233 48.9307 38.5501 48.9519 38.5925 48.9815C38.7033 49.0587 38.8752 49.1601 39.1052 49.2645C39.5645 49.4731 40.2066 49.6718 40.9728 49.7317C42.4643 49.8483 44.5209 49.4482 46.7215 47.3527C48.7909 45.3822 48.9352 43.2802 48.4363 41.5208C48.1787 40.6124 47.7441 39.7921 47.2878 39.1521C46.811 38.483 46.3867 38.1157 46.2172 38.0176C46.1805 37.9963 46.145 37.9733 46.1106 37.9484L36.6714 31.1164Z" fill="#7CACF3"/>
</svg>
