<svg width="224" height="254" fill="none" xmlns="http://www.w3.org/2000/svg"><path d="M28.549 253.036a5.603 5.603 0 01-5.602-5.601V155.33a5.603 5.603 0 015.602-5.601 5.603 5.603 0 015.602 5.601v92.105a5.601 5.601 0 01-5.602 5.601zm166.9-85.825a5.603 5.603 0 01-5.602-5.601V6.566a5.603 5.603 0 015.602-5.602 5.603 5.603 0 015.601 5.602V161.61a5.601 5.601 0 01-5.601 5.601zm-83.45 85.825a5.604 5.604 0 01-5.602-5.601V79.168a5.604 5.604 0 015.602-5.602 5.603 5.603 0 015.601 5.602v168.267a5.603 5.603 0 01-5.601 5.601z" fill="#000"/><path d="M111.999 84.77c-15.304 0-27.756-12.45-27.756-27.756 0-15.307 12.45-27.756 27.756-27.756 15.306 0 27.756 12.45 27.756 27.756 0 15.306-12.45 27.756-27.756 27.756zm0-44.306c-9.128 0-16.553 7.425-16.553 16.553 0 9.127 7.425 16.552 16.553 16.552s16.552-7.425 16.552-16.553c0-9.127-7.424-16.552-16.552-16.552zm-83.45 120.468c-15.304 0-27.756-12.45-27.756-27.756 0-15.304 12.45-27.756 27.756-27.756 15.306 0 27.756 12.45 27.756 27.756 0 15.306-12.453 27.756-27.756 27.756zm0-44.309c-9.128 0-16.553 7.425-16.553 16.553s7.425 16.553 16.553 16.553 16.553-7.425 16.553-16.553-7.425-16.553-16.553-16.553zm166.9 94.897c-15.304 0-27.754-12.45-27.754-27.756 0-15.304 12.45-27.753 27.754-27.753 15.306 0 27.756 12.449 27.756 27.753 0 15.303-12.45 27.756-27.756 27.756zm0-44.309c-9.128 0-16.55 7.422-16.55 16.55s7.422 16.553 16.55 16.553c9.127 0 16.552-7.425 16.552-16.553s-7.425-16.55-16.552-16.55z" fill="#000"/><path d="M28.549 116.623a5.603 5.603 0 01-5.602-5.601V6.566A5.604 5.604 0 0128.55.964a5.604 5.604 0 015.602 5.602v104.456a5.6 5.6 0 01-5.602 5.601zm83.45-76.159a5.604 5.604 0 01-5.602-5.602V6.566a5.604 5.604 0 015.602-5.602 5.603 5.603 0 015.601 5.602v28.296a5.603 5.603 0 01-5.601 5.602zm83.45 212.572a5.603 5.603 0 01-5.602-5.601v-41.517a5.603 5.603 0 0111.203 0v41.517a5.603 5.603 0 01-5.601 5.601z" fill="#000"/></svg>