<svg width="30" height="30" fill="none" xmlns="http://www.w3.org/2000/svg"><path fill-rule="evenodd" clip-rule="evenodd" d="M8.954.421C10.517.349 11.015.333 15 .333c3.984 0 4.483.017 6.046.088 1.562.07 2.629.32 3.562.681.977.37 1.864.947 2.598 1.694a7.164 7.164 0 011.69 2.596c.363.933.61 2 .683 3.56.072 1.566.088 2.065.088 6.048 0 3.984-.018 4.482-.088 6.046-.07 1.56-.32 2.627-.683 3.56a7.195 7.195 0 01-1.69 2.599 7.191 7.191 0 01-2.598 1.69c-.933.363-2 .611-3.56.683-1.565.072-2.064.088-6.048.088s-4.482-.017-6.046-.088c-1.56-.07-2.627-.32-3.56-.682a7.196 7.196 0 01-2.6-1.691 7.189 7.189 0 01-1.691-2.597c-.362-.934-.61-2-.682-3.56C.35 19.48.333 18.982.333 15c0-3.984.018-4.483.088-6.046.071-1.562.32-2.629.682-3.562a7.195 7.195 0 011.693-2.598 7.19 7.19 0 012.596-1.692c.933-.361 2-.609 3.56-.681h.002zm11.973 2.64c-1.547-.07-2.01-.085-5.927-.085-3.916 0-4.38.014-5.927.085-1.43.065-2.206.304-2.724.505a4.554 4.554 0 00-1.686 1.096A4.55 4.55 0 003.567 6.35c-.202.517-.44 1.293-.506 2.724-.07 1.547-.085 2.01-.085 5.927 0 3.916.015 4.38.086 5.926.065 1.431.304 2.207.505 2.724.234.636.61 1.214 1.096 1.687.473.487 1.05.861 1.686 1.096.518.201 1.294.44 2.724.505 1.547.071 2.01.086 5.927.086 3.918 0 4.38-.015 5.927-.086 1.43-.065 2.207-.304 2.724-.505a4.555 4.555 0 001.686-1.096 4.553 4.553 0 001.096-1.687c.202-.517.44-1.293.506-2.724.07-1.546.085-2.01.085-5.926 0-3.916-.015-4.38-.085-5.927-.066-1.43-.304-2.207-.506-2.724a4.555 4.555 0 00-1.096-1.687 4.55 4.55 0 00-1.686-1.096c-.517-.201-1.293-.44-2.724-.505zm-7.8 16.46a4.892 4.892 0 005.333-7.981 4.894 4.894 0 10-5.333 7.981zM9.669 9.669A7.539 7.539 0 1120.331 20.33 7.539 7.539 0 019.669 9.67zm14.542-1.085a1.781 1.781 0 00-1.25-3.08 1.783 1.783 0 101.25 3.08z" fill="#7CACF3"/></svg>