<svg width="23" height="23" fill="none" xmlns="http://www.w3.org/2000/svg"><path d="M16.438 14.465h-1.039l-.368-.355a8.51 8.51 0 002.065-5.562A8.548 8.548 0 008.548 0 8.547 8.547 0 000 8.548a8.548 8.548 0 008.548 8.548 8.51 8.51 0 005.562-2.065l.355.368v1.039L21.041 23 23 21.04l-6.562-6.575zm-7.89 0A5.91 5.91 0 012.63 8.548 5.91 5.91 0 018.548 2.63a5.91 5.91 0 015.917 5.918 5.91 5.91 0 01-5.917 5.917z" fill="#3E4751"/><path d="M12 9.2H9.2V12H7.8V9.2H5V7.8h2.8V5h1.4v2.8H12v1.4z" fill="#3E4751"/></svg>