<svg width="784" height="316" fill="none" xmlns="http://www.w3.org/2000/svg"><path fill-rule="evenodd" clip-rule="evenodd" d="M318.5.873c0 .643-.218.654-12.25.654H294V3.16h-5.41c-3.522 0-5.339.114-5.207.327.115.185-.159.326-.633.326-.461 0-.837-.147-.837-.326 0-.18-.735-.327-1.633-.327-1.525 0-1.633.055-1.633.817v.816h-5.421c-5.145 0-5.429.033-5.592.654-.176.675-2.301.931-5.811.698-2.56-.17-4.736.265-4.736.949 0 .564-.319.625-3.675.711-3.53.088-3.679.12-3.781.827-.099.716-.207.735-4 .735-3.881 0-3.898.002-3.898.772 0 .755-.053.77-2.286.61-1.583-.114-2.287-.049-2.287.208 0 .204-.22.37-.49.37s-.49-.147-.49-.327a.33.33 0 00-.333-.327c-.19 0-.247.345-.13.807l.202.806-3.871.092c-3.704.088-3.877.123-3.973.81-.094.66-.247.705-1.96.58-2.734-.199-4.308.117-4.308.868 0 .602-.727.803-2.45.68-1.75-.126-3.508.323-3.669.937-.139.533-.49.633-2.33.672-1.192.024-1.837.108-1.433.186 2.007.386.676 1.053-2.287 1.145l-3.021.094-.207 1.797h-2.895c-2.754 0-2.901.036-3.001.735-.098.69-.239.73-2.309.647-2.162-.086-2.205-.072-2.205.735 0 .802-.061.823-2.287.823-2.221 0-2.286.024-2.286.816 0 .795-.064.817-2.318.817-2.043 0-2.337.078-2.488.653-.127.486-.445.654-1.234.654-1.992 0-3.107.367-3.107 1.021 0 .516-.255.612-1.633.612-1.525 0-1.634.055-1.634.817 0 .792-.065.816-2.286.816-2.069 0-2.287.062-2.287.654 0 .518-.22.653-1.062.657-2.231.008-3.511.378-3.511 1.02 0 .507-.253.609-1.501.609-1.225 0-1.531.12-1.672.654-.137.527-.445.653-1.609.653-1.37 0-1.427.037-1.233.817.196.78.139.816-1.258.816-2.329 0-3.507.33-3.507.985 0 .61-1.977 1.206-2.642.794-.188-.115-.423.098-.521.475-.149.564-.431.686-1.603.686-1.423 0-1.425 0-1.218 1.03.153.773.104.969-.198.783-.854-.528-4.598.145-4.598.827 0 .525-.239.627-1.47.627-1.35 0-1.47.067-1.47.817 0 .763-.109.816-1.634.816-1.523 0-1.633.055-1.633.817 0 .75-.12.817-1.47.817-1.252 0-1.47.096-1.47.653 0 .657-.492.806-2.205.666-.588-.047-.735.11-.735.78 0 .79-.096.841-1.633.841-1.525 0-1.634.053-1.634.816 0 .75-.12.817-1.47.817-1.253 0-1.47.096-1.47.653 0 .556-.232.66-1.551.697-.854.026-1.221.11-.817.187 1.884.362.833 1.403-1.419 1.403-1.84 0-2.178.09-2.317.621-.115.443-.572.682-1.601.837-1.135.169-1.441.351-1.441.849 0 .459-.227.633-.823.633-.715 0-.796.108-.617.817.198.79.153.816-1.464.816-1.437 0-1.67.09-1.67.637 0 .525-.267.65-1.549.735-1.615.104-2.324.96-1.34 1.625.282.19-.2.262-1.357.201-1.648-.086-1.805-.033-1.901.641-.076.531-.323.735-.9.735-.629 0-.793.169-.793.816 0 .75-.12.817-1.47.817-1.351 0-1.47.067-1.47.817 0 .769-1.28 1.13-3.021.855-.135-.022-.245.255-.245.615 0 .698-.635.843-3.022.688-1.117-.072-1.225-.006-1.225.759v.839H87.22v1.634h-5.39c-5.149 0-5.39.028-5.39.645 0 .612-.27.649-5.308.735-5.225.088-5.311.102-5.413.825-.104.727-.159.735-5.34.735-4.958 0-5.242.034-5.405.653-.159.61-.445.653-4.337.653-5.07 0-6.21.188-6.21 1.02 0 .563-.329.618-4.002.673-2.201.033-4.59.07-5.308.082-1.1.018-1.323.14-1.41.757-.109.753-2.766.964-9.29.739-1.367-.047-1.55.027-1.55.625 0 .749-1.015.888-5.166.7-3.4-.153-5.614.235-5.614.982 0 .517-.247.635-1.39.66-2.894.069-3.016.102-3.126.867-.074.533-.323.735-.897.735-.63 0-.794.17-.794.817 0 .75-.12.817-1.47.817H2.94v1.47c0 1.35-.067 1.47-.817 1.47-.792 0-.816.065-.816 2.286 0 2.07-.062 2.287-.654 2.287-.651 0-.653.218-.653 54.553 0 54.337.002 54.554.653 54.554.437 0 .654.218.654.653 0 .435-.217.653-.654.653-.479 0-.653.217-.653.817s.174.817.653.817c.617 0 .654.218.654 3.92 0 2.156.11 3.903.245 3.881 1.312-.208 1.388-.035 1.388 3.142 0 3.093.002 3.103.817 3.103.792 0 .816.066.816 2.287 0 2.07.062 2.287.654 2.287.665 0 .775.339.663 2.041-.05.752.072.899.74.899.68 0 .832.194 1.008 1.306.135.846.38 1.307.696 1.307.321 0 .486.329.486.98 0 .539.11.962.245.941 1.276-.2 1.778.072 1.58.858-.112.451-.092.8.047.778 1.064-.174 1.366.116 1.576 1.506.194 1.293.32 1.47 1.037 1.47.695 0 .795.121.662.817-.131.684-.031.817.615.817.541 0 .77.186.77.624 0 .474.316.678 1.308.846 1.102.186 1.307.343 1.307 1.008 0 .658.161.788.98.788.763 0 .98.145.98.654 0 .435.218.653.653.653.478 0 .653.218.653.817 0 .747.123.816 1.434.816 1.259 0 1.46.102 1.64.817.132.527.434.817.854.817.429 0 .646.22.646.653 0 .566.218.653 1.633.653 1.537 0 1.633.051 1.633.842 0 .714.135.831.9.782 2.52-.166 3.347-.003 3.347.663 0 .592.218.653 2.287.653 2.37 0 3.505 1.027 1.55 1.403-.403.078.038.161.98.186 1.445.037 1.716.141 1.716.657 0 .729 1.133 1.021 3.96 1.021 1.702 0 1.92.074 1.92.653 0 .48.217.654.817.654.653 0 .817.163.817.816 0 .793.065.817 2.286.817 2.222 0 2.287.023 2.287.817 0 .763.11.816 1.633.816 1.38 0 1.634.096 1.634.613 0 .676 1.121 1.021 3.328 1.021 1.147 0 1.274.079 1.184.735-.092.663.051.745 1.449.833 1.013.067 1.552.249 1.552.529 0 .463 1.642.833 3.712.839 1.137.002 1.25.079 1.121.745-.129.688-.037.737 1.249.661 1.215-.071 1.401.009 1.491.646.079.549.318.726.978.718.48-.006.788.127.684.296-.115.186.42.223 1.36.094 1.373-.188 1.573-.137 1.724.439.096.364.478.678.868.711.382.034.99.093 1.35.132.359.039 2.013.086 3.675.104l3.02.031v1.47c0 1.35.067 1.47.818 1.47.762 0 .817.11.817 1.633 0 1.525.053 1.634.816 1.634.75 0 .817.12.817 1.47 0 1.239.1 1.47.635 1.47.527 0 .653.267.735 1.551.086 1.325.208 1.568.835 1.656.635.09.735.3.735 1.552 0 1.325.069 1.447.817 1.447.653 0 .816.164.816.817 0 .6.174.817.654.817.557 0 .653.218.653 1.47 0 1.351.067 1.47.817 1.47.653 0 .816.163.816.816 0 .654.164.817.817.817.6 0 .817.174.817.653 0 .425.218.654.622.654.5 0 .668.324.848 1.633.18 1.309.347 1.633.847 1.633.406 0 .623.229.623.654 0 .428.218.653.63.653.405 0 .668.263.734.735.079.543.322.733.93.727.666-.006.823.151.817.817-.006.659.172.845.89.927.635.073.899.289.899.735 0 .414.226.632.653.632.47 0 .653.217.653.78 0 .674.2.809 1.47.999 1.162.175 1.47.355 1.47.855 0 .457.227.633.817.633.653 0 .817.163.817.817 0 .69.151.816.98.816.761 0 .98.147.98.65 0 .504.29.696 1.306.859.986.157 1.307.358 1.307.819 0 .435.237.612.817.612.659 0 .816.162.816.84 0 .794.09.839 1.552.788 2.777-.094 3.022-.041 3.022.659 0 .435.218.653.653.653.478 0 .653.217.653.817 0 .449.111.8.245.778 1.479-.233 2.657.098 2.753.774.091.627.334.749 1.657.833 1.285.085 1.552.21 1.552.735 0 .571.239.637 2.287.637 2.221 0 2.286.024 2.286.816 0 .799.055.817 2.45.817 2.177 0 2.45.069 2.45.613 0 .777 1.14 1.02 4.778 1.02 2.519 0 2.736.053 2.736.654 0 .641.218.653 11.596.653 11.379 0 11.597-.012 11.597-.653 0-.56.223-.656 1.552-.67 7.535-.08 7.752-.104 7.862-.882.096-.674.276-.735 2.205-.735 2.023 0 2.101-.029 2.101-.817 0-.882.48-1.018 3.046-.849 1.027.067 1.28-.039 1.427-.596.149-.57.431-.678 1.772-.678 1.475 0 1.595-.061 1.595-.802 0-.762.108-.807 2.205-.897 2.003-.089 2.215-.165 2.309-.833.076-.532.323-.735.9-.735.576 0 .793-.179.793-.653 0-.557.218-.653 1.47-.653 1.331 0 1.47-.074 1.47-.78 0-.674.2-.809 1.47-.999.92-.14 1.47-.389 1.47-.669 0-.245.33-.494.735-.551.551-.078.71-.288.633-.84-.107-.769.24-.88 2.307-.745.804.053.898-.049.898-.984 0-.935.084-1.025.817-.886.626.12.816.02.816-.429 0-.359.286-.625.735-.69.527-.075.764-.359.839-1.002.072-.635.288-.899.735-.899.413 0 .631-.226.631-.653 0-.478.217-.653.817-.653.653 0 .817-.164.817-.817 0-.653.163-.817.816-.817.654 0 .817-.163.817-.816 0-.654.163-.817.817-.817.659 0 .816-.163.816-.837 0-.68.137-.819.735-.735.552.076.762-.08.841-.633.066-.472.329-.735.735-.735.454 0 .629-.227.629-.817 0-.653.164-.816.817-.816.6 0 .817-.174.817-.654 0-.435.218-.653.653-.653.557 0 .653-.218.653-1.47 0-1.351.066-1.47.817-1.47.647 0 .817-.165.817-.794 0-.574.202-.823.735-.898.61-.088.751-.339.835-1.493.081-1.123.222-1.388.735-1.388.543 0 .635-.235.635-1.634 0-1.523.053-1.633.816-1.633.762 0 .817-.11.817-1.633 0-1.525.055-1.634.817-1.634.749 0 .816-.12.816-1.47 0-1.253.098-1.47.654-1.47.557 0 .653-.218.653-1.47 0-1.351.067-1.47.817-1.47.653 0 .816-.163.816-.816v-.817h347.645l-.206.817c-.178.71-.096.816.617.816.798 0 .824.07.824 2.154 0 1.879.084 2.175.654 2.324.528.139.653.447.653 1.604 0 1.305.073 1.432.806 1.432.719 0 .829.173 1.021 1.633.135 1.013.378 1.633.643 1.633.233 0 .472.331.529.735.066.472.366.772.839.84.637.091.735.298.735 1.551 0 1.327.068 1.448.817 1.448.645 0 .817.165.817.786 0 .598.141.749.594.629.488-.127.649.13.898 1.419.245 1.272.447 1.596 1.039 1.68.405.057.735.314.735.572 0 .271.319.467.76.467.659 0 .741.131.618.98-.13.876-.053.98.709.98.692 0 .853.155.853.817 0 .653.164.816.817.816.735 0 .817.131.817 1.307 0 1.074.112 1.307.629 1.307.406 0 .669.263.735.733.083.573.412.8 1.494 1.027 1.031.218 1.388.449 1.388.9 0 .425.239.606.795.606.626 0 .818.194.898.899.075.643.312.927.839 1.002.472.066.735.329.735.735 0 .406.225.631.631.631s.668.263.735.735c.092.657.288.735 1.844.735 1.723 0 1.739.008 1.561.898-.149.739-.065.899.464.899.427 0 .645.22.645.653 0 .508.218.653.98.653.753 0 .98.149.98.633 0 .501.31.68 1.47.854 1.145.173 1.47.357 1.47.837 0 .512.247.616 1.47.616 1.35 0 1.47.066 1.47.817 0 .762.11.817 1.633.817 1.525 0 1.634.053 1.634.816 0 .788.077.817 2.123.817 1.942 0 2.123.059 2.123.688 0 .494.147.633.517.49 1.227-.47 3.144.174 2.985 1.003-.139.732-.062.779 1.196.706 3.099-.174 4.723.033 4.876.625.143.543.153.543.188 0 .055-.817 1.345-.76 1.345.059 0 .439-.274.674-.898.768-.494.075.818.159 2.917.185 3.679.047 3.82.076 3.961.784l.143.735.243-.735c.32-.965 1.631-1.041 1.38-.081-.169.643-.01.653 9.925.653 9.879 0 10.096-.014 10.096-.653 0-.67 2.052-.848 7.595-.658 1.462.049 1.551.006 1.551-.788 0-.823.049-.841 2.287-.841 2.221 0 2.287-.024 2.287-.817 0-.798.053-.816 2.45-.816 2.233 0 2.45-.059 2.45-.654 0-.586.218-.653 2.123-.653 2.046 0 2.123-.029 2.123-.817 0-.763.109-.816 1.634-.816 1.523 0 1.633-.055 1.633-.817 0-.739.129-.817 1.337-.817 1.062 0 1.372-.134 1.509-.653.11-.423.445-.653.949-.653.429 0 .76-.111.74-.245-.182-1.152.075-1.389 1.508-1.389 1.252 0 1.47-.096 1.47-.653 0-.429.217-.653.635-.653.349 0 .725-.147.835-.327.111-.18.488-.327.837-.327.348 0 .633-.22.633-.49 0-.3.307-.49.795-.49.626 0 .818-.192.898-.898.081-.694.273-.892.839-.872.494.017.735-.163.735-.549 0-.347.29-.617.735-.68.527-.075.764-.359.839-1.002.072-.635.288-.899.735-.899.413 0 .631-.226.631-.653 0-.478.218-.653.817-.653.653 0 .816-.164.816-.817 0-.653.164-.817.817-.817.653 0 .817-.163.817-.816 0-.75.12-.817 1.47-.817h1.47v-1.47c0-1.351.067-1.47.816-1.47.654 0 .817-.163.817-.817 0-.598.174-.816.653-.816.437 0 .654-.217.654-.654 0-.479.218-.653.816-.653.654 0 .817-.163.817-.817 0-.582.176-.816.615-.816.481 0 .667-.325.837-1.47.175-1.162.355-1.47.855-1.47.457 0 .633-.227.633-.817 0-.643.167-.817.78-.817.67 0 .81-.2.994-1.435.157-1.043.39-1.482.854-1.603.516-.136.639-.453.639-1.668 0-1.382.063-1.5.816-1.5.75 0 .817-.119.817-1.47 0-1.252.096-1.47.653-1.47.592 0 .654-.217.654-2.287 0-2.221.024-2.287.816-2.287.654 0 .817-.163.817-.816v-.817l22.132-.029c12.172-.016 22.811-.006 23.642.021 1.415.049 1.501.004 1.366-.706-.139-.721-.069-.75 1.511-.642 1.586.107 1.656.076 1.656-.718 0-.758.134-.839 1.551-.931l1.552-.098.1-1.552c.082-1.286.208-1.552.735-1.552.627 0 .635-.708.635-52.266 0-52.049-.002-52.267-.653-52.267-.586 0-.654-.218-.654-2.123 0-2.048-.03-2.124-.816-2.124-.762 0-.817-.108-.817-1.633s-.055-1.633-.817-1.633c-.763 0-.816-.109-.816-1.634 0-1.4-.092-1.633-.635-1.633-.513 0-.654-.267-.735-1.388-.084-1.154-.225-1.407-.835-1.493-.533-.075-.735-.324-.735-.898 0-.568-.18-.794-.633-.794-.502 0-.68-.309-.854-1.47-.173-1.144-.357-1.47-.837-1.47-.541 0-.79-.531-.655-1.389.022-.134-.319-.245-.754-.245-.565 0-.835-.212-.937-.735l-.141-.735-.046.735c-.09 1.497-1.023.827-1.023-.735 0-1.339-.07-1.47-.793-1.47-.577 0-.824-.202-.9-.735-.067-.473-.367-.773-.839-.839-.472-.067-.735-.33-.735-.735 0-.406-.225-.631-.631-.631s-.668-.263-.735-.735c-.075-.526-.359-.765-1.002-.837-.613-.071-.899-.292-.899-.698 0-.455-.347-.647-1.47-.815-1.28-.192-1.47-.324-1.47-1.018 0-.562-.181-.797-.616-.797-.339 0-.69-.292-.786-.653-.139-.533-.445-.653-1.67-.653-1.383 0-1.501-.064-1.501-.817 0-.584-.176-.817-.617-.817-.388 0-.696-.306-.824-.816-.18-.719-.38-.817-1.67-.817-1.244 0-1.462-.098-1.462-.653 0-.556-.217-.654-1.47-.654-1.35 0-1.47-.067-1.47-.816 0-.748-.121-.817-1.448-.817-1.249 0-1.46-.1-1.55-.729-.067-.465-.343-.743-.759-.763-2.332-.109-2.45-.147-2.45-.795 0-.557-.218-.653-1.47-.653-1.433 0-1.689-.237-1.509-1.388.021-.135-.696-.245-1.594-.245-1.534 0-1.634-.051-1.634-.837 0-.507-.136-.75-.347-.621-.737.457-2.593-.172-2.593-.878 0-.467-.151-.615-.492-.484-1.049.402-2.448-.159-2.448-.978 0-.714-.132-.776-1.633-.776-1.415 0-1.633-.087-1.633-.653 0-.584-.217-.653-2.083-.653-2.062 0-2.084-.01-2.284-1.001-.109-.551-.345-.912-.525-.802-.635.392-2.558-.202-2.724-.841-.139-.533-.473-.623-2.317-.623-2.066 0-2.154-.033-2.154-.796 0-.621-.163-.788-.735-.758-1.856.102-2.532-.083-2.532-.688 0-.48-.181-.573-.865-.441-.65.123-.799.058-.603-.259.205-.335-.089-.376-1.421-.198-1.643.218-1.684.202-1.684-.606 0-.8-.071-.827-2.101-.827-1.929 0-2.109-.06-2.205-.735-.096-.674-.3-.743-2.472-.83-2.271-.093-2.369-.13-2.369-.9 0-.775-.077-.802-2.286-.802-2.069 0-2.287-.063-2.287-.653 0-.592-.218-.654-2.264-.654-2.099 0-2.271-.053-2.368-.735-.098-.69-.282-.741-2.963-.83-2.589-.084-2.858-.154-2.858-.734 0-.659-1.65-.85-6.534-.753-.808.016-1.139-.035-.735-.116.458-.09.735-.382.735-.774 0-.576-.253-.631-2.917-.631-2.777 0-2.922-.035-3.022-.735-.1-.706-.249-.739-3.779-.827-3.406-.086-3.675-.14-3.675-.735 0-.606-.241-.643-4.083-.643h-4.084v-1.633h-9.146v-.817c0-.653-.164-.817-.817-.817-.653 0-.817.164-.817.817 0 .508-.185.817-.49.817-.298 0-.49-.306-.49-.784 0-.645-.159-.778-.898-.75-5.562.196-10.208-.13-10.208-.716 0-.917-1.583-1.048-12.12-1-14.63.07-13.687.126-13.687-.834 0-.45-.127-.816-.282-.816-.155 0-.21.367-.124.816.126.664.026.817-.537.817-.519 0-.69-.202-.69-.817 0-.598-.174-.816-.654-.816-.435 0-.653-.217-.653-.654 0-.567-.218-.653-1.633-.653-1.525 0-1.634-.055-1.634-.817 0-.653-.163-.816-.816-.816-.509 0-.817-.186-.817-.49 0-.272-.29-.49-.653-.49-.36 0-.654-.147-.654-.327 0-.18-.367-.327-.816-.327-.599 0-.817-.175-.817-.653 0-.566-.218-.653-1.633-.653-1.525 0-1.634-.055-1.634-.817 0-.75-.12-.817-1.47-.817-1.253 0-1.47-.096-1.47-.653s-.218-.653-1.47-.653c-1.351 0-1.47-.066-1.47-.817 0-.75-.12-.817-1.47-.817-1.351 0-1.47-.067-1.47-.816 0-.69-.151-.817-.98-.817-.763 0-.98-.145-.98-.653 0-.545-.218-.654-1.306-.654-1.064 0-1.307-.114-1.307-.618 0-.727-.611-1.015-2.15-1.015-.974 0-1.117-.104-1.117-.817 0-.792-.065-.816-2.286-.816-2.371 0-3.506-1.027-1.552-1.403.404-.079.037-.16-.817-.186-1.425-.041-1.551-.112-1.551-.86 0-.751-.119-.818-1.47-.818-1.236 0-1.47-.1-1.47-.633 0-.488-.207-.62-.897-.572-.706.049-.922-.096-1.004-.673-.082-.576-.382-.78-1.389-.94-.935-.15-1.284-.363-1.284-.787 0-.448-.369-.63-1.633-.805-1.309-.18-1.633-.347-1.633-.847 0-.52-.243-.623-1.448-.623-1.253 0-1.46-.1-1.55-.735-.089-.612-.34-.753-1.494-.835-1.123-.082-1.388-.223-1.388-.735 0-.545-.235-.635-1.634-.635-1.523 0-1.633-.055-1.633-.817 0-.75-.12-.816-1.47-.816s-1.47-.066-1.47-.817c0-.75-.12-.817-1.47-.817-1.252 0-1.47-.096-1.47-.653 0-.566-.218-.653-1.633-.653-1.525 0-1.634-.055-1.634-.817 0-.75-.12-.817-1.47-.817-1.351 0-1.47-.067-1.47-.816 0-.794-.067-.817-2.264-.817-2.099 0-2.272-.053-2.368-.735-.09-.627-.331-.749-1.656-.835-1.401-.09-1.552-.176-1.552-.898 0-.729-.128-.8-1.47-.8-1.253 0-1.47-.095-1.47-.652 0-.566-.218-.653-1.633-.653-1.247 0-1.633-.12-1.633-.498 0-.63-1.307-1.136-2.94-1.136-1.056 0-1.278-.118-1.366-.73-.066-.464-.343-.74-.758-.76-2.333-.11-2.45-.149-2.45-.796 0-.566-.218-.654-1.633-.654-1.38 0-1.633-.094-1.633-.612 0-.658-1.117-1.021-3.144-1.021-.842 0-1.103-.14-1.103-.584 0-.386-.249-.588-.735-.592-3.587-.03-3.838-.094-3.838-.99 0-.821-.06-.852-1.376-.676-2.132.286-3.198-.033-3.198-.954 0-.743-.096-.777-2.286-.777-2.069 0-2.287-.062-2.287-.654 0-.567-.218-.653-1.633-.653-1.525 0-1.634-.055-1.634-.817 0-.792-.065-.816-2.286-.816-2.228 0-2.287-.021-2.287-.827 0-.811-.039-.823-2.042-.688-2.876.194-4.165-.059-4.165-.815 0-.533-.267-.61-2.123-.61-2.015 0-2.123-.039-2.123-.774 0-.835-1.058-1.176-3.675-1.182-.842-.004-1.225-.15-1.225-.47 0-.588-2.969-1.004-4.87-.682-1.263.213-1.337.18-1.337-.579 0-.848-1.021-1.201-3.512-1.209-.829-.004-1.061-.143-1.061-.635 0-.68-2.193-1.146-4.574-.97-2.309.17-2.94.014-2.94-.731 0-.682-.088-.696-4.001-.56-2.201.076-3.598.086-3.104.023.709-.09.899-.286.899-.93v-.813l-3.185.04c-4.482.054-4.329.078-4.329-.655 0-.608-.218-.653-3.103-.653-2.885 0-3.103-.047-3.103-.654 0-.45-.229-.663-.735-.684a26.009 26.009 0 01-1.389-.104c-.359-.04-2.076-.098-3.814-.132-3.011-.056-3.168-.096-3.268-.795-.102-.724-.188-.735-5.413-.824-5.038-.086-5.308-.123-5.308-.735 0-.613-.237-.646-4.573-.646-4.525 0-4.574-.008-4.574-.735 0-.643-.173-.737-1.388-.757-.764-.012-4.502-.049-8.306-.082-6.908-.059-6.921-.061-7.025-.794l-.104-.735-7.677-.037c-19.653-.098-18.62-.055-18.62-.78 0-.645-.218-.653-18.324-.653-18.048 0-18.326.01-18.495.653-.094.36-.374.654-.621.654-.249 0-.453-.294-.453-.654 0-.594-.218-.653-2.45-.653s-2.45.059-2.45.653zm83.953 3.43c0 .272-.29.49-.653.49-.363 0-.653-.218-.653-.49 0-.273.29-.49.653-.49.363 0 .653.217.653.49zM318.5 28.64c0 .478-.218.653-.817.653-.598 0-.816-.175-.816-.653 0-.478.218-.653.816-.653.599 0 .817.175.817.653zm21.233 49.657l-68.11-.085c-37.46-.045-68.11.028-68.11.163s-.294.245-.653.245c-.504 0-.653-.218-.653-.949 0-.79-.111-.92-.654-.78-.553.145-.659.002-.692-.929l-.037-1.1-.251.98-.249.98-.039-.897c-.024-.564-.22-.898-.528-.898-.28 0-.49-.294-.49-.684 0-.398-.26-.752-.623-.847-.343-.09-.698-.444-.786-.785-.096-.363-.449-.624-.847-.624-.511 0-.684-.206-.684-.817 0-.653-.164-.817-.817-.817-.6 0-.817-.175-.817-.653 0-.435-.218-.653-.653-.653-.478 0-.653-.217-.653-.817 0-.69-.153-.817-.98-.817-.75 0-.98-.147-.98-.63 0-.405-.262-.668-.735-.734-.501-.073-.729-.322-.715-.784.016-.536-.139-.647-.735-.534-.659.126-.755.014-.755-.874 0-.868-.121-1.017-.817-1.017-.653 0-.817-.163-.817-.817 0-.588-.175-.816-.629-.816-.406 0-.669-.262-.735-.735-.069-.472-.369-.772-.841-.84-.531-.075-.735-.324-.735-.898 0-.63-.169-.794-.816-.794-.509 0-.817-.184-.817-.49 0-.37.4-.49 1.633-.49 1.417 0 1.634-.086 1.634-.653 0-.556.218-.654 1.47-.654 1.343 0 1.47-.069 1.47-.802 0-.77.096-.806 2.368-.898 2.174-.088 2.377-.156 2.474-.83.096-.677.274-.736 2.205-.736 1.881 0 2.099-.068 2.099-.654 0-.59.217-.653 2.287-.653 2.221 0 2.287-.024 2.287-.817 0-.89.441-1.008 3.185-.845 1.296.076 1.388.027 1.388-.76 0-.828.045-.845 2.287-.845 2.192 0 2.286-.032 2.286-.778 0-.755.078-.779 2.369-.735 2.223.04 2.374-.002 2.472-.692.104-.731 1.848-.996 4.902-.745.509.043.813-.145.925-.576.139-.53.562-.68 2.426-.865 2.117-.207 2.26-.272 2.26-1.019 0-.788.032-.796 3.103-.796 3.093 0 3.103-.004 3.103-.817s.011-.817 3.104-.817c2.885 0 3.103-.045 3.103-.653 0-.616.218-.653 3.763-.653h3.763l-.205-.817-.204-.817h2.934c3.514 0 4.976-.251 4.976-.857 0-.247.33-.457.735-.466l3.838-.08c2.946-.063 3.109-.105 3.208-.802.106-.753 3.08-1.045 7.817-.763 1.296.077 1.388.026 1.388-.762v-.843l4.819-.059c2.65-.031 5.075-.057 5.39-.055.337.002.571-.243.571-.596 0-.625 2.867-.833 8.398-.613 3.268.131 5.322-.253 5.322-.994 0-.688.464-.705 17.959-.646 8.338.029 9.481-.09 9.481-.994 0-.588.382-.616 8.33-.616h8.33v50.31zm163.66-49.657c0 .363-.218.653-.49.653-.273 0-.49-.29-.49-.653 0-.363.217-.653.49-.653.272 0 .49.29.49.653zm-209.624 1.633c.125.486.01.654-.453.654-.406 0-.623-.229-.623-.654 0-.359.204-.653.452-.653.249 0 .53.294.624.653zm90.391 1.017l4.492-.053c8.652-.104 9.13-.069 9.332.704.163.627.376.678 2.407.588 1.223-.053 4.043-.069 6.266-.034l4.039.065-.156.817-.155.816h4.504c4.424 0 4.508.013 4.61.735.1.71.243.739 3.943.827 3.115.074 3.838.182 3.838.572 0 .27.321.494.735.512a26.03 26.03 0 011.388.104c.36.039 2.013.098 3.675.13 2.989.06 3.022.07 3.022.877 0 .813.012.817 3.103.817 2.887 0 3.104.045 3.104.653s.218.653 3.103.653c3.093 0 3.103.004 3.103.817s.011.817 3.104.817c3.056 0 3.103.012 3.103.782 0 .749.122.792 2.911 1.012 2.475.196 2.934.323 3.073.85.139.537.476.622 2.479.622 2.254 0 2.317.023 2.317.817 0 .794.065.817 2.287.817 1.721 0 2.286.11 2.286.45 0 .55 1.419.856 3.961.856 1.844 0 1.919.033 1.919.842 0 .714.135.831.899.782 2.746-.182 3.626-.005 3.734.745.096.675.298.743 2.507.831 2.199.089 2.387.151 2.234.735-.153.59.014.64 2.231.64 2.236 0 2.403.048 2.501.734.086.61.339.751 1.493.835 1.086.079 1.388.23 1.388.694 0 .655 1.147 1.002 3.309 1.002 1.046 0 1.264.113 1.264.654 0 .59.217.653 2.287.653 2.221 0 2.287.023 2.287.817 0 .749.12.816 1.47.816 1.253 0 1.47.098 1.47.654 0 .594.218.653 2.45.653 2.395 0 2.45.018 2.45.817 0 .749.12.816 1.47.816 1.351 0 1.47.066 1.47.817 0 .75.12.817 1.47.817 1.239 0 1.47.1 1.47.635 0 .526.267.653 1.551.735 1.297.083 1.568.214 1.652.798.106.739 1.141 1.098 3.169 1.098.79 0 1.11.168 1.235.654.143.547.447.653 1.874.653 1.638 0 1.695.03 1.546.817-.151.78-.086.816 1.431.816 1.476 0 1.588.058 1.588.817 0 .764.108.817 1.672.817 1.511 0 1.654.063 1.501.653-.153.58-.01.653 1.268.653 1.317 0 1.439.07 1.439.817 0 .449.127.817.282.817.155 0 .212-.368.125-.817-.127-.663-.027-.817.535-.817.52 0 .692.204.692.817 0 .59.175.817.63.817.405 0 .668.263.735.735.092.641.325.747 1.854.835 1.481.084 1.724.186 1.597.674-.098.37.035.575.374.577 1.933.01 2.323.139 2.323.772 0 .653-.218.653-88.527.653h-88.526V29.62h16.333v1.67zm16.987.453c0 .272-.29.49-.654.49-.363 0-.653-.218-.653-.49 0-.273.29-.49.653-.49.364 0 .654.217.654.49zM168.233 33.05c0 .272-.29.49-.653.49-.363 0-.653-.218-.653-.49s.29-.49.653-.49c.363 0 .653.218.653.49zm269.5 4.737c0 .424-.218.653-.622.653-.462 0-.58-.169-.452-.653.094-.36.374-.654.623-.654s.451.294.451.654zm-221.806 7.676c0 .272-.29.49-.654.49-.363 0-.653-.218-.653-.49 0-.273.29-.49.653-.49.364 0 .654.217.654.49zM100.709 66.86c-.094.359-.375.653-.624.653-.656 0-.554-.904.12-1.08.314-.083.594-.167.623-.189.028-.021-.025.257-.119.616zM79.38 69.963a.49.49 0 11-.98 0 .49.49 0 01.98 0zm75.133.272c0 .572.176.755.715.735.449-.018.782.216.898.627.106.375.462.653.837.653.505 0 .641.198.596.874-.051.759.058.868.817.818.762-.051.866.054.813.84-.049.692.083.898.571.898.39 0 .633.223.633.584 0 .36.264.604.692.635.854.065.964.173 1.027 1.007.027.369.131.661.227.653.823-.074 1.321.145 1.321.582 0 .286.294.596.653.69.423.112.654.447.654.95 0 .612.173.779.816.779.654 0 .817.163.817.817 0 .653.163.816.817.816.598 0 .816.174.816.654 0 .479.217.653.817.653.69 0 .817.153.817.98s.126.98.816.98c.599 0 .817.174.817.653 0 .429.218.654.631.654.406 0 .668.263.735.735.067.473.367.773.839.84.531.074.735.323.735.897 0 .576.178.794.653.794.437 0 .654.217.654.654 0 .478.218.653.816.653.654 0 .817.163.817.817 0 .696.151.816 1.015.816.933 0 .998.07.8.858-.192.77-.135.843.562.71.657-.126.757-.038.639.572-.119.623-.021.7.71.559.766-.145.847-.063.847.862 0 .931.076 1.005.817.82.71-.177.817-.097.817.617 0 .65.132.788.628.656.497-.13.65.032.735.767.086.739.292.95 1.005 1.033.717.082.898.27.898.936 0 .696.125.81.76.688.649-.125.741-.033.616.616-.138.715-.047.76 1.526.76 1.565 0 1.672.051 1.672.816 0 .793.065.817 2.286.817 2.018 0 2.287.072 2.287.613 0 1.024-.296 1.02 72.888 1.02h70.845v128.38h-101.92l-.065-1.715c-.035-.943-.035-2.156.002-2.695.174-2.529-.298-5.063-.943-5.063-.57 0-.627-.259-.631-2.858-.006-3.347-.192-4.241-.927-4.429-.296-.075-.2-.102.214-.059 1.005.102.864-1.174-.181-1.633-.637-.28-.735-.568-.735-2.164 0-2.751-.298-3.884-1.021-3.884-.517 0-.613-.253-.613-1.633 0-1.525-.053-1.633-.816-1.633-.793 0-.817-.066-.817-2.287 0-2.017-.073-2.287-.612-2.287-.46 0-.662-.322-.821-1.306-.162-1.017-.353-1.307-.858-1.307-.504 0-.649-.22-.649-.98 0-.827-.127-.98-.817-.98-.749 0-.816-.12-.816-1.47 0-1.252-.098-1.47-.654-1.47-.567 0-.653-.218-.653-1.633 0-1.525-.055-1.634-.817-1.634-.598 0-.816-.175-.816-.653 0-.478-.217-.653-.817-.653-.762 0-.817-.11-.817-1.634 0-1.416-.087-1.633-.653-1.633-.478 0-.653-.218-.653-.817 0-.653-.164-.816-.817-.816-.612 0-.817-.172-.817-.684a.87.87 0 00-.653-.854c-.361-.096-.653-.447-.653-.786 0-.431-.235-.616-.78-.616-.674 0-.809-.2-.999-1.47-.171-1.14-.359-1.47-.831-1.47-.385 0-.651-.272-.716-.735-.09-.627-.331-.75-1.656-.835-1.401-.09-1.552-.178-1.552-.897 0-.582-.179-.8-.653-.8-.435 0-.653-.218-.653-.653 0-.513-.217-.654-1.019-.654-.909 0-1.001-.087-.862-.816.131-.686.031-.817-.614-.817-.605 0-.772-.176-.772-.817 0-.598-.174-.816-.653-.816-.437 0-.654-.217-.654-.654 0-.567-.218-.653-1.633-.653-1.525 0-1.633-.055-1.633-.817 0-.653-.164-.816-.817-.816-.582 0-.817-.176-.817-.617 0-.48-.326-.665-1.47-.837-1.125-.169-1.47-.361-1.47-.815 0-.457-.345-.649-1.47-.818-1.131-.17-1.47-.358-1.47-.823 0-.474-.345-.651-1.633-.827-1.039-.143-1.633-.384-1.633-.664 0-.271-.566-.524-1.47-.659-1.27-.192-1.47-.327-1.47-1.002 0-.746-.094-.778-2.287-.778-2.111 0-2.287-.053-2.287-.692 0-.562-.153-.662-.824-.533-.454.087-.903.03-.999-.125-.096-.157-.755-.284-1.462-.284-1.07 0-1.288-.11-1.288-.653 0-.615-.218-.653-3.734-.653-3.624 0-3.738-.021-3.837-.735l-.106-.735h-27.766l-.106.735c-.096.676-.286.739-2.45.794-1.289.033-2.638.092-2.998.131-.359.04-.91.087-1.225.104-.314.018-.571.234-.571.479 0 .439-1.936.86-3.967.86-.715 0-.933.153-.933.653 0 .519-.219.654-1.062.658-2.23.006-3.512.378-3.512 1.017 0 .508-.251.612-1.47.612-1.253 0-1.47.096-1.47.653 0 .509-.218.654-.986.654-.841 0-.968.108-.865.735.067.404.059.551-.017.326a.546.546 0 00-1.072.174c0 .492-.249.567-1.633.488-1.541-.09-1.633-.049-1.633.702 0 .627-.192.819-.899.901-.643.075-.927.312-1.002.839-.09.635-.3.735-1.552.735-1.325 0-1.447.069-1.447.816 0 .599-.174.817-.654.817-.422 0-.653.218-.653.615 0 .481-.325.667-1.47.837-1.16.175-1.47.355-1.47.855 0 .457-.227.633-.817.633-.653 0-.816.163-.816.817 0 .653-.164.816-.817.816-.6 0-.817.174-.817.654 0 .479-.218.653-.816.653-.695 0-.817.151-.817 1.015 0 .919-.076.996-.817.812-.669-.169-.816-.087-.816.452 0 .369-.217.661-.49.661-.27 0-.49.155-.49.347 0 .19-.147.255-.327.143-.18-.112-.327.1-.327.47 0 .455-.212.673-.653.673-.478 0-.653.217-.653.817 0 .653-.164.817-.817.817-.6 0-.817.175-.817.653 0 .435-.218.653-.653.653-.508 0-.653.217-.653.98 0 .829-.127.98-.817.98-.75 0-.817.119-.817 1.47 0 1.35-.067 1.47-.816 1.47-.697 0-.817.151-.817 1.019 0 .856-.104.99-.653.847-.58-.151-.654-.01-.654 1.268 0 1.319-.069 1.44-.816 1.44-.645 0-.817.165-.817.78 0 .561-.231.839-.817.986-.7.177-.816.392-.816 1.507 0 1.098-.106 1.3-.678 1.3-.502 0-.66.19-.615.735.147 1.829.006 2.205-.831 2.205-.763 0-.816.11-.816 1.633 0 1.417-.088 1.634-.654 1.634-.445 0-.667.234-.7.735a57.637 57.637 0 01-.106 1.388 57.078 57.078 0 00-.117 1.552c-.047.739-.21.898-.922.898h-.864l.15 3.185c.085 1.752.097 2.781.028 2.287-.088-.627-.315-.899-.756-.899-.457 0-.651.251-.696.899-.035.494-.096 1.266-.133 1.715-.04.449-.085 1.515-.1 2.368-.022 1.127-.161 1.552-.506 1.552-.494 0-.829 1.327-.784 3.103.17 6.862-.063 10.29-.7 10.29-.48 0-.654-.218-.654-.817 0-.786-.077-.816-2.123-.816-1.905 0-2.123-.068-2.123-.654 0-.359-.147-.653-.327-.653-.18 0-.327.294-.327.653 0 .364-.218.654-.49.654-.273 0-.49-.29-.49-.654 0-.479-.218-.653-.816-.653-.6 0-.817-.174-.817-.653 0-.429-.218-.654-.633-.654-.349 0-.725-.147-.837-.326-.112-.18-.764-.327-1.45-.327-.977 0-1.288-.143-1.421-.653-.14-.535-.445-.654-1.672-.654-1.247 0-1.5-.102-1.5-.61 0-.637-1.28-1.011-3.488-1.019-.83-.004-1.06-.153-1.145-.739-.088-.627-.331-.749-1.656-.835-1.284-.082-1.55-.208-1.55-.735 0-.563-.24-.635-2.102-.635-1.93 0-2.109-.061-2.205-.735-.09-.627-.331-.749-1.656-.835-1.245-.08-1.552-.216-1.552-.692 0-.619-1.31-.994-3.51-1.001-.843-.002-1.063-.138-1.063-.657 0-.566-.218-.653-1.633-.653-1.525 0-1.634-.055-1.634-.817 0-.6-.175-.817-.653-.817-.435 0-.653-.218-.653-.653 0-.566-.217-.653-1.634-.653H35.28v-1.47c0-1.252-.096-1.47-.653-1.47-.48 0-.654-.217-.654-.817 0-.653-.163-.817-.816-.817-.654 0-.817-.163-.817-.816 0-.592-.174-.817-.635-.817-.527 0-.653-.267-.735-1.552-.09-1.398-.172-1.541-.835-1.449-.806.112-.79.2-.866-5.329-.03-2.111-.088-2.295-.767-2.391l-.735-.104v-53.202H67.65l-.092-28.093h-39.79v-13.393h5.226c5.01 0 5.227-.027 5.227-.654 0-.608.218-.653 3.103-.653 2.252 0 3.11-.112 3.13-.408.02-.327.059-.327.19 0 .37.92 4.357.253 4.357-.727 0-.431 6.2-.841 7.956-.525.697.125 1.517-.402 1.517-.976 0-.598.28-.631 5.39-.631 5.172 0 5.39-.026 5.39-.653 0-.625.217-.653 5.233-.653h5.233l-.206-.817-.204-.817h5.588c5.373 0 5.59-.026 5.59-.653 0-.549.222-.655 1.388-.666 9.065-.093 9.222-.108 9.334-.886.101-.722.184-.735 4.655-.735h4.549v-.816c0-.762.109-.817 1.634-.817 1.415 0 1.633-.086 1.633-.653 0-.556.218-.654 1.47-.654 1.35 0 1.47-.067 1.47-.816 0-.75.12-.817 1.47-.817s1.47-.067 1.47-.817c0-.653.163-.816.817-.816.598 0 .816-.174.816-.654 0-.557.217-.653 1.47-.653 1.417 0 1.47-.037 1.47-.98s.055-.98 1.47-.98c1.238 0 1.47-.1 1.47-.635 0-.527.266-.653 1.552-.735 1.325-.086 1.566-.208 1.656-.835.075-.531.324-.735.898-.735.629 0 .794-.17.794-.817 0-.747.121-.816 1.44-.816 1.278 0 1.419-.074 1.268-.654-.156-.596-.009-.653 1.664-.653 1.739 0 1.835-.043 1.835-.817 0-.75.12-.816 1.47-.816 1.252 0 1.47-.098 1.47-.654 0-.557.218-.653 1.47-.653 1.35 0 1.47-.067 1.47-.817s.12-.816 1.47-.816 1.47-.066 1.47-.817c0-.753.118-.817 1.501-.817 1.212 0 1.531-.122 1.666-.637.13-.496.502-.659 1.686-.735 1.29-.083 1.533-.208 1.621-.833.139-.98 1.039-.959 1.039.027zM68.6 71.433c0 .437-.218.654-.653.654-.63 0-.886-.639-.437-1.09.451-.448 1.09-.194 1.09.436zm81.34 0c0 .437-.218.654-.653.654-.437 0-.654-.217-.654-.654 0-.436.217-.653.654-.653.435 0 .653.218.653.653zm-92.12 1.432c0 .25-.294.53-.653.624-.486.125-.654.01-.654-.453 0-.406.229-.623.654-.623.359 0 .653.204.653.452zm-10.453 1.859c0 .468-.176.642-.568.568-.853-.165-.947-1.245-.11-1.245.469 0 .678.21.678.677zm-10.78 1.483c0 .265-.339.453-.817.453-.578 0-.817-.176-.817-.608 0-.472.182-.574.817-.452.449.086.817.36.817.607zm104.206-.037c0 .272-.29.49-.653.49-.363 0-.653-.218-.653-.49 0-.273.29-.49.653-.49.363 0 .653.217.653.49zM25.807 77.477c0 .273-.29.49-.654.49-.363 0-.653-.217-.653-.49 0-.272.29-.49.653-.49.364 0 .654.218.654.49zm-10.78 1.633c0 .269-.221.49-.49.49a.49.49 0 11.49-.49zM8.82 80.58c0 .363-.218.653-.49.653s-.49-.29-.49-.653c0-.363.218-.653.49-.653s.49.29.49.653zm616.012 27.103l4.328.01v1.679l5.472-.062c8.307-.096 8.185-.106 8.307.752.1.708.237.737 3.861.802l4.492.082c.494.01.735.214.735.622 0 .682 1.484.621 1.733-.071.072-.206.094-.116.047.198-.078.515.274.572 3.602.572 3.474 0 3.699.039 3.868.686.152.586.06.665-.616.535-.437-.082-.794-.025-.794.13s1.414.282 3.14.282c2.921 0 3.13.043 2.981.617-.19.729.973 1.008 4.25 1.012 1.513.004 2.042.121 2.042.454 0 .549 1.419.857 3.961.857 1.829 0 1.919.039 1.919.817 0 .792.065.816 2.287.816 2.068 0 2.286.062 2.286.654 0 .608.217.653 3.104.653 3.091 0 3.103.002 3.103.817 0 .792.065.816 2.287.816 2.221 0 2.286.023 2.286.817 0 .762.109.817 1.634.817 1.415 0 1.633.087 1.633.653 0 .592.218.653 2.325.653 2.303 0 2.322.007 2.169.817-.155.807-.129.817 2.084.817 2.173 0 2.242.024 2.242.816 0 .76.11.817 1.611.817 1.421 0 1.623.086 1.715.735.094.659.312.745 2.125.831 1.799.086 2.032.176 2.122.817.089.61.341.735 1.655.82 1.231.078 1.552.219 1.552.68 0 .335.241.578.572.576 2.36-.01 2.695.106 2.695.931 0 .751.12.817 1.47.817 1.253 0 1.47.096 1.47.653 0 .639.692.837 2.343.674.343-.033.588.228.654.698.094.662.314.762 1.856.851 1.658.096 1.741.141 1.596.899-.143.747-.063.798 1.272.798 1.207 0 1.425.1 1.425.653 0 .556.217.654 1.47.654 1.362 0 1.47.061 1.47.841 0 .714.135.833.899.782 1.67-.11 1.996.006 2.1.745.09.627.333.749 1.656.835 1.285.082 1.552.208 1.552.735 0 .461.225.635.817.635.653 0 .816.163.816.817 0 .749.119.816 1.47.816 1.35 0 1.47.066 1.47.817 0 .653.164.817.817.817.653 0 .817.163.817.816 0 .654.163.817.816.817.611 0 .817.172.817.684 0 .41.263.753.653.855.362.094.654.444.654.786 0 .439.234.615.816.615.739 0 .817.129.817 1.337 0 1.05.137 1.374.635 1.503.349.092.68.482.735.868.075.52.292.675.835.6.743-.104.859.261.849 2.634-.002.404.256.571.878.571h.88l-.163 2.287c-.155 2.154-.123 2.287.52 2.287.919 0 .889-1.442.789 38.138l-.084 33.728h-23.841l-.036-1.715c-.019-.943-.027-3.715-.015-6.159l.021-4.443-.801.153-.802.155v-3.959c0-3.74-.035-3.958-.653-3.958-.707 0-.837-.599-.682-3.185.077-1.297.026-1.389-.762-1.389-.831 0-.843-.034-.843-2.45 0-2.396-.018-2.45-.817-2.45-.747 0-.816-.122-.816-1.439 0-1.264-.078-1.419-.635-1.274-.562.147-.647-.033-.735-1.582-.088-1.529-.194-1.762-.835-1.852-.623-.088-.735-.306-.735-1.419 0-1.029-.139-1.35-.639-1.482-.464-.121-.697-.56-.854-1.603-.184-1.235-.324-1.435-.994-1.435-.784 0-.917-.309-.798-1.838.045-.588-.178-.731-1.434-.919l-1.488-.224v-1.613c0-1.503-.055-1.613-.817-1.613-.653 0-.816-.163-.816-.817 0-.598-.174-.816-.654-.816-.479 0-.653-.217-.653-.817 0-.449-.147-.817-.327-.817-.179 0-.326-.22-.326-.49a.492.492 0 00-.49-.49c-.327 0-.49-.326-.49-.98 0-.828-.127-.98-.817-.98-.615 0-.827-.181-.86-.735l-.046-.735-.141.735c-.352 1.828-1.201.664-1.189-1.633 0-.382-.251-.572-.759-.572-.594 0-.762-.179-.762-.816 0-.654-.163-.817-.816-.817-.599 0-.817-.174-.817-.653 0-.568-.218-.654-1.672-.654-1.607 0-1.664-.032-1.515-.816.12-.625.02-.817-.429-.817-.359 0-.625-.284-.69-.735-.067-.472-.367-.772-.839-.839-.443-.063-.735-.333-.735-.678 0-.459-.208-.545-1.027-.423-.715.103-.956.037-.796-.224.576-.931-.147-1.674-1.629-1.674-1.326 0-1.448-.068-1.448-.817 0-.751-.12-.817-1.47-.817s-1.47-.067-1.47-.816c0-.748-.122-.817-1.447-.817-1.252 0-1.462-.1-1.552-.735-.094-.659-.266-.727-1.656-.657-1.458.075-1.552.032-1.552-.735 0-.746-.12-.813-1.47-.813-1.361 0-1.47-.063-1.47-.841 0-.67-.147-.827-.735-.78-1.909.155-2.531-.01-2.531-.666 0-.561-.243-.663-1.715-.724-.944-.039-2.377-.102-3.185-.141-.809-.037-1.801-.078-2.205-.092-.509-.016-.735-.223-.735-.676 0-.586-.217-.653-2.124-.653-1.856 0-2.123-.076-2.123-.611 0-.927-1.162-1.006-14.912-1.014-13.469-.009-14.488.063-14.488 1.012 0 .556-.286.613-3.103.613-2.887 0-3.104.045-3.104.653 0 .519-.218.655-1.061.657-2.23.007-3.512.38-3.512 1.019 0 .539-.27.611-2.287.611-2.194 0-2.286.032-2.286.78 0 .806-1.832 1.5-2.642 1-.188-.118-.421.088-.517.457-.135.515-.486.692-1.529.768-1.121.08-1.374.225-1.46.833-.09.635-.3.735-1.553.735-1.309 0-1.446.074-1.446.786 0 .696-.188.811-1.633 1.011-1.311.181-1.634.347-1.634.847 0 .447-.232.623-.816.623-.449 0-.817.147-.817.326 0 .18-.221.327-.49.327a.49.49 0 00-.49.49c0 .419-.813.67-1.715.529-.135-.021-.245.245-.245.592 0 .406-.263.668-.735.735-.553.078-.71.286-.633.839.084.598-.055.735-.735.735-.674 0-.837.159-.837.817 0 .653-.163.816-.817.816-.598 0-.816.174-.816.654 0 .557-.217.653-1.47.653-1.35 0-1.47.067-1.47.817 0 .653-.164.816-.817.816-.653 0-.817.164-.817.817 0 .6-.175.817-.653.817-.474 0-.653.218-.653.794 0 .574-.204.823-.735.898-.592.084-.756.345-.837 1.329-.088 1.054-.213 1.225-.897 1.225-.633 0-.798.168-.798.817 0 .6-.174.817-.653.817-.474 0-.654.218-.654.794 0 .625-.192.817-.898.9-.69.078-.913.292-.964.919l-.067.817.278-.817c.224-.651.279-.684.273-.163-.01 1.043-.496 2.76-.543 1.915a.97.97 0 00-.714-.872c-.566-.149-.666-.037-.619.696.108 1.646-.01 1.972-.747 2.075-.472.069-.772.369-.84.841-.065.453-.332.735-.698.735-.453 0-.645.347-.814 1.47-.178 1.184-.349 1.47-.88 1.47-.586 0-.649.177-.552 1.551.103 1.481.068 1.556-.79 1.656-.829.094-.898.213-.898 1.55 0 1.231-.098 1.449-.653 1.449-.566 0-.654.217-.654 1.634 0 1.523-.053 1.633-.816 1.633-.811 0-.817.022-.817 2.94 0 2.395-.09 2.94-.49 2.94-.272 0-.49-.29-.49-.653 0-.36-.159-.654-.351-.654-.194 0-.325.405-.292.899.18 2.729.002 3.675-.688 3.675-.502 0-.66.19-.615.735.319 3.965-.024 6.778-.831 6.778h-.816v12.413h-207.76V107.695l117.518-.083c64.635-.045 121.487-.051 126.338-.011 4.851.039 10.768.076 13.149.082zm7.595.664c0 .435-.217.653-.654.653-.435 0-.653-.218-.653-.653 0-.437.218-.654.653-.654.437 0 .654.217.654.654zm12.086 1.47c0 .269-.22.49-.49.49a.492.492 0 01-.49-.49.49.49 0 01.98 0zm101.267 4.41c0 .435-.218.653-.653.653-.803 0-.87-.876-.082-1.082.314-.082.608-.167.653-.186.045-.022.082.255.082.615zm-65.987 3.103c0 .272-.29.49-.653.49-.363 0-.653-.218-.653-.49s.29-.49.653-.49c.363 0 .653.218.653.49zM405.72 145.917l53.737-.167.118-27.93H405.72v28.097zm315.233-13.234a.49.49 0 01-.98 0c0-.269.221-.49.49-.49.27 0 .49.221.49.49zm15.354 7.677c0 .363-.217.653-.49.653-.272 0-.49-.29-.49-.653 0-.363.218-.653.49-.653.273 0 .49.29.49.653zm2.94 1.47c0 .268-.221.49-.49.49a.49.49 0 11.49-.49zm-122.174 26.133c0 .272-.29.49-.653.49-.363 0-.653-.218-.653-.49 0-.273.29-.49.653-.49.363 0 .653.217.653.49zm76.44 0c0 .272-.29.49-.653.49-.363 0-.653-.218-.653-.49 0-.273.29-.49.653-.49.363 0 .653.217.653.49zm2.94 1.47c0 .364-.218.654-.49.654-.273 0-.49-.29-.49-.654 0-.363.217-.653.49-.653.272 0 .49.29.49.653zm-87.22 3.104c0 .269-.22.49-.49.49a.492.492 0 01-.49-.49.49.49 0 01.98 0zm-12.474 11.374c.39.104.337.157-.184.184-.566.03-.727-.131-.698-.697.028-.52.081-.575.185-.183.08.304.393.618.697.696zm-431.57 1.823c2.85.031 3.004.069 3.102.768.097.667.306.743 2.311.831 1.937.085 2.205.175 2.205.735 0 .579.237.639 2.488.639 2.477 0 2.487.002 2.332.816-.147.77-.075.817 1.268.817 1.184 0 1.425.106 1.425.623 0 .498.321.667 1.615.845 1.321.18 1.633.349 1.715.929.082.578.353.725 1.488.808 1.074.076 1.389.231 1.389.678 0 .39.239.57.735.552.567-.019.759.181.837.873.083.705.275.899.9.899.629 0 .794.169.794.816 0 .75.119.817 1.47.817 1.252 0 1.47.096 1.47.653 0 .48.217.654.817.654.653 0 .817.163.817.816 0 .59.175.817.633.817.5 0 .681.31.853 1.47.172 1.145.357 1.47.837 1.47.441 0 .617.233.617.817 0 .653.163.816.816.816.654 0 .817.164.817.817 0 .6.174.817.653.817.437 0 .654.218.654.653 0 .359.147.653.326.653.18 0 .327.294.327.654 0 .363.218.653.49.653.306 0 .49.308.49.817 0 .653.163.816.817.816.763 0 .816.109.816 1.634 0 1.4.092 1.633.637 1.633.525 0 .65.267.735 1.552.084 1.323.205 1.566.833 1.656.697.098.735.249.735 2.89 0 2.465.072 2.802.625 2.945.639.169 1.552 3.736 1.131 4.418-.361.584.223 3.199.715 3.199.855 0 .674 10.323-.184 10.549-.641.166-.792 1.574-.766 7.173 0 .381-.251.571-.759.571-.723 0-.762.111-.762 2.25 0 2.019-.071 2.265-.694 2.43-.539.139-.661.367-.537 1.008.086.454.031.748-.122.652-.155-.094-.28.498-.28 1.317 0 1.272-.096 1.49-.653 1.49-.48 0-.654.218-.654.817 0 .665-.159.816-.861.816-.833 0-.854.049-.66 1.47.192 1.401.164 1.47-.608 1.47-.829 0-.841.029-.939 2.287-.027.627-.206.811-.77.79-.559-.02-.735.157-.735.735 0 .594-.178.762-.817.762-.588 0-.816.175-.816.629 0 .406-.262.669-.735.735-.552.079-.709.289-.633.841.083.598-.055.735-.735.735-.668 0-.837.159-.837.794 0 .574-.204.823-.735.898-.472.066-.772.366-.841.839-.066.472-.329.735-.735.735-.454 0-.629.227-.629.817 0 .653-.164.817-.817.817-.6 0-.817.175-.817.653 0 .478-.218.653-.816.653-.654 0-.817.164-.817.817 0 .711-.143.817-1.117.817-1.439 0-2.15.281-2.15.851 0 .251-.294.455-.653.455-.478 0-.653.217-.653.817 0 .762-.109.817-1.634.817-1.523 0-1.633.053-1.633.816 0 .77-1.076 1.111-2.695.856-.135-.021-.245.255-.245.614 0 .57-.22.654-1.715.658-2.862.006-4.165.324-4.165 1.017 0 .665-.131.688-4.083.743-2.113.03-2.295.088-2.391.767l-.106.735h-14.653v-.839c0-.798-.08-.837-1.552-.755-3.704.206-4.655.032-4.655-.856 0-.8-.051-.816-2.487-.816-2.329 0-2.478-.043-2.319-.654.094-.359.041-.573-.119-.475-.767.475-2.588-.253-2.588-1.031 0-.705-.139-.78-1.448-.78-1.253 0-1.46-.1-1.55-.735-.091-.627-.334-.75-1.657-.835-1.256-.08-1.552-.215-1.552-.705 0-.435-.174-.559-.629-.439-.496.129-.651-.032-.735-.767-.084-.739-.29-.95-1.004-1.033-.635-.072-.899-.288-.899-.735 0-.531-.234-.631-1.47-.631-1.351 0-1.47-.066-1.47-.817 0-.6-.175-.817-.653-.817-.478 0-.653-.218-.653-.816 0-.654-.164-.817-.817-.817-.653 0-.817-.163-.817-.817 0-.653-.163-.816-.816-.816-.654 0-.817-.164-.817-.817 0-.649-.165-.817-.798-.817-.729 0-.79-.118-.735-1.388.055-1.213-.029-1.401-.672-1.494-.531-.074-.735-.323-.735-.897 0-.629-.171-.794-.817-.794-.737 0-.816-.129-.816-1.337 0-1.039-.139-1.374-.621-1.499-.443-.118-.682-.574-.837-1.603-.19-1.271-.315-1.441-1.049-1.441-.723 0-.805-.106-.627-.817.169-.669.087-.816-.452-.816-.4 0-.673-.227-.69-.572a69.414 69.414 0 00-.1-1.388 131.59 131.59 0 01-.134-1.715c-.047-.66-.237-.899-.717-.899-.58 0-.653-.218-.653-1.919 0-3.044-.274-3.961-1.184-3.961h-.776v-21.19l.898-.104c.868-.1.902-.174.994-2.273.078-1.768.206-2.2.686-2.325.684-.178 1.07-1.94.795-3.632-.17-1.048-.135-1.097.673-.943.819.157.854.102.854-1.323 0-1.291.096-1.497.735-1.589.628-.088.749-.331.833-1.656.085-1.284.21-1.551.735-1.551.461 0 .637-.225.637-.817 0-.653.163-.817.816-.817 1.225 0 1.148-1.288-.081-1.355l-.899-.049.899-.137c.624-.094.898-.329.898-.766 0-.457.227-.633.817-.633.653 0 .816-.163.816-.816 0-.599.174-.817.654-.817.435 0 .653-.218.653-.653 0-.48.218-.654.817-.654.653 0 .816-.163.816-.816 0-.654.164-.817.817-.817.653 0 .817-.163.817-.817 0-.616.181-.827.735-.861l.735-.045-.735-.141c-1.403-.27-.852-1.076.735-1.076 1.351 0 1.47-.067 1.47-.817 0-.598.175-.816.653-.816.478 0 .653-.217.653-.817 0-.762.109-.817 1.634-.817 1.415 0 1.633-.087 1.633-.653 0-.478.218-.653.817-.653.653 0 .816-.164.816-.817 0-.821.303-.939 2.369-.931.381.002.571-.251.571-.759 0-.695.141-.76 1.634-.76 1.523 0 1.633-.055 1.633-.817 0-.792.065-.816 2.287-.816 2.068 0 2.286-.062 2.286-.654 0-.586.217-.653 2.124-.653 2.041 0 2.123-.031 2.123-.81v-.807l5.635-.09c3.099-.049 6.517-.067 7.595-.041 1.078.027 3.31.064 4.959.082zm494.759.025c4.198.006 4.492.047 4.492.63 0 .719 2.058 1.134 4.786.968 1.364-.084 1.59-.01 1.66.545.079.625.075.625-.219-.012-.288-.627-.302-.623-.323.082-.022.7.096.735 2.463.735 2.48 0 2.49.002 2.333.816-.137.717-.042.817.778.817.707 0 .935.155.935.633 0 .5.309.68 1.47.855 1.125.168 1.47.36 1.47.815 0 .457.345.649 1.47.817 1.144.173 1.47.357 1.47.837 0 .439.235.616.817.616.653 0 .817.164.817.817 0 .751.12.817 1.47.817 1.351 0 1.47.067 1.47.816 0 .654.163.817.816.817.599 0 .817.174.817.653 0 .437.218.654.653.654.48 0 .654.218.654.816 0 .654.163.817.816.817.654 0 .817.163.817.817 0 .653.163.816.817.816.598 0 .816.174.816.654 0 .422.217.653.617.653.48 0 .665.325.837 1.47.173 1.16.353 1.47.853 1.47.448 0 .633.225.633.772 0 .645.133.745.817.614.786-.149.817-.09.817 1.517 0 1.564.051 1.67.816 1.67.762 0 .817.109.817 1.634 0 1.396.092 1.633.631 1.633.406 0 .668.263.735.735.067.472.367.772.839.839.682.098.735.27.735 2.369 0 1.292.141 2.264.327 2.264.471 0 .402.894-.082 1.09-.225.09-.004.176.49.19.892.026.898.043.898 2.313 0 2.07.062 2.287.654 2.287.622 0 .653.22.661 4.491.006 2.471.019 5.815.033 7.432.059 7.252.02 7.677-.719 7.677-.598 0-.67.183-.623 1.551.107 3.169.064 3.349-.822 3.349-.794 0-.817.065-.817 2.286 0 2.224-.022 2.287-.821 2.287-.767 0-.818.102-.778 1.552.064 2.372.004 2.695-.5 2.695-.257 0-.533-.258-.616-.572-.082-.314-.166.053-.188.817-.033 1.253-.117 1.388-.854 1.388-.749 0-.816.12-.816 1.47 0 1.362-.062 1.47-.842 1.47-.714 0-.831.135-.782.898.127 1.932.005 2.369-.663 2.369-.482 0-.666-.235-.702-.899l-.049-.898-.133.864c-.074.49-.394.933-.733 1.023-.402.104-.672.59-.821 1.47-.153.91-.416 1.367-.853 1.48-.368.096-.629.449-.629.849 0 .511-.206.684-.817.684-.653 0-.816.163-.816.817 0 .735-.131.816-1.307.816s-1.307.082-1.307.817c0 .696-.149.817-1.018.817-.919 0-1.003.081-.856.847.143.747.071.829-.61.7-.672-.13-.746-.049-.578.623.173.684.081.77-.823.77-.798 0-1.015.139-1.015.653 0 .657-.492.806-2.205.666-.586-.047-.735.11-.735.78 0 .779-.108.841-1.47.841-1.351 0-1.47.067-1.47.816 0 .762-.108.817-1.633.817-1.415 0-1.633.086-1.633.653 0 .59-.217.654-2.242.654-2.215 0-2.238.01-2.085.816.164.86-1.821 1.131-6.372.866-1.292-.077-1.388-.024-1.388.751v.833h-13.675l-.104-.735c-.1-.706-.249-.739-3.779-.827-3.665-.093-3.675-.095-3.675-.898 0-.786-.06-.806-2.489-.806-2.326 0-2.477-.043-2.317-.654.153-.588.01-.653-1.432-.653-1.492 0-1.602-.057-1.602-.817 0-.749-.119-.816-1.47-.816-1.35 0-1.47-.066-1.47-.817 0-.751-.119-.817-1.47-.817-1.252 0-1.47-.096-1.47-.653 0-.478-.217-.653-.817-.653-.653 0-.817-.164-.817-.817 0-.751-.12-.817-1.47-.817-1.674 0-2.121-.837-.571-1.072.835-.128.824-.14-.164-.185-.902-.043-1.061-.172-1.061-.866 0-.735-.131-.817-1.307-.817-1.174 0-1.307-.083-1.307-.81 0-.588-.22-.866-.798-1.011-.639-.161-.819-.441-.9-1.394-.078-.952-.247-1.215-.833-1.299-.533-.075-.735-.324-.735-.898 0-.629-.17-.794-.817-.794-.653 0-.817-.164-.817-.817 0-.653-.163-.817-.816-.817-.654 0-.817-.163-.817-.816 0-.599-.174-.817-.653-.817-.598 0-.919-1.256-.692-2.695.02-.135-.329-.245-.778-.245-.75 0-.817-.12-.817-1.47 0-1.252-.096-1.47-.653-1.47-.556 0-.654-.218-.654-1.47 0-.808-.147-1.47-.326-1.47-.18 0-.327.294-.327.653 0 .364-.218.654-.49.654-.402 0-.49-.562-.49-3.104 0-3.091-.002-3.103-.817-3.103-.81 0-.816-.022-.816-2.94 0-2.722-.049-2.94-.654-2.94-.637 0-.653-.218-.653-9.185 0-9.023.012-9.182.653-9.014.611.159.654.01.654-2.248 0-2.395.008-2.42.859-2.42.805 0 .847-.075.668-1.176-.288-1.782.057-3.017.878-3.134.584-.083.714-.353.798-1.651.082-1.285.208-1.552.735-1.552.545 0 .635-.233.635-1.633 0-1.525.055-1.634.817-1.634.749 0 .816-.12.816-1.47 0-1.253.098-1.47.654-1.47.479 0 .653-.218.653-.816 0-.654.163-.817.817-.817.749 0 .816-.12.816-1.47s.066-1.47.817-1.47c.6 0 .817-.174.817-.653 0-.48.218-.654.816-.654.654 0 .817-.163.817-.816 0-.654.163-.817.817-.817.653 0 .816-.163.816-.817 0-.598.174-.816.654-.816.435 0 .653-.217.653-.654 0-.479.218-.653.817-.653.688 0 .816-.153.816-.974 0-.966.011-.972 1.47-.772 1.423.196 1.47.172 1.47-.659 0-.711.149-.862.854-.862.733 0 .833-.114.702-.806-.084-.445-.037-.735.106-.647.625.388 2.912-.27 2.912-.839 0-.429.369-.629 1.47-.793 1.143-.173 1.47-.357 1.47-.837 0-.502.285-.633 1.551-.716 1.325-.084 1.568-.206 1.656-.833.092-.648.294-.735 1.715-.735 1.393 0 1.611-.088 1.611-.654 0-.573.218-.653 1.756-.653 2.544 0 3.859-.331 4.04-1.015.172-.661 2.232-.847 7.761-.706 1.617.041 4.961.078 7.431.08zm-529.935 8.376c0 .248-.294.452-.653.452-.425 0-.653-.217-.653-.623 0-.463.169-.578.653-.453.359.094.653.375.653.624zm554.354-.038c0 .273-.29.49-.654.49-.363 0-.653-.217-.653-.49 0-.272.29-.49.653-.49.364 0 .654.218.654.49zm-494.574 1.47c0 .435-.218.653-.653.653-.435 0-.653-.218-.653-.653 0-.437.218-.654.653-.654.435 0 .653.217.653.654zm534.427 3.103c0 .268-.221.49-.49.49a.493.493 0 01-.49-.49.49.49 0 01.98 0zm-635.693 1.307a.491.491 0 11-.49-.49c.269 0 .49.22.49.49zM5.88 220.067c0 .363-.218.653-.49.653s-.49-.29-.49-.653c0-.364.218-.654.49-.654s.49.29.49.654zm74.807 2.94c0 .363-.217.653-.49.653-.272 0-.49-.29-.49-.653 0-.364.218-.654.49-.654.273 0 .49.29.49.654zm525.606 29.073c0 .435-.218.653-.653.653-.435 0-.653-.218-.653-.653 0-.435.218-.653.653-.653.435 0 .653.218.653.653zm-490 13.883c0 .272-.29.49-.653.49-.363 0-.653-.218-.653-.49 0-.273.29-.49.653-.49.363 0 .653.217.653.49zm499.147 2.94c0 .272-.29.49-.653.49-.364 0-.654-.218-.654-.49 0-.273.29-.49.654-.49.363 0 .653.217.653.49zm111.72 0c0 .27-.221.49-.49.49a.492.492 0 01-.49-.49c0-.269.222-.49.49-.49.269 0 .49.221.49.49zm-2.94 6.37c0 .364-.218.654-.49.654s-.49-.29-.49-.654c0-.363.218-.653.49-.653s.49.29.49.653zm-632.427 3.104a.491.491 0 01-.98 0 .49.49 0 01.98 0zm76.44 8.983c0 .435-.218.653-.653.653-.435 0-.653-.218-.653-.653 0-.435.218-.653.653-.653.435 0 .653.218.653.653zm-65.986 4.41c0 .268-.221.49-.49.49a.49.49 0 11.49-.49zm588 15.517c0 .363-.217.653-.49.653-.272 0-.49-.29-.49-.653 0-.364.218-.654.49-.654.273 0 .49.29.49.654zm-563.174 1.47c0 .273-.29.49-.653.49-.363 0-.653-.217-.653-.49 0-.272.29-.49.653-.49.363 0 .653.218.653.49zm555.66 1.633c0 .268-.22.49-.49.49a.49.49 0 11.49-.49zm-534.426 4.573c0 .272-.29.49-.654.49-.363 0-.653-.218-.653-.49 0-.273.29-.49.653-.49.364 0 .654.217.654.49z" fill="#80ACF4"/><path fill-rule="evenodd" clip-rule="evenodd" d="M323.4.873c0 .36.204.654.453.654.247 0 .527-.294.621-.654.127-.484.01-.653-.451-.653-.405 0-.623.23-.623.653zm-41.487 2.614c0 .179.376.326.837.326.474 0 .748-.141.633-.326-.11-.18-.486-.327-.835-.327s-.635.147-.635.327zm119.234.816c0 .272.29.49.653.49.363 0 .653-.218.653-.49 0-.273-.29-.49-.653-.49-.363 0-.653.217-.653.49zM236.18 11c0 .18.22.327.49.327s.49-.147.49-.327c0-.18-.22-.327-.49-.327s-.49.147-.49.327zm-24.827 6.697c0 .273.29.49.654.49.363 0 .653-.217.653-.49 0-.272-.29-.49-.653-.49-.364 0-.654.218-.654.49zM316.867 28.64c0 .478.218.653.816.653.599 0 .817-.175.817-.653 0-.478-.218-.653-.817-.653-.598 0-.816.175-.816.653zm185.546 0c0 .363.217.653.49.653.272 0 .49-.29.49-.653 0-.363-.218-.653-.49-.653-.273 0-.49.29-.49.653zm-209.72 1.633c0 .425.217.654.623.654.463 0 .578-.168.453-.654-.094-.359-.375-.653-.624-.653-.248 0-.452.294-.452.653zm107.147 1.442c0 .473 2.475 1.092 2.854.714.107-.108-.196-.196-.676-.196-.557 0-.871-.177-.871-.49 0-.273-.29-.49-.654-.49-.359 0-.653.207-.653.462zM166.847 32.94c.18.694 1.386.823 1.386.147 0-.247-.347-.517-.773-.598-.621-.12-.74-.03-.613.451zm-3.073 1.431c-.108.276-.102.596.009.708.112.111.204-.032.204-.318 0-.286.257-.588.571-.668.537-.141.535-.153-.01-.189-.32-.021-.668.189-.774.467zm272.885 3.416c-.128.484-.01.653.452.653.404 0 .622-.23.622-.653 0-.36-.202-.654-.451-.654s-.529.294-.623.654zM214.62 45.463c0 .272.29.49.653.49.364 0 .654-.218.654-.49 0-.273-.29-.49-.654-.49-.363 0-.653.217-.653.49zm-87.547 6.044c0 .435.217.653.654.653.435 0 .653-.218.653-.653 0-.437-.218-.654-.653-.654-.437 0-.654.217-.654.654zm-14.945 8.391a2.69 2.69 0 001.144 0c.314-.082.057-.149-.572-.149s-.886.067-.572.149zm459.212.755c0 .437.217.654.653.654.437 0 .654-.217.654-.654 0-.435-.217-.653-.654-.653-.436 0-.653.218-.653.653zM189.024 64.8c.386.075.777.423.869.772.109.42.425.62.931.59.721-.041.725-.053.064-.182-.386-.075-.776-.423-.868-.772-.11-.42-.425-.62-.931-.59-.721.04-.723.053-.065.182zm327.681.004a4.623 4.623 0 001.47 0c.404-.079.072-.141-.735-.141-.81 0-1.139.063-.735.14zm-416.582 1.403c.558.24.57.285.082.304-.67.026-.786 1.002-.12 1.002.463 0 .929-1.123.602-1.45-.1-.1-.415-.173-.7-.16-.38.016-.344.096.136.304zM78.4 69.963a.49.49 0 10.98 0 .49.49 0 00-.98 0zm-10.89 1.035c-.449.45-.194 1.09.437 1.09.435 0 .653-.218.653-.655 0-.63-.639-.884-1.09-.436zm81.123.397c0 .385.286.67.76.76.649.124.741.034.616-.615-.179-.94-1.376-1.066-1.376-.145zm6.595-.413c.304.09.621.486.708.88.129.6.147.582.102-.098-.038-.553-.265-.835-.708-.88-.47-.047-.498-.02-.102.098zm1.633 1.307c.304.09.627.412.717.716.12.4.147.374.098-.098a.798.798 0 00-.717-.716c-.471-.049-.498-.021-.098.098zm-100.348.747c0 .463.168.578.654.453.359-.094.653-.375.653-.624 0-.248-.294-.452-.653-.452-.425 0-.654.217-.654.623zm479.606.11c.155 1.085 1.248 1.18 1.248.108 0-.632-.168-.841-.676-.841-.513 0-.651.176-.572.733zm-377.637.793c.296.079.613.43.703.779.096.36.428.619.769.597.501-.031.513-.062.064-.18-.296-.078-.613-.43-.703-.78-.096-.36-.428-.62-.769-.598-.501.032-.513.063-.064.182zm-112.361.675c.164.852 1.246.946 1.246.11 0-.467-.21-.677-.678-.677-.466 0-.643.175-.568.567zm-10.95.63c-.555.555-.193 1.416.599 1.416 1.04 0 1.12-.966.082-1.013-.705-.032-.701-.044.08-.294.716-.228.734-.265.138-.294-.374-.018-.778.066-.9.186zm104.316.926c0 .272.29.49.653.49.363 0 .653-.218.653-.49 0-.273-.29-.49-.653-.49-.363 0-.653.217-.653.49zm402.557-.004a.8.8 0 00.717.717c.471.047.498.02.098-.098-.304-.092-.627-.413-.717-.717-.12-.4-.147-.372-.098.098zm-516.809.725c-.888.17-.988 1.076-.12 1.076.341 0 .692-.292.786-.654.095-.359.147-.633.12-.608-.027.024-.382.108-.786.186zm176.972 1.402c0 .18.294.327.653.327.359 0 .653-.147.653-.327 0-.179-.294-.326-.653-.326-.359 0-.653.147-.653.326zm402.78.466c0 .633.167.841.676.841.514 0 .651-.176.571-.731-.155-1.086-1.247-1.182-1.247-.11zm-590.94.351c0 .269.22.49.49.49.269 0 .49-.221.49-.49a.49.49 0 00-.98 0zM7.77 80.46c.08.426.351.773.598.773.676 0 .547-1.206-.147-1.386-.482-.127-.57-.008-.45.613zm635.764 1.59c0 .508.186.817.49.817.305 0 .49-.31.49-.817 0-.508-.185-.817-.49-.817-.304 0-.49.31-.49.817zm35.693 6.93c.496.077 1.231.075 1.633-.003.402-.079-.004-.14-.902-.138-.899.004-1.227.067-.731.142zm-48.106 19.367c0 .435.218.653.653.653.437 0 .654-.218.654-.653 0-.437-.217-.654-.654-.654-.435 0-.653.217-.653.654zm12.413 1.47c0 .269.221.49.49.49a.49.49 0 10-.49-.49zm10.127 1.557c0 .286-.331.584-.735.662l-.735.141.745.045c.719.043 1.348-.748.929-1.168-.112-.112-.204.031-.204.32zm6.268 1.464c.059.315.427.617.815.674.571.08.673-.03.53-.572-.222-.847-1.506-.943-1.345-.102zm85.035.715c.562.259.574.304.082.323-.817.034-.715 1.004.104 1.004.921 0 .749-1.429-.186-1.546l-.653-.083.653.302zm-66.476 3.777c0 .272.29.49.653.49.363 0 .653-.218.653-.49s-.29-.49-.653-.49c-.363 0-.653.218-.653.49zm92.12 15.19c0 .363.218.653.49.653.273 0 .49-.29.49-.653 0-.363-.217-.653-.49-.653-.272 0-.49.29-.49.653zm-50.634.163a.49.49 0 10.49-.49.492.492 0 00-.49.49zm15.354 7.64c0 .337.269.684.6.77.482.127.57.008.451-.613-.175-.916-1.051-1.047-1.051-.157zm2.94 1.507c0 .268.22.49.49.49a.49.49 0 10-.49-.49zm-64.68 18.093c0 .745 1.592 1.178 1.851.501.254-.664-.173-1.117-1.055-1.117-.563 0-.796.181-.796.616zm14.085 4.855c-.03.566.131.727.696.697.521-.027.574-.08.184-.184-.304-.078-.618-.392-.698-.696-.102-.392-.157-.337-.182.183zm-566.762 1.611c.038.77.069.801.187.186.168-.87.956-.978 1.197-.163.132.445.153.428.102-.082-.114-1.129-1.54-1.074-1.486.059zm494.857 1.574c0 .272.29.49.653.49.363 0 .653-.218.653-.49 0-.273-.29-.49-.653-.49-.363 0-.653.217-.653.49zm76.44 0c0 .272.29.49.653.49.363 0 .653-.218.653-.49 0-.273-.29-.49-.653-.49-.363 0-.653.217-.653.49zm3.266 1.47c0 .364.217.654.49.654.272 0 .49-.29.49-.654 0-.363-.218-.653-.49-.653-.273 0-.49.29-.49.653zm-86.201 1.552c.023.553.094.678.186.327.082-.315.359-.572.615-.572.257 0 .467-.147.467-.327 0-.179-.294-.326-.653-.326-.505 0-.645.204-.615.898zm-1.102 1.429c.185.705 1.063.837 1.063.161 0-.249-.275-.524-.612-.612-.47-.123-.574-.02-.451.451zm102.657 9.106c0 .363.218.653.49.653.273 0 .49-.29.49-.653 0-.363-.217-.653-.49-.653-.272 0-.49.29-.49.653zm-115.065 1.807c.109.574.354.796.85.768.553-.029.578-.068.126-.188-.314-.08-.571-.349-.571-.596 0-.245-.125-.523-.28-.619-.153-.094-.21.19-.125.635zm-4.797 5.951c-.017.525-.235.746-.76.774-.553.027-.594.074-.163.186.314.082.586.47.604.86.018.4.165.149.333-.572.167-.707.237-1.442.157-1.634-.078-.193-.157-.018-.171.386zm127.375 1.523c0 .774 2.287 1.609 2.854 1.042.107-.108-.196-.196-.677-.196-.711 0-.87-.151-.87-.817 0-.6-.174-.817-.654-.817-.473 0-.653.217-.653.788zm-589.633 3.163c0 .406.228.623.653.623.359 0 .653-.204.653-.452 0-.249-.294-.53-.653-.624-.484-.125-.653-.01-.653.453zm554.353.133c0 .273.29.49.653.49.364 0 .654-.217.654-.49 0-.272-.29-.49-.654-.49-.363 0-.653.218-.653.49zm-494.573 1.47c0 .435.218.653.653.653.435 0 .653-.218.653-.653 0-.437-.218-.654-.653-.654-.435 0-.653.217-.653.654zm-65.66 3.103c0 .272.29.49.653.49.363 0 .653-.218.653-.49s-.29-.49-.653-.49c-.363 0-.653.218-.653.49zm600.413 0c0 .268.222.49.49.49a.49.49 0 10-.49-.49zM0 200.14c0 .435.218.653.653.653.437 0 .654-.218.654-.653 0-.435-.217-.653-.654-.653-.435 0-.653.218-.653.653zm87.463-.041c-.123.47-.02.574.45.451.338-.087.614-.363.614-.612 0-.676-.88-.545-1.064.161zM1.49 210.193c-.526.525-.134 1.38.633 1.38.582 0 .817-.177.817-.616 0-.586-1.066-1.148-1.45-.764zm577.69 2.034c0 .363.218.653.49.653s.49-.29.49-.653c0-.364-.218-.654-.49-.654-.273 0-.49.29-.49.654zm-344.082 7.072c.394.084.79.402.88.706.118.397.145.368.098-.102-.045-.443-.327-.671-.88-.706-.68-.045-.698-.029-.098.102zM4.9 220.067c0 .363.218.653.49.653s.49-.29.49-.653c0-.364-.218-.654-.49-.654s-.49.29-.49.654zm697.76 1.47c0 .269.147.49.327.49.179 0 .326-.221.326-.49 0-.27-.147-.49-.326-.49-.18 0-.327.22-.327.49zm-623.025 1.588c-.118.621-.03.741.453.615.693-.18.82-1.387.147-1.387-.25 0-.518.349-.6.772zm-7.442 9.028c0 .364.217.654.49.654.272 0 .49-.29.49-.654 0-.363-.218-.653-.49-.653-.273 0-.49.29-.49.653zm-35.606 15.354c0 .435.218.653.653.653.435 0 .653-.218.653-.653 0-.437-.218-.654-.653-.654-.435 0-.653.217-.653.654zm7.84 3.266c0 .437.218.654.653.654.435 0 .653-.217.653-.654 0-.436-.218-.653-.653-.653-.435 0-.653.218-.653.653zm560.56 1.307c0 .435.218.653.653.653.435 0 .653-.218.653-.653 0-.435-.218-.653-.653-.653-.435 0-.653.218-.653.653zm1.633 4.573c0 .364.218.654.49.654s.49-.29.49-.654c0-.363-.218-.653-.49-.653-.273 0-.49.29-.49.653zm93.331 2.94c.094.36.359.654.586.654.228 0 .49-.294.584-.654.136-.514.01-.653-.584-.653-.596 0-.719.139-.586.653zm-632.549.327c.04.6.251.829.794.86.576.034.598.012.102-.102-.35-.08-.707-.466-.794-.86-.129-.596-.145-.578-.102.102zm47.585 6.043c0 .272.29.49.653.49.363 0 .653-.218.653-.49 0-.273-.29-.49-.653-.49-.363 0-.653.217-.653.49zm85.26-.079c0 .286-.258.588-.572.671-.535.141-.535.152.01.188.592.037 1.139-.802.766-1.174-.114-.112-.204.029-.204.315zm494.9 1.386c0 .582.177.817.616.817.396 0 .67-.29.77-.817.131-.684.031-.817-.615-.817-.604 0-.771.176-.771.817zm-81.014 1.633c0 .272.29.49.654.49.363 0 .653-.218.653-.49 0-.273-.29-.49-.653-.49-.364 0-.654.217-.654.49zm112.047 0c0 .27.222.49.49.49.269 0 .49-.22.49-.49a.492.492 0 00-.49-.49.493.493 0 00-.49.49zm-2.94 6.37c0 .364.218.654.49.654s.49-.29.49-.654c0-.363-.218-.653-.49-.653s-.49.29-.49.653zm-101.267 1.47c0 .305.309.49.817.49s.817-.185.817-.49c0-.304-.309-.49-.817-.49s-.817.186-.817.49zm-531.16 1.634a.491.491 0 10.49-.49c-.269 0-.49.22-.49.49zm47.592 5.275c.392.086.788.403.88.707.118.396.145.369.098-.102-.045-.445-.327-.67-.88-.707-.682-.045-.697-.028-.098.102zm28.522 3.708c0 .435.218.653.653.653.435 0 .653-.218.653-.653 0-.435-.218-.653-.653-.653-.435 0-.653.218-.653.653zm-65.66 4.41c0 .268.22.49.49.49a.49.49 0 10-.49-.49zm18.03 14.006c.134.939 1.57 1.18 1.57.265 0-.426-.28-.692-.835-.798-.701-.133-.817-.049-.735.533zm569.97 1.511c0 .363.218.653.49.653.273 0 .49-.29.49-.653 0-.364-.217-.654-.49-.654-.272 0-.49.29-.49.654zm-563.5 1.47c0 .273.29.49.653.49.363 0 .653-.217.653-.49 0-.272-.29-.49-.653-.49-.363 0-.653.218-.653.49zm555.986 1.633c0 .268.221.49.49.49a.49.49 0 10-.49-.49zm-46.154 3.103c-.136.519-.01.654.615.654.568 0 .786-.182.786-.654 0-.422-.218-.653-.615-.653-.342 0-.692.292-.786.653zM147 314.963c0 .272.29.49.653.49.364 0 .654-.218.654-.49 0-.273-.29-.49-.654-.49-.363 0-.653.217-.653.49zm496.433.184c-.141.543-.04.653.531.57.388-.055.754-.358.815-.672.161-.843-1.125-.745-1.346.102z" fill="#80ACF4"/><path fill-rule="evenodd" clip-rule="evenodd" d="M323.4.873c0 .36.204.654.453.654.247 0 .527-.294.621-.654.127-.484.01-.653-.451-.653-.405 0-.623.23-.623.653zm-41.487 2.614c0 .179.376.326.837.326.474 0 .748-.141.633-.326-.11-.18-.486-.327-.835-.327s-.635.147-.635.327zm119.234.816c0 .272.29.49.653.49.363 0 .653-.218.653-.49 0-.273-.29-.49-.653-.49-.363 0-.653.217-.653.49zM236.18 11c0 .18.22.327.49.327s.49-.147.49-.327c0-.18-.22-.327-.49-.327s-.49.147-.49.327zm-24.827 6.697c0 .273.29.49.654.49.363 0 .653-.217.653-.49 0-.272-.29-.49-.653-.49-.364 0-.654.218-.654.49zM316.867 28.64c0 .478.218.653.816.653.599 0 .817-.175.817-.653 0-.478-.218-.653-.817-.653-.598 0-.816.175-.816.653zm185.546 0c0 .363.217.653.49.653.272 0 .49-.29.49-.653 0-.363-.218-.653-.49-.653-.273 0-.49.29-.49.653zm-209.72 1.633c0 .425.217.654.623.654.463 0 .578-.168.453-.654-.094-.359-.375-.653-.624-.653-.248 0-.452.294-.452.653zm107.147 1.442c0 .473 2.475 1.092 2.854.714.107-.108-.196-.196-.676-.196-.557 0-.871-.177-.871-.49 0-.273-.29-.49-.654-.49-.359 0-.653.207-.653.462zM166.847 32.94c.18.694 1.386.823 1.386.147 0-.247-.347-.517-.773-.598-.621-.12-.74-.03-.613.451zm-3.073 1.431c-.108.276-.102.596.009.708.112.111.204-.032.204-.318 0-.286.257-.588.571-.668.537-.141.535-.153-.01-.189-.32-.021-.668.189-.774.467zm272.885 3.416c-.128.484-.01.653.452.653.404 0 .622-.23.622-.653 0-.36-.202-.654-.451-.654s-.529.294-.623.654zM214.62 45.463c0 .272.29.49.653.49.364 0 .654-.218.654-.49 0-.273-.29-.49-.654-.49-.363 0-.653.217-.653.49zm-87.547 6.044c0 .435.217.653.654.653.435 0 .653-.218.653-.653 0-.437-.218-.654-.653-.654-.437 0-.654.217-.654.654zm-14.945 8.391a2.69 2.69 0 001.144 0c.314-.082.057-.149-.572-.149s-.886.067-.572.149zm459.212.755c0 .437.217.654.653.654.437 0 .654-.217.654-.654 0-.435-.217-.653-.654-.653-.436 0-.653.218-.653.653zM189.024 64.8c.386.075.777.423.869.772.109.42.425.62.931.59.721-.041.725-.053.064-.182-.386-.075-.776-.423-.868-.772-.11-.42-.425-.62-.931-.59-.721.04-.723.053-.065.182zm327.681.004a4.623 4.623 0 001.47 0c.404-.079.072-.141-.735-.141-.81 0-1.139.063-.735.14zm-416.582 1.403c.558.24.57.285.082.304-.67.026-.786 1.002-.12 1.002.463 0 .929-1.123.602-1.45-.1-.1-.415-.173-.7-.16-.38.016-.344.096.136.304zM78.4 69.963a.49.49 0 10.98 0 .49.49 0 00-.98 0zm-10.89 1.035c-.449.45-.194 1.09.437 1.09.435 0 .653-.218.653-.655 0-.63-.639-.884-1.09-.436zm81.123.397c0 .385.286.67.76.76.649.124.741.034.616-.615-.179-.94-1.376-1.066-1.376-.145zm6.595-.413c.304.09.621.486.708.88.129.6.147.582.102-.098-.038-.553-.265-.835-.708-.88-.47-.047-.498-.02-.102.098zm1.633 1.307c.304.09.627.412.717.716.12.4.147.374.098-.098a.798.798 0 00-.717-.716c-.471-.049-.498-.021-.098.098zm-100.348.747c0 .463.168.578.654.453.359-.094.653-.375.653-.624 0-.248-.294-.452-.653-.452-.425 0-.654.217-.654.623zm479.606.11c.155 1.085 1.248 1.18 1.248.108 0-.632-.168-.841-.676-.841-.513 0-.651.176-.572.733zm-377.637.793c.296.079.613.43.703.779.096.36.428.619.769.597.501-.031.513-.062.064-.18-.296-.078-.613-.43-.703-.78-.096-.36-.428-.62-.769-.598-.501.032-.513.063-.064.182zm-112.361.675c.164.852 1.246.946 1.246.11 0-.467-.21-.677-.678-.677-.466 0-.643.175-.568.567zm-10.95.63c-.555.555-.193 1.416.599 1.416 1.04 0 1.12-.966.082-1.013-.705-.032-.701-.044.08-.294.716-.228.734-.265.138-.294-.374-.018-.778.066-.9.186zm104.316.926c0 .272.29.49.653.49.363 0 .653-.218.653-.49 0-.273-.29-.49-.653-.49-.363 0-.653.217-.653.49zm402.557-.004a.8.8 0 00.717.717c.471.047.498.02.098-.098-.304-.092-.627-.413-.717-.717-.12-.4-.147-.372-.098.098zm-516.809.725c-.888.17-.988 1.076-.12 1.076.341 0 .692-.292.786-.654.095-.359.147-.633.12-.608-.027.024-.382.108-.786.186zm176.972 1.402c0 .18.294.327.653.327.359 0 .653-.147.653-.327 0-.179-.294-.326-.653-.326-.359 0-.653.147-.653.326zm402.78.466c0 .633.167.841.676.841.514 0 .651-.176.571-.731-.155-1.086-1.247-1.182-1.247-.11zm-590.94.351c0 .269.22.49.49.49.269 0 .49-.221.49-.49a.49.49 0 00-.98 0zM7.77 80.46c.08.426.351.773.598.773.676 0 .547-1.206-.147-1.386-.482-.127-.57-.008-.45.613zm635.764 1.59c0 .508.186.817.49.817.305 0 .49-.31.49-.817 0-.508-.185-.817-.49-.817-.304 0-.49.31-.49.817zm35.693 6.93c.496.077 1.231.075 1.633-.003.402-.079-.004-.14-.902-.138-.899.004-1.227.067-.731.142zm-48.106 19.367c0 .435.218.653.653.653.437 0 .654-.218.654-.653 0-.437-.217-.654-.654-.654-.435 0-.653.217-.653.654zm12.413 1.47c0 .269.221.49.49.49a.49.49 0 10-.49-.49zm10.127 1.557c0 .286-.331.584-.735.662l-.735.141.745.045c.719.043 1.348-.748.929-1.168-.112-.112-.204.031-.204.32zm6.268 1.464c.059.315.427.617.815.674.571.08.673-.03.53-.572-.222-.847-1.506-.943-1.345-.102zm85.035.715c.562.259.574.304.082.323-.817.034-.715 1.004.104 1.004.921 0 .749-1.429-.186-1.546l-.653-.083.653.302zm-66.476 3.777c0 .272.29.49.653.49.363 0 .653-.218.653-.49s-.29-.49-.653-.49c-.363 0-.653.218-.653.49zm92.12 15.19c0 .363.218.653.49.653.273 0 .49-.29.49-.653 0-.363-.217-.653-.49-.653-.272 0-.49.29-.49.653zm-50.634.163a.49.49 0 10.49-.49.492.492 0 00-.49.49zm15.354 7.64c0 .337.269.684.6.77.482.127.57.008.451-.613-.175-.916-1.051-1.047-1.051-.157zm2.94 1.507c0 .268.22.49.49.49a.49.49 0 10-.49-.49zm-64.68 18.093c0 .745 1.592 1.178 1.851.501.254-.664-.173-1.117-1.055-1.117-.563 0-.796.181-.796.616zm14.085 4.855c-.03.566.131.727.696.697.521-.027.574-.08.184-.184-.304-.078-.618-.392-.698-.696-.102-.392-.157-.337-.182.183zm-566.762 1.611c.038.77.069.801.187.186.168-.87.956-.978 1.197-.163.132.445.153.428.102-.082-.114-1.129-1.54-1.074-1.486.059zm494.857 1.574c0 .272.29.49.653.49.363 0 .653-.218.653-.49 0-.273-.29-.49-.653-.49-.363 0-.653.217-.653.49zm76.44 0c0 .272.29.49.653.49.363 0 .653-.218.653-.49 0-.273-.29-.49-.653-.49-.363 0-.653.217-.653.49zm3.266 1.47c0 .364.217.654.49.654.272 0 .49-.29.49-.654 0-.363-.218-.653-.49-.653-.273 0-.49.29-.49.653zm-86.201 1.552c.023.553.094.678.186.327.082-.315.359-.572.615-.572.257 0 .467-.147.467-.327 0-.179-.294-.326-.653-.326-.505 0-.645.204-.615.898zm-1.102 1.429c.185.705 1.063.837 1.063.161 0-.249-.275-.524-.612-.612-.47-.123-.574-.02-.451.451zm102.657 9.106c0 .363.218.653.49.653.273 0 .49-.29.49-.653 0-.363-.217-.653-.49-.653-.272 0-.49.29-.49.653zm-115.065 1.807c.109.574.354.796.85.768.553-.029.578-.068.126-.188-.314-.08-.571-.349-.571-.596 0-.245-.125-.523-.28-.619-.153-.094-.21.19-.125.635zm-4.797 5.951c-.017.525-.235.746-.76.774-.553.027-.594.074-.163.186.314.082.586.47.604.86.018.4.165.149.333-.572.167-.707.237-1.442.157-1.634-.078-.193-.157-.018-.171.386zm127.375 1.523c0 .774 2.287 1.609 2.854 1.042.107-.108-.196-.196-.677-.196-.711 0-.87-.151-.87-.817 0-.6-.174-.817-.654-.817-.473 0-.653.217-.653.788zm-589.633 3.163c0 .406.228.623.653.623.359 0 .653-.204.653-.452 0-.249-.294-.53-.653-.624-.484-.125-.653-.01-.653.453zm554.353.133c0 .273.29.49.653.49.364 0 .654-.217.654-.49 0-.272-.29-.49-.654-.49-.363 0-.653.218-.653.49zm-494.573 1.47c0 .435.218.653.653.653.435 0 .653-.218.653-.653 0-.437-.218-.654-.653-.654-.435 0-.653.217-.653.654zm-65.66 3.103c0 .272.29.49.653.49.363 0 .653-.218.653-.49s-.29-.49-.653-.49c-.363 0-.653.218-.653.49zm600.413 0c0 .268.222.49.49.49a.49.49 0 10-.49-.49zM0 200.14c0 .435.218.653.653.653.437 0 .654-.218.654-.653 0-.435-.217-.653-.654-.653-.435 0-.653.218-.653.653zm87.463-.041c-.123.47-.02.574.45.451.338-.087.614-.363.614-.612 0-.676-.88-.545-1.064.161zM1.49 210.193c-.526.525-.134 1.38.633 1.38.582 0 .817-.177.817-.616 0-.586-1.066-1.148-1.45-.764zm577.69 2.034c0 .363.218.653.49.653s.49-.29.49-.653c0-.364-.218-.654-.49-.654-.273 0-.49.29-.49.654zm-344.082 7.072c.394.084.79.402.88.706.118.397.145.368.098-.102-.045-.443-.327-.671-.88-.706-.68-.045-.698-.029-.098.102zM4.9 220.067c0 .363.218.653.49.653s.49-.29.49-.653c0-.364-.218-.654-.49-.654s-.49.29-.49.654zm697.76 1.47c0 .269.147.49.327.49.179 0 .326-.221.326-.49 0-.27-.147-.49-.326-.49-.18 0-.327.22-.327.49zm-623.025 1.588c-.118.621-.03.741.453.615.693-.18.82-1.387.147-1.387-.25 0-.518.349-.6.772zm-7.442 9.028c0 .364.217.654.49.654.272 0 .49-.29.49-.654 0-.363-.218-.653-.49-.653-.273 0-.49.29-.49.653zm-35.606 15.354c0 .435.218.653.653.653.435 0 .653-.218.653-.653 0-.437-.218-.654-.653-.654-.435 0-.653.217-.653.654zm7.84 3.266c0 .437.218.654.653.654.435 0 .653-.217.653-.654 0-.436-.218-.653-.653-.653-.435 0-.653.218-.653.653zm560.56 1.307c0 .435.218.653.653.653.435 0 .653-.218.653-.653 0-.435-.218-.653-.653-.653-.435 0-.653.218-.653.653zm1.633 4.573c0 .364.218.654.49.654s.49-.29.49-.654c0-.363-.218-.653-.49-.653-.273 0-.49.29-.49.653zm93.331 2.94c.094.36.359.654.586.654.228 0 .49-.294.584-.654.136-.514.01-.653-.584-.653-.596 0-.719.139-.586.653zm-632.549.327c.04.6.251.829.794.86.576.034.598.012.102-.102-.35-.08-.707-.466-.794-.86-.129-.596-.145-.578-.102.102zm47.585 6.043c0 .272.29.49.653.49.363 0 .653-.218.653-.49 0-.273-.29-.49-.653-.49-.363 0-.653.217-.653.49zm85.26-.079c0 .286-.258.588-.572.671-.535.141-.535.152.01.188.592.037 1.139-.802.766-1.174-.114-.112-.204.029-.204.315zm494.9 1.386c0 .582.177.817.616.817.396 0 .67-.29.77-.817.131-.684.031-.817-.615-.817-.604 0-.771.176-.771.817zm-81.014 1.633c0 .272.29.49.654.49.363 0 .653-.218.653-.49 0-.273-.29-.49-.653-.49-.364 0-.654.217-.654.49zm112.047 0c0 .27.222.49.49.49.269 0 .49-.22.49-.49a.492.492 0 00-.49-.49.493.493 0 00-.49.49zm-2.94 6.37c0 .364.218.654.49.654s.49-.29.49-.654c0-.363-.218-.653-.49-.653s-.49.29-.49.653zm-101.267 1.47c0 .305.309.49.817.49s.817-.185.817-.49c0-.304-.309-.49-.817-.49s-.817.186-.817.49zm-531.16 1.634a.491.491 0 10.49-.49c-.269 0-.49.22-.49.49zm47.592 5.275c.392.086.788.403.88.707.118.396.145.369.098-.102-.045-.445-.327-.67-.88-.707-.682-.045-.697-.028-.098.102zm28.522 3.708c0 .435.218.653.653.653.435 0 .653-.218.653-.653 0-.435-.218-.653-.653-.653-.435 0-.653.218-.653.653zm-65.66 4.41c0 .268.22.49.49.49a.49.49 0 10-.49-.49zm18.03 14.006c.134.939 1.57 1.18 1.57.265 0-.426-.28-.692-.835-.798-.701-.133-.817-.049-.735.533zm569.97 1.511c0 .363.218.653.49.653.273 0 .49-.29.49-.653 0-.364-.217-.654-.49-.654-.272 0-.49.29-.49.654zm-563.5 1.47c0 .273.29.49.653.49.363 0 .653-.217.653-.49 0-.272-.29-.49-.653-.49-.363 0-.653.218-.653.49zm555.986 1.633c0 .268.221.49.49.49a.49.49 0 10-.49-.49zm-46.154 3.103c-.136.519-.01.654.615.654.568 0 .786-.182.786-.654 0-.422-.218-.653-.615-.653-.342 0-.692.292-.786.653zM147 314.963c0 .272.29.49.653.49.364 0 .654-.218.654-.49 0-.273-.29-.49-.654-.49-.363 0-.653.217-.653.49zm496.433.184c-.141.543-.04.653.531.57.388-.055.754-.358.815-.672.161-.843-1.125-.745-1.346.102z" fill="#80ACF4"/><path fill-rule="evenodd" clip-rule="evenodd" d="M323.4.873c0 .36.204.654.453.654.247 0 .527-.294.621-.654.127-.484.01-.653-.451-.653-.405 0-.623.23-.623.653zm-41.487 2.614c0 .179.376.326.837.326.474 0 .748-.141.633-.326-.11-.18-.486-.327-.835-.327s-.635.147-.635.327zm119.234.816c0 .272.29.49.653.49.363 0 .653-.218.653-.49 0-.273-.29-.49-.653-.49-.363 0-.653.217-.653.49zM236.18 11c0 .18.22.327.49.327s.49-.147.49-.327c0-.18-.22-.327-.49-.327s-.49.147-.49.327zm-24.827 6.697c0 .273.29.49.654.49.363 0 .653-.217.653-.49 0-.272-.29-.49-.653-.49-.364 0-.654.218-.654.49zM316.867 28.64c0 .478.218.653.816.653.599 0 .817-.175.817-.653 0-.478-.218-.653-.817-.653-.598 0-.816.175-.816.653zm185.546 0c0 .363.217.653.49.653.272 0 .49-.29.49-.653 0-.363-.218-.653-.49-.653-.273 0-.49.29-.49.653zm-209.72 1.633c0 .425.217.654.623.654.463 0 .578-.168.453-.654-.094-.359-.375-.653-.624-.653-.248 0-.452.294-.452.653zm107.147 1.442c0 .473 2.475 1.092 2.854.714.107-.108-.196-.196-.676-.196-.557 0-.871-.177-.871-.49 0-.273-.29-.49-.654-.49-.359 0-.653.207-.653.462zM166.847 32.94c.18.694 1.386.823 1.386.147 0-.247-.347-.517-.773-.598-.621-.12-.74-.03-.613.451zm-3.073 1.431c-.108.276-.102.596.009.708.112.111.204-.032.204-.318 0-.286.257-.588.571-.668.537-.141.535-.153-.01-.189-.32-.021-.668.189-.774.467zm272.885 3.416c-.128.484-.01.653.452.653.404 0 .622-.23.622-.653 0-.36-.202-.654-.451-.654s-.529.294-.623.654zM214.62 45.463c0 .272.29.49.653.49.364 0 .654-.218.654-.49 0-.273-.29-.49-.654-.49-.363 0-.653.217-.653.49zm-87.547 6.044c0 .435.217.653.654.653.435 0 .653-.218.653-.653 0-.437-.218-.654-.653-.654-.437 0-.654.217-.654.654zm-14.945 8.391a2.69 2.69 0 001.144 0c.314-.082.057-.149-.572-.149s-.886.067-.572.149zm459.212.755c0 .437.217.654.653.654.437 0 .654-.217.654-.654 0-.435-.217-.653-.654-.653-.436 0-.653.218-.653.653zM189.024 64.8c.386.075.777.423.869.772.109.42.425.62.931.59.721-.041.725-.053.064-.182-.386-.075-.776-.423-.868-.772-.11-.42-.425-.62-.931-.59-.721.04-.723.053-.065.182zm327.681.004a4.623 4.623 0 001.47 0c.404-.079.072-.141-.735-.141-.81 0-1.139.063-.735.14zm-416.582 1.403c.558.24.57.285.082.304-.67.026-.786 1.002-.12 1.002.463 0 .929-1.123.602-1.45-.1-.1-.415-.173-.7-.16-.38.016-.344.096.136.304zM78.4 69.963a.49.49 0 10.98 0 .49.49 0 00-.98 0zm-10.89 1.035c-.449.45-.194 1.09.437 1.09.435 0 .653-.218.653-.655 0-.63-.639-.884-1.09-.436zm81.123.397c0 .385.286.67.76.76.649.124.741.034.616-.615-.179-.94-1.376-1.066-1.376-.145zm6.595-.413c.304.09.621.486.708.88.129.6.147.582.102-.098-.038-.553-.265-.835-.708-.88-.47-.047-.498-.02-.102.098zm1.633 1.307c.304.09.627.412.717.716.12.4.147.374.098-.098a.798.798 0 00-.717-.716c-.471-.049-.498-.021-.098.098zm-100.348.747c0 .463.168.578.654.453.359-.094.653-.375.653-.624 0-.248-.294-.452-.653-.452-.425 0-.654.217-.654.623zm479.606.11c.155 1.085 1.248 1.18 1.248.108 0-.632-.168-.841-.676-.841-.513 0-.651.176-.572.733zm-377.637.793c.296.079.613.43.703.779.096.36.428.619.769.597.501-.031.513-.062.064-.18-.296-.078-.613-.43-.703-.78-.096-.36-.428-.62-.769-.598-.501.032-.513.063-.064.182zm-112.361.675c.164.852 1.246.946 1.246.11 0-.467-.21-.677-.678-.677-.466 0-.643.175-.568.567zm-10.95.63c-.555.555-.193 1.416.599 1.416 1.04 0 1.12-.966.082-1.013-.705-.032-.701-.044.08-.294.716-.228.734-.265.138-.294-.374-.018-.778.066-.9.186zm104.316.926c0 .272.29.49.653.49.363 0 .653-.218.653-.49 0-.273-.29-.49-.653-.49-.363 0-.653.217-.653.49zm402.557-.004a.8.8 0 00.717.717c.471.047.498.02.098-.098-.304-.092-.627-.413-.717-.717-.12-.4-.147-.372-.098.098zm-516.809.725c-.888.17-.988 1.076-.12 1.076.341 0 .692-.292.786-.654.095-.359.147-.633.12-.608-.027.024-.382.108-.786.186zm176.972 1.402c0 .18.294.327.653.327.359 0 .653-.147.653-.327 0-.179-.294-.326-.653-.326-.359 0-.653.147-.653.326zm402.78.466c0 .633.167.841.676.841.514 0 .651-.176.571-.731-.155-1.086-1.247-1.182-1.247-.11zm-590.94.351c0 .269.22.49.49.49.269 0 .49-.221.49-.49a.49.49 0 00-.98 0zM7.77 80.46c.08.426.351.773.598.773.676 0 .547-1.206-.147-1.386-.482-.127-.57-.008-.45.613zm635.764 1.59c0 .508.186.817.49.817.305 0 .49-.31.49-.817 0-.508-.185-.817-.49-.817-.304 0-.49.31-.49.817zm35.693 6.93c.496.077 1.231.075 1.633-.003.402-.079-.004-.14-.902-.138-.899.004-1.227.067-.731.142zm-48.106 19.367c0 .435.218.653.653.653.437 0 .654-.218.654-.653 0-.437-.217-.654-.654-.654-.435 0-.653.217-.653.654zm12.413 1.47c0 .269.221.49.49.49a.49.49 0 10-.49-.49zm10.127 1.557c0 .286-.331.584-.735.662l-.735.141.745.045c.719.043 1.348-.748.929-1.168-.112-.112-.204.031-.204.32zm6.268 1.464c.059.315.427.617.815.674.571.08.673-.03.53-.572-.222-.847-1.506-.943-1.345-.102zm85.035.715c.562.259.574.304.082.323-.817.034-.715 1.004.104 1.004.921 0 .749-1.429-.186-1.546l-.653-.083.653.302zm-66.476 3.777c0 .272.29.49.653.49.363 0 .653-.218.653-.49s-.29-.49-.653-.49c-.363 0-.653.218-.653.49zm92.12 15.19c0 .363.218.653.49.653.273 0 .49-.29.49-.653 0-.363-.217-.653-.49-.653-.272 0-.49.29-.49.653zm-50.634.163a.49.49 0 10.49-.49.492.492 0 00-.49.49zm15.354 7.64c0 .337.269.684.6.77.482.127.57.008.451-.613-.175-.916-1.051-1.047-1.051-.157zm2.94 1.507c0 .268.22.49.49.49a.49.49 0 10-.49-.49zm-64.68 18.093c0 .745 1.592 1.178 1.851.501.254-.664-.173-1.117-1.055-1.117-.563 0-.796.181-.796.616zm14.085 4.855c-.03.566.131.727.696.697.521-.027.574-.08.184-.184-.304-.078-.618-.392-.698-.696-.102-.392-.157-.337-.182.183zm-566.762 1.611c.038.77.069.801.187.186.168-.87.956-.978 1.197-.163.132.445.153.428.102-.082-.114-1.129-1.54-1.074-1.486.059zm494.857 1.574c0 .272.29.49.653.49.363 0 .653-.218.653-.49 0-.273-.29-.49-.653-.49-.363 0-.653.217-.653.49zm76.44 0c0 .272.29.49.653.49.363 0 .653-.218.653-.49 0-.273-.29-.49-.653-.49-.363 0-.653.217-.653.49zm3.266 1.47c0 .364.217.654.49.654.272 0 .49-.29.49-.654 0-.363-.218-.653-.49-.653-.273 0-.49.29-.49.653zm-86.201 1.552c.023.553.094.678.186.327.082-.315.359-.572.615-.572.257 0 .467-.147.467-.327 0-.179-.294-.326-.653-.326-.505 0-.645.204-.615.898zm-1.102 1.429c.185.705 1.063.837 1.063.161 0-.249-.275-.524-.612-.612-.47-.123-.574-.02-.451.451zm102.657 9.106c0 .363.218.653.49.653.273 0 .49-.29.49-.653 0-.363-.217-.653-.49-.653-.272 0-.49.29-.49.653zm-115.065 1.807c.109.574.354.796.85.768.553-.029.578-.068.126-.188-.314-.08-.571-.349-.571-.596 0-.245-.125-.523-.28-.619-.153-.094-.21.19-.125.635zm-4.797 5.951c-.017.525-.235.746-.76.774-.553.027-.594.074-.163.186.314.082.586.47.604.86.018.4.165.149.333-.572.167-.707.237-1.442.157-1.634-.078-.193-.157-.018-.171.386zm127.375 1.523c0 .774 2.287 1.609 2.854 1.042.107-.108-.196-.196-.677-.196-.711 0-.87-.151-.87-.817 0-.6-.174-.817-.654-.817-.473 0-.653.217-.653.788zm-589.633 3.163c0 .406.228.623.653.623.359 0 .653-.204.653-.452 0-.249-.294-.53-.653-.624-.484-.125-.653-.01-.653.453zm554.353.133c0 .273.29.49.653.49.364 0 .654-.217.654-.49 0-.272-.29-.49-.654-.49-.363 0-.653.218-.653.49zm-494.573 1.47c0 .435.218.653.653.653.435 0 .653-.218.653-.653 0-.437-.218-.654-.653-.654-.435 0-.653.217-.653.654zm-65.66 3.103c0 .272.29.49.653.49.363 0 .653-.218.653-.49s-.29-.49-.653-.49c-.363 0-.653.218-.653.49zm600.413 0c0 .268.222.49.49.49a.49.49 0 10-.49-.49zM0 200.14c0 .435.218.653.653.653.437 0 .654-.218.654-.653 0-.435-.217-.653-.654-.653-.435 0-.653.218-.653.653zm87.463-.041c-.123.47-.02.574.45.451.338-.087.614-.363.614-.612 0-.676-.88-.545-1.064.161zM1.49 210.193c-.526.525-.134 1.38.633 1.38.582 0 .817-.177.817-.616 0-.586-1.066-1.148-1.45-.764zm577.69 2.034c0 .363.218.653.49.653s.49-.29.49-.653c0-.364-.218-.654-.49-.654-.273 0-.49.29-.49.654zm-344.082 7.072c.394.084.79.402.88.706.118.397.145.368.098-.102-.045-.443-.327-.671-.88-.706-.68-.045-.698-.029-.098.102zM4.9 220.067c0 .363.218.653.49.653s.49-.29.49-.653c0-.364-.218-.654-.49-.654s-.49.29-.49.654zm697.76 1.47c0 .269.147.49.327.49.179 0 .326-.221.326-.49 0-.27-.147-.49-.326-.49-.18 0-.327.22-.327.49zm-623.025 1.588c-.118.621-.03.741.453.615.693-.18.82-1.387.147-1.387-.25 0-.518.349-.6.772zm-7.442 9.028c0 .364.217.654.49.654.272 0 .49-.29.49-.654 0-.363-.218-.653-.49-.653-.273 0-.49.29-.49.653zm-35.606 15.354c0 .435.218.653.653.653.435 0 .653-.218.653-.653 0-.437-.218-.654-.653-.654-.435 0-.653.217-.653.654zm7.84 3.266c0 .437.218.654.653.654.435 0 .653-.217.653-.654 0-.436-.218-.653-.653-.653-.435 0-.653.218-.653.653zm560.56 1.307c0 .435.218.653.653.653.435 0 .653-.218.653-.653 0-.435-.218-.653-.653-.653-.435 0-.653.218-.653.653zm1.633 4.573c0 .364.218.654.49.654s.49-.29.49-.654c0-.363-.218-.653-.49-.653-.273 0-.49.29-.49.653zm93.331 2.94c.094.36.359.654.586.654.228 0 .49-.294.584-.654.136-.514.01-.653-.584-.653-.596 0-.719.139-.586.653zm-632.549.327c.04.6.251.829.794.86.576.034.598.012.102-.102-.35-.08-.707-.466-.794-.86-.129-.596-.145-.578-.102.102zm47.585 6.043c0 .272.29.49.653.49.363 0 .653-.218.653-.49 0-.273-.29-.49-.653-.49-.363 0-.653.217-.653.49zm85.26-.079c0 .286-.258.588-.572.671-.535.141-.535.152.01.188.592.037 1.139-.802.766-1.174-.114-.112-.204.029-.204.315zm494.9 1.386c0 .582.177.817.616.817.396 0 .67-.29.77-.817.131-.684.031-.817-.615-.817-.604 0-.771.176-.771.817zm-81.014 1.633c0 .272.29.49.654.49.363 0 .653-.218.653-.49 0-.273-.29-.49-.653-.49-.364 0-.654.217-.654.49zm112.047 0c0 .27.222.49.49.49.269 0 .49-.22.49-.49a.492.492 0 00-.49-.49.493.493 0 00-.49.49zm-2.94 6.37c0 .364.218.654.49.654s.49-.29.49-.654c0-.363-.218-.653-.49-.653s-.49.29-.49.653zm-101.267 1.47c0 .305.309.49.817.49s.817-.185.817-.49c0-.304-.309-.49-.817-.49s-.817.186-.817.49zm-531.16 1.634a.491.491 0 10.49-.49c-.269 0-.49.22-.49.49zm47.592 5.275c.392.086.788.403.88.707.118.396.145.369.098-.102-.045-.445-.327-.67-.88-.707-.682-.045-.697-.028-.098.102zm28.522 3.708c0 .435.218.653.653.653.435 0 .653-.218.653-.653 0-.435-.218-.653-.653-.653-.435 0-.653.218-.653.653zm-65.66 4.41c0 .268.22.49.49.49a.49.49 0 10-.49-.49zm18.03 14.006c.134.939 1.57 1.18 1.57.265 0-.426-.28-.692-.835-.798-.701-.133-.817-.049-.735.533zm569.97 1.511c0 .363.218.653.49.653.273 0 .49-.29.49-.653 0-.364-.217-.654-.49-.654-.272 0-.49.29-.49.654zm-563.5 1.47c0 .273.29.49.653.49.363 0 .653-.217.653-.49 0-.272-.29-.49-.653-.49-.363 0-.653.218-.653.49zm555.986 1.633c0 .268.221.49.49.49a.49.49 0 10-.49-.49zm-46.154 3.103c-.136.519-.01.654.615.654.568 0 .786-.182.786-.654 0-.422-.218-.653-.615-.653-.342 0-.692.292-.786.653zM147 314.963c0 .272.29.49.653.49.364 0 .654-.218.654-.49 0-.273-.29-.49-.654-.49-.363 0-.653.217-.653.49zm496.433.184c-.141.543-.04.653.531.57.388-.055.754-.358.815-.672.161-.843-1.125-.745-1.346.102z" fill="#80ACF4"/><path fill-rule="evenodd" clip-rule="evenodd" d="M323.4.873c0 .36.204.654.453.654.247 0 .527-.294.621-.654.127-.484.01-.653-.451-.653-.405 0-.623.23-.623.653zm-41.487 2.614c0 .179.376.326.837.326.474 0 .748-.141.633-.326-.11-.18-.486-.327-.835-.327s-.635.147-.635.327zm119.234.816c0 .272.29.49.653.49.363 0 .653-.218.653-.49 0-.273-.29-.49-.653-.49-.363 0-.653.217-.653.49zM236.18 11c0 .18.22.327.49.327s.49-.147.49-.327c0-.18-.22-.327-.49-.327s-.49.147-.49.327zm-24.827 6.697c0 .273.29.49.654.49.363 0 .653-.217.653-.49 0-.272-.29-.49-.653-.49-.364 0-.654.218-.654.49zM316.867 28.64c0 .478.218.653.816.653.599 0 .817-.175.817-.653 0-.478-.218-.653-.817-.653-.598 0-.816.175-.816.653zm185.546 0c0 .363.217.653.49.653.272 0 .49-.29.49-.653 0-.363-.218-.653-.49-.653-.273 0-.49.29-.49.653zm-209.72 1.633c0 .425.217.654.623.654.463 0 .578-.168.453-.654-.094-.359-.375-.653-.624-.653-.248 0-.452.294-.452.653zm107.147 1.442c0 .473 2.475 1.092 2.854.714.107-.108-.196-.196-.676-.196-.557 0-.871-.177-.871-.49 0-.273-.29-.49-.654-.49-.359 0-.653.207-.653.462zM166.847 32.94c.18.694 1.386.823 1.386.147 0-.247-.347-.517-.773-.598-.621-.12-.74-.03-.613.451zm-3.073 1.431c-.108.276-.102.596.009.708.112.111.204-.032.204-.318 0-.286.257-.588.571-.668.537-.141.535-.153-.01-.189-.32-.021-.668.189-.774.467zm272.885 3.416c-.128.484-.01.653.452.653.404 0 .622-.23.622-.653 0-.36-.202-.654-.451-.654s-.529.294-.623.654zM214.62 45.463c0 .272.29.49.653.49.364 0 .654-.218.654-.49 0-.273-.29-.49-.654-.49-.363 0-.653.217-.653.49zm-87.547 6.044c0 .435.217.653.654.653.435 0 .653-.218.653-.653 0-.437-.218-.654-.653-.654-.437 0-.654.217-.654.654zm-14.945 8.391a2.69 2.69 0 001.144 0c.314-.082.057-.149-.572-.149s-.886.067-.572.149zm459.212.755c0 .437.217.654.653.654.437 0 .654-.217.654-.654 0-.435-.217-.653-.654-.653-.436 0-.653.218-.653.653zM189.024 64.8c.386.075.777.423.869.772.109.42.425.62.931.59.721-.041.725-.053.064-.182-.386-.075-.776-.423-.868-.772-.11-.42-.425-.62-.931-.59-.721.04-.723.053-.065.182zm327.681.004a4.623 4.623 0 001.47 0c.404-.079.072-.141-.735-.141-.81 0-1.139.063-.735.14zm-416.582 1.403c.558.24.57.285.082.304-.67.026-.786 1.002-.12 1.002.463 0 .929-1.123.602-1.45-.1-.1-.415-.173-.7-.16-.38.016-.344.096.136.304zM78.4 69.963a.49.49 0 10.98 0 .49.49 0 00-.98 0zm-10.89 1.035c-.449.45-.194 1.09.437 1.09.435 0 .653-.218.653-.655 0-.63-.639-.884-1.09-.436zm81.123.397c0 .385.286.67.76.76.649.124.741.034.616-.615-.179-.94-1.376-1.066-1.376-.145zm6.595-.413c.304.09.621.486.708.88.129.6.147.582.102-.098-.038-.553-.265-.835-.708-.88-.47-.047-.498-.02-.102.098zm1.633 1.307c.304.09.627.412.717.716.12.4.147.374.098-.098a.798.798 0 00-.717-.716c-.471-.049-.498-.021-.098.098zm-100.348.747c0 .463.168.578.654.453.359-.094.653-.375.653-.624 0-.248-.294-.452-.653-.452-.425 0-.654.217-.654.623zm479.606.11c.155 1.085 1.248 1.18 1.248.108 0-.632-.168-.841-.676-.841-.513 0-.651.176-.572.733zm-377.637.793c.296.079.613.43.703.779.096.36.428.619.769.597.501-.031.513-.062.064-.18-.296-.078-.613-.43-.703-.78-.096-.36-.428-.62-.769-.598-.501.032-.513.063-.064.182zm-112.361.675c.164.852 1.246.946 1.246.11 0-.467-.21-.677-.678-.677-.466 0-.643.175-.568.567zm-10.95.63c-.555.555-.193 1.416.599 1.416 1.04 0 1.12-.966.082-1.013-.705-.032-.701-.044.08-.294.716-.228.734-.265.138-.294-.374-.018-.778.066-.9.186zm104.316.926c0 .272.29.49.653.49.363 0 .653-.218.653-.49 0-.273-.29-.49-.653-.49-.363 0-.653.217-.653.49zm402.557-.004a.8.8 0 00.717.717c.471.047.498.02.098-.098-.304-.092-.627-.413-.717-.717-.12-.4-.147-.372-.098.098zm-516.809.725c-.888.17-.988 1.076-.12 1.076.341 0 .692-.292.786-.654.095-.359.147-.633.12-.608-.027.024-.382.108-.786.186zm176.972 1.402c0 .18.294.327.653.327.359 0 .653-.147.653-.327 0-.179-.294-.326-.653-.326-.359 0-.653.147-.653.326zm402.78.466c0 .633.167.841.676.841.514 0 .651-.176.571-.731-.155-1.086-1.247-1.182-1.247-.11zm-590.94.351c0 .269.22.49.49.49.269 0 .49-.221.49-.49a.49.49 0 00-.98 0zM7.77 80.46c.08.426.351.773.598.773.676 0 .547-1.206-.147-1.386-.482-.127-.57-.008-.45.613zm635.764 1.59c0 .508.186.817.49.817.305 0 .49-.31.49-.817 0-.508-.185-.817-.49-.817-.304 0-.49.31-.49.817zm35.693 6.93c.496.077 1.231.075 1.633-.003.402-.079-.004-.14-.902-.138-.899.004-1.227.067-.731.142zm-48.106 19.367c0 .435.218.653.653.653.437 0 .654-.218.654-.653 0-.437-.217-.654-.654-.654-.435 0-.653.217-.653.654zm12.413 1.47c0 .269.221.49.49.49a.49.49 0 10-.49-.49zm10.127 1.557c0 .286-.331.584-.735.662l-.735.141.745.045c.719.043 1.348-.748.929-1.168-.112-.112-.204.031-.204.32zm6.268 1.464c.059.315.427.617.815.674.571.08.673-.03.53-.572-.222-.847-1.506-.943-1.345-.102zm85.035.715c.562.259.574.304.082.323-.817.034-.715 1.004.104 1.004.921 0 .749-1.429-.186-1.546l-.653-.083.653.302zm-66.476 3.777c0 .272.29.49.653.49.363 0 .653-.218.653-.49s-.29-.49-.653-.49c-.363 0-.653.218-.653.49zm92.12 15.19c0 .363.218.653.49.653.273 0 .49-.29.49-.653 0-.363-.217-.653-.49-.653-.272 0-.49.29-.49.653zm-50.634.163a.49.49 0 10.49-.49.492.492 0 00-.49.49zm15.354 7.64c0 .337.269.684.6.77.482.127.57.008.451-.613-.175-.916-1.051-1.047-1.051-.157zm2.94 1.507c0 .268.22.49.49.49a.49.49 0 10-.49-.49zm-64.68 18.093c0 .745 1.592 1.178 1.851.501.254-.664-.173-1.117-1.055-1.117-.563 0-.796.181-.796.616zm14.085 4.855c-.03.566.131.727.696.697.521-.027.574-.08.184-.184-.304-.078-.618-.392-.698-.696-.102-.392-.157-.337-.182.183zm-566.762 1.611c.038.77.069.801.187.186.168-.87.956-.978 1.197-.163.132.445.153.428.102-.082-.114-1.129-1.54-1.074-1.486.059zm494.857 1.574c0 .272.29.49.653.49.363 0 .653-.218.653-.49 0-.273-.29-.49-.653-.49-.363 0-.653.217-.653.49zm76.44 0c0 .272.29.49.653.49.363 0 .653-.218.653-.49 0-.273-.29-.49-.653-.49-.363 0-.653.217-.653.49zm3.266 1.47c0 .364.217.654.49.654.272 0 .49-.29.49-.654 0-.363-.218-.653-.49-.653-.273 0-.49.29-.49.653zm-86.201 1.552c.023.553.094.678.186.327.082-.315.359-.572.615-.572.257 0 .467-.147.467-.327 0-.179-.294-.326-.653-.326-.505 0-.645.204-.615.898zm-1.102 1.429c.185.705 1.063.837 1.063.161 0-.249-.275-.524-.612-.612-.47-.123-.574-.02-.451.451zm102.657 9.106c0 .363.218.653.49.653.273 0 .49-.29.49-.653 0-.363-.217-.653-.49-.653-.272 0-.49.29-.49.653zm-115.065 1.807c.109.574.354.796.85.768.553-.029.578-.068.126-.188-.314-.08-.571-.349-.571-.596 0-.245-.125-.523-.28-.619-.153-.094-.21.19-.125.635zm-4.797 5.951c-.017.525-.235.746-.76.774-.553.027-.594.074-.163.186.314.082.586.47.604.86.018.4.165.149.333-.572.167-.707.237-1.442.157-1.634-.078-.193-.157-.018-.171.386zm127.375 1.523c0 .774 2.287 1.609 2.854 1.042.107-.108-.196-.196-.677-.196-.711 0-.87-.151-.87-.817 0-.6-.174-.817-.654-.817-.473 0-.653.217-.653.788zm-589.633 3.163c0 .406.228.623.653.623.359 0 .653-.204.653-.452 0-.249-.294-.53-.653-.624-.484-.125-.653-.01-.653.453zm554.353.133c0 .273.29.49.653.49.364 0 .654-.217.654-.49 0-.272-.29-.49-.654-.49-.363 0-.653.218-.653.49zm-494.573 1.47c0 .435.218.653.653.653.435 0 .653-.218.653-.653 0-.437-.218-.654-.653-.654-.435 0-.653.217-.653.654zm-65.66 3.103c0 .272.29.49.653.49.363 0 .653-.218.653-.49s-.29-.49-.653-.49c-.363 0-.653.218-.653.49zm600.413 0c0 .268.222.49.49.49a.49.49 0 10-.49-.49zM0 200.14c0 .435.218.653.653.653.437 0 .654-.218.654-.653 0-.435-.217-.653-.654-.653-.435 0-.653.218-.653.653zm87.463-.041c-.123.47-.02.574.45.451.338-.087.614-.363.614-.612 0-.676-.88-.545-1.064.161zM1.49 210.193c-.526.525-.134 1.38.633 1.38.582 0 .817-.177.817-.616 0-.586-1.066-1.148-1.45-.764zm577.69 2.034c0 .363.218.653.49.653s.49-.29.49-.653c0-.364-.218-.654-.49-.654-.273 0-.49.29-.49.654zm-344.082 7.072c.394.084.79.402.88.706.118.397.145.368.098-.102-.045-.443-.327-.671-.88-.706-.68-.045-.698-.029-.098.102zM4.9 220.067c0 .363.218.653.49.653s.49-.29.49-.653c0-.364-.218-.654-.49-.654s-.49.29-.49.654zm697.76 1.47c0 .269.147.49.327.49.179 0 .326-.221.326-.49 0-.27-.147-.49-.326-.49-.18 0-.327.22-.327.49zm-623.025 1.588c-.118.621-.03.741.453.615.693-.18.82-1.387.147-1.387-.25 0-.518.349-.6.772zm-7.442 9.028c0 .364.217.654.49.654.272 0 .49-.29.49-.654 0-.363-.218-.653-.49-.653-.273 0-.49.29-.49.653zm-35.606 15.354c0 .435.218.653.653.653.435 0 .653-.218.653-.653 0-.437-.218-.654-.653-.654-.435 0-.653.217-.653.654zm7.84 3.266c0 .437.218.654.653.654.435 0 .653-.217.653-.654 0-.436-.218-.653-.653-.653-.435 0-.653.218-.653.653zm560.56 1.307c0 .435.218.653.653.653.435 0 .653-.218.653-.653 0-.435-.218-.653-.653-.653-.435 0-.653.218-.653.653zm1.633 4.573c0 .364.218.654.49.654s.49-.29.49-.654c0-.363-.218-.653-.49-.653-.273 0-.49.29-.49.653zm93.331 2.94c.094.36.359.654.586.654.228 0 .49-.294.584-.654.136-.514.01-.653-.584-.653-.596 0-.719.139-.586.653zm-632.549.327c.04.6.251.829.794.86.576.034.598.012.102-.102-.35-.08-.707-.466-.794-.86-.129-.596-.145-.578-.102.102zm47.585 6.043c0 .272.29.49.653.49.363 0 .653-.218.653-.49 0-.273-.29-.49-.653-.49-.363 0-.653.217-.653.49zm85.26-.079c0 .286-.258.588-.572.671-.535.141-.535.152.01.188.592.037 1.139-.802.766-1.174-.114-.112-.204.029-.204.315zm494.9 1.386c0 .582.177.817.616.817.396 0 .67-.29.77-.817.131-.684.031-.817-.615-.817-.604 0-.771.176-.771.817zm-81.014 1.633c0 .272.29.49.654.49.363 0 .653-.218.653-.49 0-.273-.29-.49-.653-.49-.364 0-.654.217-.654.49zm112.047 0c0 .27.222.49.49.49.269 0 .49-.22.49-.49a.492.492 0 00-.49-.49.493.493 0 00-.49.49zm-2.94 6.37c0 .364.218.654.49.654s.49-.29.49-.654c0-.363-.218-.653-.49-.653s-.49.29-.49.653zm-101.267 1.47c0 .305.309.49.817.49s.817-.185.817-.49c0-.304-.309-.49-.817-.49s-.817.186-.817.49zm-531.16 1.634a.491.491 0 10.49-.49c-.269 0-.49.22-.49.49zm47.592 5.275c.392.086.788.403.88.707.118.396.145.369.098-.102-.045-.445-.327-.67-.88-.707-.682-.045-.697-.028-.098.102zm28.522 3.708c0 .435.218.653.653.653.435 0 .653-.218.653-.653 0-.435-.218-.653-.653-.653-.435 0-.653.218-.653.653zm-65.66 4.41c0 .268.22.49.49.49a.49.49 0 10-.49-.49zm18.03 14.006c.134.939 1.57 1.18 1.57.265 0-.426-.28-.692-.835-.798-.701-.133-.817-.049-.735.533zm569.97 1.511c0 .363.218.653.49.653.273 0 .49-.29.49-.653 0-.364-.217-.654-.49-.654-.272 0-.49.29-.49.654zm-563.5 1.47c0 .273.29.49.653.49.363 0 .653-.217.653-.49 0-.272-.29-.49-.653-.49-.363 0-.653.218-.653.49zm555.986 1.633c0 .268.221.49.49.49a.49.49 0 10-.49-.49zm-46.154 3.103c-.136.519-.01.654.615.654.568 0 .786-.182.786-.654 0-.422-.218-.653-.615-.653-.342 0-.692.292-.786.653zM147 314.963c0 .272.29.49.653.49.364 0 .654-.218.654-.49 0-.273-.29-.49-.654-.49-.363 0-.653.217-.653.49zm496.433.184c-.141.543-.04.653.531.57.388-.055.754-.358.815-.672.161-.843-1.125-.745-1.346.102z" fill="#80ACF4"/></svg>