<svg width="52" height="43" fill="none" xmlns="http://www.w3.org/2000/svg"><path fill-rule="evenodd" clip-rule="evenodd" d="M.5 2A1.5 1.5 0 012 .5h35.303a1.5 1.5 0 011.5 1.5v8.714H50a1.5 1.5 0 011.5 1.5V41a1.5 1.5 0 01-2.56 1.06l-5.135-5.131H18.413a1.5 1.5 0 01-1.5-1.5v-5.62h-6.24L3.06 37.42A1.5 1.5 0 01.5 36.356V2zm19.413 27.81v4.119h24.513a1.5 1.5 0 011.06.439L48.5 37.38V13.714h-9.697V28.31a1.5 1.5 0 01-1.5 1.5h-17.39zM3.5 3.5v29.237l5.491-5.488a1.5 1.5 0 011.06-.44h25.752V3.5H3.5zm5.671 5.619a1.5 1.5 0 011.5-1.5h17.652a1.5 1.5 0 010 3H10.67a1.5 1.5 0 01-1.5-1.5zm-2.787 6.19a1.5 1.5 0 011.5-1.5H31.11a1.5 1.5 0 010 3H7.884a1.5 1.5 0 01-1.5-1.5zm2.787 5.882a1.5 1.5 0 011.5-1.5h17.652a1.5 1.5 0 010 3H10.67a1.5 1.5 0 01-1.5-1.5z" fill="#7CACF3"/></svg>