<svg width="53" height="55" fill="none" xmlns="http://www.w3.org/2000/svg"><path fill-rule="evenodd" clip-rule="evenodd" d="M7.208 5.1c-1.446 1.203-2.54 3.089-2.54 5.912 0 2.811 1.11 4.638 2.558 5.791 1.492 1.187 3.42 1.712 5.048 1.712.482 0 .995-.049 1.518-.152 1.425-.283 2.875-.966 3.995-2.137 1.107-1.155 1.954-2.85 2.096-5.286.162-2.798-.912-4.652-2.388-5.843-1.527-1.231-3.545-1.795-5.22-1.795-1.663 0-3.584.566-5.067 1.799zM5.61 3.179C7.597 1.527 10.104.802 12.274.802c2.157 0 4.754.706 6.79 2.35 2.087 1.683 3.525 4.308 3.314 7.933-.173 2.986-1.239 5.255-2.785 6.87-1.254 1.31-2.783 2.148-4.308 2.609v7.428h.615c.69 0 1.25.56 1.25 1.25v22.574h13.866V46.6h-5.483c-.69 0-1.25-.56-1.25-1.25v-5.386c0-.69.56-1.25 1.25-1.25h.666v-1.96c0-.691.56-1.25 1.25-1.25h.977v-7.348c0-1.985.595-3.622 1.72-4.767a5.35 5.35 0 01.323-.302h-3.02c-1.093 0-2.061-.45-2.715-1.336-.616-.835-.866-1.936-.866-3.125 0-1.495.581-2.54 1.445-3.163.79-.57 1.664-.676 2.136-.676h3.107c.69 0 1.25.56 1.25 1.25v1.34h2.137l1.332-9.134c.004-.028.01-.055.015-.082.295-1.369 1.717-4.342 5.184-4.558 2.718-.17 8.168-.071 10.524-.002a1.25 1.25 0 011.214 1.25v40.5c0 .69-.56 1.25-1.25 1.25h-9.885v5.216h10.506v2.5H0v-2.5h7.295V29.242c0-.69.56-1.25 1.25-1.25h.615v-7.438a10.33 10.33 0 01-3.49-1.794c-2.047-1.63-3.502-4.178-3.502-7.748 0-3.557 1.418-6.15 3.442-7.834zm6.05 17.818v6.997h1.125v-6.991a10.001 10.001 0 01-1.125-.006zm2.99 9.497H9.795v2.264h4.855v-2.264zm0 4.764H9.795v16.56h4.855v-16.56zm23.927 16.56V46.6h-1.28v2.997h-2.5V46.6h-1.281v5.217h5.06zm-4.999-31.942h-1.772v1.961c0 .157-.029.307-.081.445a6.008 6.008 0 011.57-.47l.283-1.936zm2.256 1.85h13.878V6.069c-2.663-.06-6.875-.11-9.082.029-1.81.113-2.683 1.669-2.888 2.552l-1.907 13.077zm13.878 2.5H34.389c-1.056 0-1.89.336-2.46.916-.567.577-1.003 1.529-1.003 3.014v8.597c0 .69-.56 1.25-1.25 1.25h-.977v.711h21.013V24.226zm0 16.988h-22.93V44.1h22.93v-2.886zM9.16 6.506c0-.69.56-1.25 1.25-1.25h2.693c.958 0 1.827.446 2.412 1.272.556.785.806 1.834.806 3.034 0 1.448-.57 2.461-1.289 3.098a3.635 3.635 0 01-1.012.635c-.274.114-.608.21-.917.21H11.66v2.065h-2.5V6.506zm2.5 4.5h1.35a1.133 1.133 0 00.364-.217c.188-.166.447-.5.447-1.227 0-.89-.19-1.369-.346-1.589-.127-.179-.242-.217-.372-.217H11.66v3.25zm15.115 6.484c-.142.102-.407.352-.407 1.135 0 .883.191 1.388.378 1.64.149.203.346.321.703.321h1.857v-3.3H27.45c-.167 0-.458.049-.674.204zm18.828 17.577c-.75 1.406-2.109 2.478-4.029 2.86-1.675.332-3.154-.042-4.3-.886-1.121-.825-1.854-2.046-2.202-3.324-.677-2.492.037-5.738 3.02-7.021a1.26 1.26 0 01.104-.04c1.994-.654 3.785-.453 5.198.381 1.387.819 2.284 2.174 2.667 3.613.382 1.436.275 3.043-.458 4.417zm-6.572-6.053c-1.435.65-2.01 2.344-1.546 4.047.226.83.679 1.53 1.271 1.967.567.417 1.328.645 2.332.446 1.213-.24 1.925-.864 2.309-1.583.4-.751.487-1.698.248-2.599-.239-.898-.779-1.663-1.522-2.102-.708-.418-1.722-.612-3.092-.176z" fill="#7CACF3"/></svg>