<svg width="32" height="32" fill="none" xmlns="http://www.w3.org/2000/svg"><path fill-rule="evenodd" clip-rule="evenodd" d="M9.956 1.422c1.564-.072 2.063-.088 6.047-.088 3.984 0 4.482.017 6.045.088 1.563.07 2.63.32 3.563.681a7.22 7.22 0 012.597 1.694 7.163 7.163 0 011.69 2.596c.363.933.611 2 .683 3.56.072 1.566.088 2.065.088 6.048 0 3.984-.017 4.482-.088 6.046-.07 1.56-.32 2.627-.682 3.56a7.195 7.195 0 01-1.691 2.599 7.192 7.192 0 01-2.597 1.69c-.934.363-2 .611-3.56.683-1.566.072-2.064.088-6.048.088s-4.483-.017-6.047-.088c-1.56-.07-2.627-.32-3.56-.682a7.196 7.196 0 01-2.599-1.691 7.19 7.19 0 01-1.692-2.597c-.361-.934-.61-2-.681-3.56-.072-1.567-.088-2.066-.088-6.048 0-3.984.017-4.483.088-6.046.07-1.562.32-2.629.681-3.562A7.195 7.195 0 013.8 3.795a7.19 7.19 0 012.596-1.692c.933-.361 2-.609 3.56-.681zm11.973 2.64c-1.546-.07-2.01-.085-5.926-.085-3.916 0-4.38.014-5.927.085-1.43.065-2.207.304-2.724.505a4.554 4.554 0 00-1.687 1.096A4.55 4.55 0 004.57 7.35c-.201.517-.44 1.293-.505 2.724-.07 1.547-.085 2.01-.085 5.927 0 3.916.014 4.38.085 5.926.065 1.431.304 2.207.505 2.724.235.636.61 1.214 1.096 1.687.474.487 1.05.861 1.687 1.096.517.201 1.293.44 2.724.505 1.547.071 2.01.086 5.927.086s4.38-.015 5.926-.086c1.43-.065 2.207-.304 2.724-.505a4.555 4.555 0 001.687-1.096 4.551 4.551 0 001.096-1.687c.201-.517.44-1.293.505-2.724.07-1.546.086-2.01.086-5.926 0-3.916-.015-4.38-.086-5.927-.065-1.43-.304-2.207-.505-2.724a4.553 4.553 0 00-1.096-1.687 4.55 4.55 0 00-1.687-1.096c-.517-.201-1.293-.44-2.724-.505zm-7.8 16.46a4.892 4.892 0 005.334-7.981 4.892 4.892 0 10-5.334 7.981zm-3.457-9.852a7.539 7.539 0 1110.661 10.661A7.539 7.539 0 0110.672 10.67zm14.541-1.085a1.784 1.784 0 00-.553-2.949 1.783 1.783 0 10.553 2.949z" fill="#7CACF3"/></svg>