<svg width="31" height="31" fill="none" xmlns="http://www.w3.org/2000/svg"><path d="M30.54 6.377a12.09 12.09 0 01-3.456.947 6.032 6.032 0 002.646-3.33 12.011 12.011 0 01-3.821 1.46 6.02 6.02 0 00-10.253 5.489A17.087 17.087 0 013.253 4.655 6.014 6.014 0 002.44 7.68a6.02 6.02 0 002.677 5.01 6.002 6.002 0 01-2.726-.754v.078a6.02 6.02 0 004.827 5.9 6.061 6.061 0 01-2.717.103 6.021 6.021 0 005.62 4.178 12.075 12.075 0 01-7.473 2.577c-.48 0-.96-.028-1.436-.084a17.018 17.018 0 009.222 2.703c11.07 0 17.122-9.168 17.122-17.12 0-.258-.007-.519-.019-.777a12.232 12.232 0 003-3.113l.003-.004z" fill="#7CACF3"/></svg>