<svg width="52" height="53" fill="none" xmlns="http://www.w3.org/2000/svg"><path fill-rule="evenodd" clip-rule="evenodd" d="M37.73 3.633l-7.022 6.841a.75.75 0 00-.227.537v6.945a3.25 3.25 0 01-1.114 2.45 4718.475 4718.475 0 00-8.044 7.03C14.51 33.406 7.061 39.97 4.927 41.971c-1.32 1.238-1.712 2.608-1.675 3.801.04 1.25.55 2.285.992 2.757.178.19.792.724 1.722.956.874.219 2.15.203 3.793-.854.391-.25 1.105-.883 2.11-1.895.978-.984 2.157-2.251 3.455-3.696 2.595-2.887 5.634-6.447 8.436-9.788 1.389-1.656 2.823-3.193 4.099-4.55l.262-.28c1.178-1.252 2.183-2.32 2.91-3.212.601-.736 1.096-1.355 1.442-1.79a3.277 3.277 0 012.315-1.234l7.084-.543a.68.68 0 00.407-.168c1.678-1.518 4.556-4.416 6.007-6.849.844-1.415.423-2.821-.393-3.965a.173.173 0 00-.068-.061.23.23 0 00-.104-.018.627.627 0 00-.419.208l-3.613 3.828c-.818.89-1.951 1.049-2.905.892-.951-.157-1.885-.638-2.625-1.272-.738-.632-1.39-1.508-1.63-2.54-.253-1.094-.013-2.257.866-3.256l.017-.019 3.846-4.197a.719.719 0 00.126-.19.454.454 0 00.04-.147c-.533-.412-1.27-.628-2.033-.639-.752-.01-1.353.18-1.662.383zM39.424.751c1.187.016 2.516.353 3.586 1.205.7.557.955 1.354.909 2.088a3.097 3.097 0 01-.819 1.871l-3.836 4.187c-.335.385-.372.719-.3 1.031.087.375.365.816.82 1.206.453.388.976.633 1.405.704.424.07.59-.042.66-.118l.014-.016 3.62-3.835c1.085-1.15 3.247-1.54 4.443.134 1.108 1.551 2.07 4.076.506 6.698-1.652 2.772-4.77 5.877-6.475 7.422a3.18 3.18 0 01-1.895.808l-7.084.543a.777.777 0 00-.548.294c-.18.227-.399.502-.651.816l3.45 2.646 10.302 7.456c.59.362 1.236 1.03 1.792 1.81a10.35 10.35 0 011.518 3.138c.71 2.507.448 5.616-2.396 8.324-2.713 2.584-5.467 3.233-7.668 3.061a8.128 8.128 0 01-2.706-.683 5.79 5.79 0 01-.909-.508 2.738 2.738 0 01-.637-.591l-11.82-14.429c-2.531 3.004-5.198 6.113-7.522 8.698a109.06 109.06 0 01-3.54 3.787c-.991.997-1.882 1.818-2.533 2.236-2.203 1.417-4.184 1.568-5.752 1.177-1.512-.378-2.526-1.231-2.94-1.675-.891-.952-1.608-2.58-1.665-4.385-.06-1.862.585-3.941 2.462-5.703 2.078-1.95 9.02-8.07 15.562-13.806a196.9 196.9 0 00-1.99-2.31 698.656 698.656 0 00-4.338-4.909.737.737 0 00-.325-.21l-4.94-1.61a3.25 3.25 0 01-1.857-1.553L1.806 9.187a3.25 3.25 0 01.513-3.78l2.339-2.451a3.25 3.25 0 013.82-.655l6.2 3.141a3.25 3.25 0 011.642 1.955l1.665 5.483a.75.75 0 00.21.335l7.614 6.977 1.915-1.671a.75.75 0 00.257-.566v-6.944c0-.876.354-1.716.982-2.328l7.092-6.909c.04-.038.08-.074.124-.106.86-.642 2.082-.933 3.246-.917zm-15.51 21.096l-7.409-6.789a3.249 3.249 0 01-.914-1.452l-1.665-5.482a.75.75 0 00-.378-.451L7.347 4.53a.75.75 0 00-.881.15l-2.34 2.451a.75.75 0 00-.117.873l3.522 6.563a.75.75 0 00.429.358l4.94 1.609a3.238 3.238 0 011.416.925 731.611 731.611 0 014.355 4.928 199.367 199.367 0 011.988 2.307c1.121-.982 2.216-1.94 3.256-2.848zm2.431 12.224l2.117 2.584 6.199-7.04-2.482-1.902c-.653.737-1.413 1.545-2.215 2.398l-.285.303a120.702 120.702 0 00-3.334 3.657zm10.325-2.955l-6.603 7.499 8.418 10.276.023.027a.756.756 0 00.084.063c.11.078.282.18.512.283.46.21 1.102.408 1.868.468 1.491.116 3.548-.284 5.748-2.38 2.07-1.97 2.214-4.072 1.715-5.831a7.847 7.847 0 00-1.148-2.369c-.477-.669-.901-1.036-1.07-1.134a1.261 1.261 0 01-.107-.07l-9.44-6.832z" fill="#7CACF3"/></svg>