<svg xmlns="http://www.w3.org/2000/svg" width="231" height="25" fill="none">
  <path fill="#2E373B" d="M14.03 5.8h1.33L12.13 17h-1.25L7.81 8 4.8 17H3.55L.16 5.8H1.7l2.6 8.91L7.2 5.8h1.31l2.98 8.91 2.54-8.91Zm7.36 9.4.4 1.02c-.69.63-1.59.94-2.7.94-1.17 0-2.1-.34-2.8-1.02a3.64 3.64 0 0 1-1.06-2.74 3.8 3.8 0 0 1 1-2.69 3.5 3.5 0 0 1 2.72-1.07c.96 0 1.75.3 2.38.93.64.6.96 1.4.96 2.37 0 .3-.03.6-.08.86h-5.54c.06.67.3 1.2.76 1.58.46.39 1.04.58 1.76.58a3.1 3.1 0 0 0 2.2-.75Zm-2.5-4.36c-.64 0-1.16.18-1.58.53-.4.35-.64.81-.72 1.39h4.37a1.96 1.96 0 0 0-.6-1.4 2.06 2.06 0 0 0-1.48-.52Zm5.14 5.49V5.8h1.28v4.69a3.42 3.42 0 0 1 2.24-.85 3.2 3.2 0 0 1 2.5 1c.61.67.92 1.55.92 2.65 0 1.18-.36 2.13-1.09 2.83-.72.7-1.7 1.04-2.9 1.04-1.21 0-2.2-.28-2.95-.83Zm3.23-5.49c-.37 0-.74.1-1.1.27-.37.18-.65.4-.85.66v3.7c.49.32 1.06.49 1.73.49.75 0 1.37-.23 1.85-.7s.72-1.1.72-1.88c0-.79-.21-1.4-.64-1.85-.43-.46-1-.69-1.71-.69Zm9.2 4.2c0-.25-.14-.46-.4-.63-.27-.17-.6-.31-.98-.42-.37-.12-.75-.25-1.14-.4-.38-.15-.7-.38-.97-.7-.27-.33-.4-.74-.4-1.22 0-.6.22-1.1.67-1.47a2.68 2.68 0 0 1 1.78-.56c1.05 0 1.88.28 2.48.85l-.61.97a2.66 2.66 0 0 0-1.81-.7c-.34 0-.62.09-.83.26a.79.79 0 0 0-.32.64c0 .27.13.5.4.68a4 4 0 0 0 .96.44c.38.1.77.23 1.15.38.38.14.71.36.98.67.26.31.4.7.4 1.15 0 .72-.27 1.26-.8 1.64a3.4 3.4 0 0 1-1.99.54c-.56 0-1.1-.12-1.61-.35-.53-.25-.87-.5-1.04-.77l.72-.91c.21.24.52.46.92.64.43.18.81.27 1.16.27.37 0 .67-.09.9-.26a.87.87 0 0 0 .38-.73ZM41.32 17h-1.28V9.8h1.28V17Zm-1.44-9.9c0-.23.08-.4.24-.55a.83.83 0 0 1 .59-.22c.22 0 .4.07.56.22a.7.7 0 0 1 .22.55c0 .24-.07.44-.22.6a.76.76 0 0 1-.56.23.83.83 0 0 1-.6-.23.82.82 0 0 1-.23-.6Zm3.92 7.16V7.8h1.28v2h2.64V11h-2.64v3.14c0 1.2.43 1.79 1.28 1.79.42 0 .8-.14 1.14-.4l.4.99c-.5.4-1.11.6-1.84.6-.78 0-1.35-.23-1.71-.7-.36-.47-.55-1.19-.55-2.16Zm11.2.95.4 1c-.69.64-1.6.95-2.7.95-1.17 0-2.1-.34-2.8-1.02a3.64 3.64 0 0 1-1.06-2.74 3.8 3.8 0 0 1 1-2.69 3.5 3.5 0 0 1 2.72-1.07c.96 0 1.75.3 2.38.93.64.6.96 1.4.96 2.37 0 .3-.03.6-.08.86h-5.54c.06.67.3 1.2.76 1.58.45.39 1.04.58 1.76.58a3.1 3.1 0 0 0 2.2-.75Zm-2.5-4.37c-.64 0-1.16.18-1.58.53-.4.35-.64.81-.72 1.39h4.37a1.96 1.96 0 0 0-.6-1.4 2.06 2.06 0 0 0-1.48-.52Zm8.73 5.49V5.8h1.28v4.69a3.42 3.42 0 0 1 2.24-.85 3.2 3.2 0 0 1 2.5 1c.61.67.92 1.55.92 2.65 0 1.18-.36 2.13-1.08 2.83-.73.7-1.7 1.04-2.92 1.04-1.2 0-2.18-.28-2.94-.83Zm3.23-5.49c-.37 0-.74.1-1.1.27-.36.18-.65.4-.85.66v3.7c.5.32 1.07.49 1.73.49.76 0 1.37-.23 1.85-.7s.72-1.1.72-1.88c0-.79-.2-1.4-.64-1.85-.42-.46-1-.69-1.7-.69ZM74.82 9.8h1.45L73.4 17a9.35 9.35 0 0 1-1.36 2.53c-.4.45-.87.67-1.39.67-.47 0-.92-.15-1.36-.45l.42-.97c.34.16.6.24.8.24.3 0 .56-.13.8-.39.24-.25.49-.67.73-1.25l.16-.38-3.45-7.2h1.53l2.12 4.58c.04.07.18.43.43 1.08.1-.35.2-.72.33-1.1l1.67-4.56Z"/>
  <g fill="#2E373B">
    <path d="M87 16.95 91.77 6.1h1.76l4.77 10.85h-2l-1.1-2.6h-5.12l-1.1 2.6h-1.98Zm3.75-4.28h3.73l-1.86-4.31-1.87 4.31ZM111.68 17.28l-1.3-1.15a5.6 5.6 0 0 1-3.3 1.01 5.45 5.45 0 0 1-5.63-5.57c0-1.53.54-2.85 1.6-3.94A5.47 5.47 0 0 1 107.13 6a5.45 5.45 0 0 1 5.63 5.57c0 1.24-.36 2.34-1.1 3.3l1.24 1.05-1.2 1.36Zm-4.56-1.87c.7 0 1.31-.18 1.85-.52l-1.85-1.56 1.23-1.4 1.86 1.69a3.7 3.7 0 0 0 .56-2.05c0-1.06-.35-1.98-1.04-2.72a3.47 3.47 0 0 0-2.65-1.11c-1.05 0-1.93.36-2.62 1.1a3.84 3.84 0 0 0-1.04 2.71c0 1.07.35 1.98 1.04 2.72.7.76 1.59 1.14 2.66 1.14ZM122.43 17.13a4.57 4.57 0 0 1-3.37-1.22c-.8-.81-1.22-1.98-1.22-3.53v-6.2h1.9v6.13c0 .98.24 1.74.72 2.27.49.53 1.16.81 2 .81a2.6 2.6 0 0 0 2.01-.77c.49-.52.73-1.26.73-2.24v-6.2h1.9v6.11c0 1.57-.41 2.77-1.24 3.6a4.64 4.64 0 0 1-3.43 1.24ZM133.38 16.95V6.2h1.9v10.76h-1.9ZM141.69 16.95V6.2h1.9v9.05h5.69v1.71h-7.6ZM152.58 16.95l4.77-10.85h1.76l4.77 10.85h-2l-1.1-2.6h-5.12l-1.11 2.6h-1.97Zm3.77-4.28h3.73l-1.87-4.31-1.86 4.31ZM168.26 16.95V6.2h2.02l3.3 5.09 3.28-5.1h2.03v10.77h-1.9V9.23l-3.43 5.08h-.07l-3.38-5.04v7.68h-1.85ZM184.63 16.95V6.2h8.02v1.68h-6.12v2.8h5.42v1.7h-5.42v2.88h6.2v1.69h-8.1v.01ZM197.92 16.95V6.2h4.04c1.7 0 3.08.52 4.15 1.53a5.09 5.09 0 0 1 1.6 3.85c0 1.53-.53 2.82-1.6 3.85a5.71 5.71 0 0 1-4.13 1.53h-4.06Zm1.9-1.71h2.13c1.12 0 2.02-.35 2.7-1.02a3.56 3.56 0 0 0 1.05-2.63c0-1.07-.35-1.94-1.04-2.63a3.67 3.67 0 0 0-2.72-1.03h-2.12v7.3ZM212.89 16.95V6.2h1.9v10.76h-1.9ZM219.44 16.95 224.2 6.1h1.76l4.77 10.85h-2l-1.11-2.6h-5.12l-1.1 2.6h-1.97Zm3.75-4.28h3.73l-1.86-4.31-1.87 4.31Z"/>
  </g>
</svg>
