<svg width="186" height="32" viewBox="0 0 186 32" fill="none" xmlns="http://www.w3.org/2000/svg">
<path d="M22.3431 31.5362H18.386V24.0232H0V19.1536L16.7453 0H22.3431V20.4986H27.2653V24.0232H22.3431V31.5362ZM3.32975 20.4986H18.386V3.57101L3.32975 20.4986Z" fill="#2E373B"/>
<path d="M55.2824 3.71014H38.0546L36.9929 13.542C38.0546 12.8618 39.2771 12.3517 40.6605 12.0116C42.0439 11.6406 43.4111 11.4551 44.7623 11.4551C48.5908 11.4551 51.5827 12.3517 53.7382 14.1449C55.8937 15.9072 56.9714 18.3652 56.9714 21.5188C56.9714 24.6106 55.8454 27.1304 53.5934 29.0783C51.3736 31.0261 48.3334 32 44.4728 32C40.9339 32 38.0868 31.2889 35.9313 29.8667C33.7758 28.4135 32.3924 26.342 31.7811 23.6522L35.69 22.9101C36.1082 24.7652 37.1055 26.1565 38.6819 27.0841C40.2583 28.0116 42.1886 28.4754 44.4728 28.4754C47.2074 28.4754 49.2824 27.8725 50.698 26.6667C52.1135 25.4299 52.8213 23.7295 52.8213 21.5652C52.8213 19.4628 52.0814 17.8396 50.6015 16.6957C49.1216 15.5208 47.1269 14.9333 44.6176 14.9333C43.1699 14.9333 41.8026 15.1343 40.5157 15.5362C39.261 15.9072 38.1028 16.4792 37.0412 17.2522L33.0841 16.1391L34.8696 0H55.2824V3.71014Z" fill="#2E373B"/>
<path d="M69.158 10.9243V0.412235H73.7746C74.9756 0.412235 75.9193 0.695649 76.6057 1.26248C77.292 1.819 77.6351 2.65893 77.6351 3.78228C77.6351 4.58615 77.4475 5.25088 77.0721 5.77649C76.7075 6.29178 76.1874 6.6628 75.5118 6.88953L78.1016 10.9243H75.8657L73.5333 7.15233H71.1204V10.9243H69.158ZM71.1204 5.51368H73.6298C74.3483 5.51368 74.863 5.3694 75.174 5.08083C75.4957 4.78196 75.6566 4.35426 75.6566 3.79774C75.6566 3.18969 75.4957 2.75169 75.174 2.48373C74.863 2.20547 74.3483 2.06634 73.6298 2.06634H71.1204V5.51368Z" fill="#2E373B"/>
<path d="M79.9656 10.9243V0.412235H87.7672V2.0818H81.928V4.81803H87.5419V6.44122H81.928V9.25475H87.7189V10.9243H79.9656Z" fill="#2E373B"/>
<path d="M95.7288 0.412235L99.8629 10.9243H97.7717L96.7583 8.26538H92.1256L91.1444 10.9243H89.0854L93.1873 0.412235H95.7288ZM92.7691 6.56489H96.1149L94.4259 2.09726L92.7691 6.56489Z" fill="#2E373B"/>
<path d="M109.128 9.16199V10.9243H101.471V0.412235H103.433V9.16199H109.128Z" fill="#2E373B"/>
<path d="M114.195 10.9243V0.412235H121.996V2.0818H116.157V4.81803H121.771V6.44122H116.157V9.25475H121.948V10.9243H114.195Z" fill="#2E373B"/>
<path d="M123.781 8.07987L125.728 7.77069C125.867 8.32721 126.173 8.7446 126.645 9.02286C127.116 9.30112 127.717 9.44025 128.446 9.44025C129.186 9.44025 129.765 9.32174 130.183 9.0847C130.612 8.83736 130.827 8.50241 130.827 8.07987C130.827 7.69855 130.703 7.39967 130.457 7.18325C130.21 6.96682 129.797 6.80708 129.218 6.70402L127.304 6.36393C126.307 6.18872 125.524 5.87439 124.955 5.42093C124.398 4.96747 124.119 4.27182 124.119 3.33397C124.119 2.37552 124.505 1.62318 125.277 1.07697C126.06 0.530753 127.095 0.257645 128.382 0.257645C129.712 0.257645 130.73 0.5256 131.438 1.06151C132.146 1.58711 132.585 2.29823 132.757 3.19484L130.811 3.48856C130.714 3.05571 130.473 2.6847 130.087 2.37552C129.712 2.05603 129.132 1.89629 128.35 1.89629C127.62 1.89629 127.057 2.03027 126.661 2.29823C126.275 2.55587 126.081 2.89082 126.081 3.30306C126.081 3.68438 126.221 3.98325 126.5 4.19967C126.789 4.40579 127.261 4.56554 127.915 4.6789L129.958 5.06537C130.88 5.23027 131.583 5.5446 132.065 6.00837C132.559 6.47214 132.805 7.13172 132.805 7.98711C132.805 8.98679 132.409 9.75459 131.615 10.2905C130.821 10.8161 129.744 11.0789 128.382 11.0789C127.106 11.0789 126.071 10.8367 125.277 10.3523C124.484 9.86795 123.985 9.11046 123.781 8.07987Z" fill="#2E373B"/>
<path d="M133.761 2.17455V0.412235H143.461V2.17455H139.6V10.9243H137.638V2.17455H133.761Z" fill="#2E373B"/>
<path d="M149.516 0.412235L153.65 10.9243H151.558L150.545 8.26538H145.912L144.931 10.9243H142.872L146.974 0.412235H149.516ZM146.556 6.56489H149.902L148.213 2.09726L146.556 6.56489Z" fill="#2E373B"/>
<path d="M153.067 2.17455V0.412235H162.767V2.17455H158.906V10.9243H156.944V2.17455H153.067Z" fill="#2E373B"/>
<path d="M164.369 10.9243V0.412235H172.17V2.0818H166.331V4.81803H171.945V6.44122H166.331V9.25475H172.122V10.9243H164.369Z" fill="#2E373B"/>
<path d="M74.225 29.2895L70.9917 22.0393V30.248H69.158V19.7359H71.973L75.174 27.0171L78.3268 19.7359H81.0936V30.248H79.1794V22.0238L75.9622 29.2895H74.225Z" fill="#2E373B"/>
<path d="M89.3511 19.7359L93.4851 30.248H91.394L90.3806 27.589H85.7479L84.7666 30.248H82.7077L86.8095 19.7359H89.3511ZM86.3913 25.8886H89.7371L88.0481 21.4209L86.3913 25.8886Z" fill="#2E373B"/>
<path d="M104.696 30.248H102.428L97.0073 22.5494V30.248H95.0931V19.7359H97.2807L102.798 27.5736V19.7359H104.696V30.248Z" fill="#2E373B"/>
<path d="M112.946 19.7359L117.08 30.248H114.988L113.975 27.589H109.342L108.361 30.248H106.302L110.404 19.7359H112.946ZM109.986 25.8886H113.332L111.643 21.4209L109.986 25.8886Z" fill="#2E373B"/>
<path d="M128.057 25.0383V30.248H126.4V29.2122C126.014 29.5729 125.542 29.8615 124.985 30.0779C124.427 30.2944 123.81 30.4026 123.135 30.4026C122.341 30.4026 121.617 30.2841 120.963 30.047C120.32 29.7997 119.773 29.4493 119.322 28.9958C118.872 28.532 118.524 27.9652 118.277 27.2953C118.03 26.6151 117.907 25.8473 117.907 24.9919C117.907 24.0953 118.041 23.3121 118.309 22.6422C118.577 21.962 118.947 21.3952 119.419 20.9417C119.891 20.4882 120.459 20.1481 121.124 19.9214C121.789 19.6947 122.518 19.5813 123.312 19.5813C124.62 19.5813 125.682 19.8647 126.497 20.4316C127.312 20.9881 127.832 21.8177 128.057 22.9204L126.111 23.2142C125.961 22.6576 125.655 22.1939 125.194 21.8229C124.743 21.4518 124.116 21.2663 123.312 21.2663C122.25 21.2663 121.414 21.5961 120.802 22.2557C120.202 22.9153 119.902 23.8274 119.902 24.9919C119.902 26.1462 120.202 27.0531 120.802 27.7127C121.403 28.3723 122.245 28.7021 123.328 28.7021C124.196 28.7021 124.904 28.5011 125.451 28.0992C126.009 27.6973 126.288 27.2232 126.288 26.677V26.5533H123.617V25.0383H128.057Z" fill="#2E373B"/>
<path d="M130.406 30.248V19.7359H138.208V21.4055H132.369V24.1417H137.983V25.7649H132.369V28.5784H138.16V30.248H130.406Z" fill="#2E373B"/>
<path d="M145.558 29.2895L142.325 22.0393V30.248H140.491V19.7359H143.306L146.507 27.0171L149.66 19.7359H152.427V30.248H150.513V22.0238L147.296 29.2895H145.558Z" fill="#2E373B"/>
<path d="M155.006 30.248V19.7359H162.808V21.4055H156.969V24.1417H162.583V25.7649H156.969V28.5784H162.76V30.248H155.006Z" fill="#2E373B"/>
<path d="M174.694 30.248H172.426L167.005 22.5494V30.248H165.091V19.7359H167.279L172.796 27.5736V19.7359H174.694V30.248Z" fill="#2E373B"/>
<path d="M176.3 21.4982V19.7359H186V21.4982H182.139V30.248H180.177V21.4982H176.3Z" fill="#2E373B"/>
</svg>
