<svg width="50" height="50" fill="none" xmlns="http://www.w3.org/2000/svg"><path d="M48.891 26.09l-10.78-4.962V6.911a1.555 1.555 0 00-.933-1.4L25.51.144a1.556 1.556 0 00-1.306 0L12.537 5.51a1.556 1.556 0 00-.902 1.415v14.218L.902 26.09A1.556 1.556 0 000 27.505V42.72a1.556 1.556 0 00.902 1.416l11.667 5.367a1.555 1.555 0 001.307 0l11.013-5.072 11.013 5.072a1.555 1.555 0 001.307 0l11.667-5.367a1.556 1.556 0 00.902-1.416V27.506a1.556 1.556 0 00-.887-1.416zm-4.371 1.416l-7.949 3.625-7.949-3.625 7.95-3.655 7.948 3.655zM24.889 3.255l7.949 3.656-7.95 3.655-7.932-3.655 7.933-3.656zm-11.667 20.58l7.95 3.655-7.95 3.64-7.949-3.624 7.95-3.671zm10.111 17.873l-10.11 4.667L3.11 41.708V29.933l9.458 4.309a1.555 1.555 0 001.275 0l9.458-4.356.031 11.822zm-8.555-20.58V9.353l9.458 4.355a1.555 1.555 0 001.306 0L35 9.353v11.79l-10.111 4.668-10.111-4.683zm31.904 20.596l-10.11 4.667-10.128-4.667V29.917l9.474 4.325a1.555 1.555 0 001.26 0l9.458-4.356.046 11.838z" fill="#fff"/></svg>