<svg width="30" height="25" fill="none" xmlns="http://www.w3.org/2000/svg"><path d="M29.538 3.377c-1.078.478-2.237.8-3.455.947A6.032 6.032 0 0028.73.994a12.013 12.013 0 01-3.821 1.46 6.019 6.019 0 00-10.253 5.489A17.087 17.087 0 012.252 1.655a6.014 6.014 0 00-.814 3.025 6.02 6.02 0 002.677 5.01 6.002 6.002 0 01-2.726-.754v.078a6.02 6.02 0 004.827 5.9 6.061 6.061 0 01-2.717.104 6.021 6.021 0 005.62 4.177 12.075 12.075 0 01-7.473 2.577c-.48 0-.96-.028-1.436-.084a17.018 17.018 0 009.222 2.703c11.07 0 17.122-9.168 17.122-17.12 0-.258-.007-.519-.019-.777a12.232 12.232 0 003.001-3.113l.002-.004z" fill="#7CACF3"/></svg>