<svg width="32" height="32" viewBox="0 0 32 32" fill="none" xmlns="http://www.w3.org/2000/svg">
<path fill-rule="evenodd" clip-rule="evenodd" d="M9.95594 1.42198C11.5199 1.34998 12.0186 1.33398 16.0026 1.33398C19.9866 1.33398 20.4853 1.35132 22.0479 1.42198C23.6106 1.49265 24.6773 1.74198 25.6106 2.10332C26.5879 2.47265 27.4746 3.04998 28.2079 3.79665C28.9546 4.52865 29.5306 5.41398 29.8986 6.39265C30.2613 7.32598 30.5093 8.39265 30.5813 9.95265C30.6533 11.5193 30.6693 12.018 30.6693 16.0007C30.6693 19.9846 30.6519 20.4833 30.5813 22.0473C30.5106 23.6073 30.2613 24.674 29.8986 25.6073C29.5306 26.5861 28.9536 27.4729 28.2079 28.206C27.4746 28.9526 26.5879 29.5287 25.6106 29.8967C24.6773 30.2593 23.6106 30.5073 22.0506 30.5793C20.4853 30.6513 19.9866 30.6673 16.0026 30.6673C12.0186 30.6673 11.5199 30.65 9.95594 30.5793C8.39594 30.5086 7.32927 30.2593 6.39594 29.8967C5.41716 29.5286 4.53036 28.9517 3.79727 28.206C3.05111 27.4735 2.47369 26.5872 2.10527 25.6086C1.74394 24.6753 1.49594 23.6086 1.42394 22.0486C1.35194 20.482 1.33594 19.9833 1.33594 16.0007C1.33594 12.0167 1.35327 11.518 1.42394 9.95532C1.4946 8.39265 1.74394 7.32598 2.10527 6.39265C2.47423 5.41409 3.0521 4.52774 3.7986 3.79532C4.53066 3.04932 5.41657 2.47191 6.3946 2.10332C7.32794 1.74198 8.3946 1.49398 9.9546 1.42198H9.95594ZM21.9293 4.06198C20.3826 3.99132 19.9186 3.97665 16.0026 3.97665C12.0866 3.97665 11.6226 3.99132 10.0759 4.06198C8.64527 4.12732 7.86927 4.36598 7.35194 4.56732C6.66794 4.83398 6.1786 5.14998 5.66527 5.66332C5.17866 6.13672 4.80418 6.71303 4.56927 7.34998C4.36794 7.86732 4.12927 8.64332 4.06394 10.074C3.99327 11.6207 3.9786 12.0847 3.9786 16.0007C3.9786 19.9167 3.99327 20.3806 4.06394 21.9273C4.12927 23.358 4.36794 24.134 4.56927 24.6513C4.80394 25.2873 5.1786 25.8647 5.66527 26.338C6.1386 26.8246 6.71594 27.1993 7.35194 27.434C7.86927 27.6353 8.64527 27.874 10.0759 27.9393C11.6226 28.01 12.0853 28.0246 16.0026 28.0246C19.9199 28.0246 20.3826 28.01 21.9293 27.9393C23.3599 27.874 24.1359 27.6353 24.6533 27.434C25.3373 27.1673 25.8266 26.8513 26.3399 26.338C26.8266 25.8647 27.2013 25.2873 27.4359 24.6513C27.6373 24.134 27.8759 23.358 27.9413 21.9273C28.0119 20.3806 28.0266 19.9167 28.0266 16.0007C28.0266 12.0847 28.0119 11.6207 27.9413 10.074C27.8759 8.64332 27.6373 7.86732 27.4359 7.34998C27.1693 6.66598 26.8533 6.17665 26.3399 5.66332C25.8665 5.17675 25.2902 4.80227 24.6533 4.56732C24.1359 4.36598 23.3599 4.12732 21.9293 4.06198ZM14.1293 20.522C15.1755 20.9575 16.3404 21.0163 17.4252 20.6883C18.5099 20.3603 19.4471 19.6659 20.0767 18.7236C20.7064 17.7814 20.9893 16.6498 20.8773 15.5221C20.7653 14.3944 20.2653 13.3406 19.4626 12.5407C18.9509 12.0293 18.3322 11.6377 17.651 11.3942C16.9699 11.1506 16.2432 11.0611 15.5233 11.1321C14.8034 11.2031 14.1081 11.4329 13.4877 11.8048C12.8672 12.1768 12.3369 12.6816 11.935 13.2831C11.5331 13.8846 11.2695 14.5677 11.1633 15.2833C11.0571 15.9988 11.1108 16.729 11.3207 17.4213C11.5305 18.1136 11.8912 18.7508 12.3769 19.2869C12.8626 19.8231 13.461 20.2449 14.1293 20.522ZM10.6719 10.67C11.372 9.96995 12.203 9.41465 13.1177 9.0358C14.0323 8.65694 15.0126 8.46195 16.0026 8.46195C16.9926 8.46195 17.9729 8.65694 18.8875 9.0358C19.8022 9.41465 20.6332 9.96995 21.3333 10.67C22.0333 11.37 22.5886 12.2011 22.9675 13.1157C23.3463 14.0304 23.5413 15.0107 23.5413 16.0007C23.5413 16.9906 23.3463 17.9709 22.9675 18.8856C22.5886 19.8002 22.0333 20.6313 21.3333 21.3313C19.9195 22.7451 18.002 23.5394 16.0026 23.5394C14.0032 23.5394 12.0857 22.7451 10.6719 21.3313C9.25816 19.9175 8.4639 18 8.4639 16.0007C8.4639 14.0013 9.25816 12.0838 10.6719 10.67ZM25.2133 9.58465C25.3867 9.42101 25.5256 9.22423 25.6217 9.00595C25.7177 8.78767 25.769 8.55234 25.7725 8.31389C25.776 8.07544 25.7316 7.83871 25.6419 7.61773C25.5523 7.39675 25.4192 7.196 25.2506 7.02737C25.0819 6.85874 24.8812 6.72566 24.6602 6.63601C24.4392 6.54635 24.2025 6.50195 23.964 6.50543C23.7256 6.5089 23.4902 6.56019 23.272 6.65625C23.0537 6.7523 22.8569 6.89118 22.6933 7.06465C22.375 7.40202 22.2008 7.85015 22.2075 8.31389C22.2143 8.77764 22.4015 9.22049 22.7295 9.54844C23.0574 9.87639 23.5003 10.0636 23.964 10.0704C24.4278 10.0771 24.8759 9.9029 25.2133 9.58465Z" fill="#7CACF3"/>
</svg>
