<svg width="31" height="31" viewBox="0 0 31 31" fill="none" xmlns="http://www.w3.org/2000/svg">
<path d="M30.5395 6.37696C29.461 6.85487 28.3024 7.17779 27.0843 7.32375C28.3411 6.57173 29.2814 5.38814 29.7296 3.99383C28.5489 4.69519 27.2566 5.18887 25.9089 5.45341C25.0026 4.48578 23.8023 3.84442 22.4942 3.6289C21.186 3.41338 19.8434 3.63577 18.6746 4.26153C17.5058 4.8873 16.5763 5.88142 16.0304 7.08957C15.4845 8.29772 15.3528 9.6523 15.6556 10.943C13.2631 10.8229 10.9225 10.201 8.78582 9.11775C6.64914 8.0345 4.76411 6.51408 3.25306 4.65516C2.7364 5.54641 2.43931 6.57975 2.43931 7.68025C2.43874 8.67095 2.6827 9.64648 3.14957 10.5203C3.61644 11.3941 4.29177 12.1391 5.11565 12.6893C4.16017 12.6589 3.22577 12.4008 2.39023 11.9363V12.0138C2.39013 13.4033 2.87077 14.75 3.75059 15.8255C4.63041 16.901 5.85522 17.6389 7.21719 17.9141C6.33082 18.154 5.40154 18.1893 4.49952 18.0175C4.88379 19.213 5.63231 20.2585 6.64029 21.0076C7.64827 21.7566 8.86525 22.1717 10.1209 22.1947C7.98939 23.8679 5.35704 24.7756 2.64727 24.7716C2.16726 24.7717 1.68766 24.7437 1.21094 24.6876C3.96151 26.4561 7.16338 27.3947 10.4334 27.3911C21.503 27.3911 27.5545 18.2228 27.5545 10.2713C27.5545 10.013 27.548 9.75208 27.5364 9.49375C28.7135 8.64251 29.7295 7.5884 30.5369 6.38083L30.5395 6.37696Z" fill="#7CACF3"/>
</svg>
